<?xml version="1.0" standalone="no"?>
<!DOCTYPE svg PUBLIC "-//W3C//DTD SVG 1.1//EN" "http://www.w3.org/Graphics/SVG/1.1/DTD/svg11.dtd" >
<svg>
<metadata>
Created by FontForge 20120731 at Wed Jul  3 00:40:12 2019
 By www
Copyright Nate Halley 2012. Edit by WLM Fonts.
</metadata>
<defs>
<font id="Akron-Sans-NBP" horiz-adv-x="465" >
  <font-face 
    font-family="Akron Shades NBP"
    font-weight="400"
    font-stretch="normal"
    units-per-em="1024"
    panose-1="0 0 4 0 0 0 0 0 0 0"
    ascent="819"
    descent="-205"
    x-height="448"
    cap-height="704"
    bbox="-64 -249 785 917"
    underline-thickness="51"
    underline-position="124"
    unicode-range="U+0020-FB06"
  />
<missing-glyph horiz-adv-x="85" 
d="M-15 -15v734h734l21 -21v-734l-713 -21l-21 21zM284 507h164v60h-75q-41 0 -68 -29q-14 -14 -21 -31zM276 376h61v61h-61v-61zM276 245h172v61h-172v-61zM276 114h61v61h-61v-61zM349 102h-106v106h106v-106zM460 233h-217v106h217v-106zM349 364h-106v106h106v-106z
M460 495h-218l2 14q6 33 31 58q31 33 77 33h108v-105zM-3 -3h710v710h-710v-710z" />
    <glyph glyph-name=".notdef" horiz-adv-x="85" 
d="M-15 -15v734h734l21 -21v-734l-713 -21l-21 21zM284 507h164v60h-75q-41 0 -68 -29q-14 -14 -21 -31zM276 376h61v61h-61v-61zM276 245h172v61h-172v-61zM276 114h61v61h-61v-61zM349 102h-106v106h106v-106zM460 233h-217v106h217v-106zM349 364h-106v106h106v-106z
M460 495h-218l2 14q6 33 31 58q31 33 77 33h108v-105zM-3 -3h710v710h-710v-710z" />
    <glyph glyph-name="glyph1" horiz-adv-x="0" 
 />
    <glyph glyph-name="glyph2" horiz-adv-x="128" 
 />
    <glyph glyph-name="space" unicode=" " horiz-adv-x="128" 
 />
    <glyph glyph-name="exclam" unicode="!" horiz-adv-x="149" 
d="M-15 177v542h94l21 -21v-542l-73 -21l-21 21zM-15 -15v94h94l21 -21v-94l-73 -21l-21 21zM-3 -3h70v70h-70v-70zM-3 189h70v518h-70v-518z" />
    <glyph glyph-name="quotedbl" unicode="&#x22;" horiz-adv-x="277" 
d="M113 561v158h94l21 -21v-158l-73 -21l-21 21zM-15 561v158h94l21 -21v-158l-73 -21l-21 21zM-3 573h70v134h-70v-134zM125 573h70v134h-70v-134z" />
    <glyph glyph-name="numbersign" unicode="#" horiz-adv-x="597" 
d="M305 156h-77v-128l-73 -21l-21 21l-21 21v107h-107l-21 21v94h128v77h-107l-21 21v94h128v128h94l21 -21v-107h77v128h94l21 -21v-107h107l21 -21v-94h-128v-77h107l21 -21v-94h-128v-128h-94l-21 21v107zM228 271h77v77h-77v-77zM317 259h-122v122h122v-122zM125 61h70
v128h122v-128h70v128h128v70h-128v122h128v70h-128v128h-70v-128h-122v128h-70v-128h-128v-70h128v-122h-128v-70h128v-128z" />
    <glyph glyph-name="dollar" unicode="$" 
d="M272 -85h-122l-21 21v102h-108l-21 21v90h129v135h-108l-21 21v339h129v124h122l21 -21v-102h108l21 -21v-90h-129v-135h108l21 -21v-339h-129v-124zM129 540h-14l14 -119v119zM286 284h-14l14 -119v119zM239 131v186h59v-186h-59zM82 387v186h59v-186h-59zM239 -52v124
h129v315h-129v180h129v66h-129v123h-98v-124h-129v-315h129v-180h-129v-66h129v-123h98z" />
    <glyph glyph-name="percent" unicode="%" horiz-adv-x="593" 
d="M435 412h-16q4 -14 9 -28h7v28zM152 619h-16q4 -14 9 -28h7v28zM294 450l-167 -151h-106l-21 21l176 156h-134l-21 21v207h235l21 -21v-131l167 152h106l21 -21l-175 -156h133l21 -21v-207h-235l-21 21v130zM232 509l-200 -177h69l205 186v-186h211v183h-198l199 177h-69
l-205 -186v186h-211v-183h199zM103 579v73h61v-73h-61zM386 372v73h61v-73h-61z" />
    <glyph glyph-name="ampersand" unicode="&#x26;" horiz-adv-x="405" 
d="M-15 -15v734h222l21 -21v-94h-128v-205h235l21 -21v-94h-64v-320l-265 -21l-21 21zM100 79h77v205h-77v-205zM189 67h-122v250h122v-250zM-3 -3h262v320h64v70h-256v250h128v70h-198v-710z" />
    <glyph glyph-name="quotesingle" unicode="'" horiz-adv-x="213" 
d="M8 561l41 83v75h94l21 -21v-83l-38 -75l-76 -21l-21 21zM27 573h71l33 66v68h-70v-66z" />
    <glyph glyph-name="parenleft" unicode="(" horiz-adv-x="213" 
d="M-15 58v588l158 158l21 -21v-106l-64 -64l43 -607l21 -21v-106l-21 21zM-3 63l134 -134v72l-64 64v574l64 64v72l-134 -134v-578z" />
    <glyph glyph-name="parenright" unicode=")" horiz-adv-x="213" 
d="M-15 6l64 64v564l-64 64v106l158 -158l21 -21v-588l-158 -158l-21 21v106zM-3 1v-72l134 134v578l-134 134v-72l64 -64v-574z" />
    <glyph glyph-name="asterisk" unicode="*" horiz-adv-x="277" 
d="M128 491l-75 11l-21 21l-53 53l64 64l-32 32l53 53l64 -64l32 32l53 -53l21 -21l-53 -75l21 -21l-53 -53zM96 591l-17 17q0 -8 4.5 -12.5t12.5 -4.5zM101 592q4 1 6 4h1q3 3 4 7q-4 -1 -7 -4l-21 21v-1l21 -21q-3 -3 -4 -6zM113 608q0 6 -5 11h-1v1q-5 5 -11 5zM116 588
l-3 -4h-1q-7 -5 -16 -5q-13 0 -21 8t-8 21q0 9 5 16v1l4 3q8 9 20 9q11 0 19 -9l3 -2q7 -10 7 -18q0 -12 -9 -20zM64 572l64 -64l36 36l-32 32l64 64l-36 36l-32 -32l-64 64l-36 -36l32 -32l-64 -64l36 -36z" />
    <glyph glyph-name="plus" unicode="+" horiz-adv-x="405" 
d="M228 399h107l21 -21v-94h-128v-128l-73 -21l-21 21l-21 21v107h-107l-21 21v94h128v128h94l21 -21v-107zM125 189h70v128h128v70h-128v128h-70v-128h-128v-70h128v-128z" />
    <glyph glyph-name="comma" unicode="," horiz-adv-x="149" 
d="M-56 -79l41 83v75h94l21 -21v-83l-38 -75l-76 -21l-21 21zM-37 -67h71l33 66v68h-70v-66z" />
    <glyph glyph-name="hyphen" unicode="-" horiz-adv-x="405" 
d="M-15 305v94h350l21 -21v-94l-329 -21l-21 21zM-3 317h326v70h-326v-70z" />
    <glyph glyph-name="period" unicode="." horiz-adv-x="149" 
d="M-15 -15v94h94l21 -21v-94l-73 -21l-21 21zM-3 -3h70v70h-70v-70z" />
    <glyph glyph-name="slash" unicode="/" horiz-adv-x="533" 
d="M-24 -15l367 734h97l21 -21l-367 -734l-76 -21l-21 21zM-5 -3h71l355 710h-71z" />
    <glyph glyph-name="zero" unicode="0" 
d="M401 -21h-380l-21 21v704h380l21 -21v-704zM272 220h-122l-21 21v222h122l21 -21v-222zM286 619h-171l20 -555h151v555zM239 253v198h-98v-198h98zM82 52v600h216v-600h-216zM368 12v680h-356v-680h356z" />
    <glyph glyph-name="one" unicode="1" horiz-adv-x="307" 
d="M243 -21h-94l-21 21v619h-107l-21 21v64h222l21 -21v-704zM210 12v680h-198v-40h128v-640h70z" />
    <glyph glyph-name="two" unicode="2" 
d="M401 -21h-380l-21 21v399h286v220h-265l-21 21v64h380l21 -21v-399h-286v-220h265l21 -21v-64zM368 12v40h-286v265h286v375h-356v-40h286v-265h-286v-375h356z" />
    <glyph glyph-name="three" unicode="3" 
d="M401 -21h-380l-21 21v64h286v220h-201l-21 21v94h222v220h-265l-21 21v64h380l21 -21v-704zM368 12v680h-356v-40h286v-265h-222v-70h222v-265h-286v-40h356z" />
    <glyph glyph-name="four" unicode="4" 
d="M401 -21h-94l-21 21v284h-265l-21 21v399h94l21 -21v-284h171v305h94l21 -21v-704zM368 12v680h-70v-305h-216v305h-70v-375h286v-305h70z" />
    <glyph glyph-name="five" unicode="5" 
d="M401 -21h-380l-21 21v192h94l21 -21v-107h171v220h-265l-21 21v399h380l21 -21v-64h-286v-220h265l21 -21v-399zM368 12v375h-286v265h286v40h-356v-375h286v-265h-216v128h-70v-168h356z" />
    <glyph glyph-name="six" unicode="6" 
d="M401 -21h-380l-21 21v704h380l21 -21v-64h-286v-220h265l21 -21v-399zM286 284h-171l18 -220h153v220zM82 52v265h216v-265h-216zM368 12v375h-286v265h286v40h-356v-680h356z" />
    <glyph glyph-name="seven" unicode="7" 
d="M401 -21h-94l-21 21v619h-265l-21 21v64h380l21 -21v-704zM368 12v680h-356v-40h286v-640h70z" />
    <glyph glyph-name="eight" unicode="8" 
d="M401 -21h-380l-21 21v704h380l21 -21v-704zM286 619h-171l18 -220h153v220zM286 284h-171l18 -220h153v220zM82 52v265h216v-265h-216zM82 387v265h216v-265h-216zM368 12v680h-356v-680h356z" />
    <glyph glyph-name="nine" unicode="9" 
d="M401 -21h-94l-21 21v284h-265l-21 21v399h380l21 -21v-704zM286 619h-171l18 -220h153v220zM82 387v265h216v-265h-216zM368 12v680h-356v-375h286v-305h70z" />
    <glyph glyph-name="colon" unicode=":" horiz-adv-x="149" 
d="M-15 497v94h94l21 -21v-94l-73 -21l-21 21zM-15 113v94h94l21 -21v-94l-73 -21l-21 21zM-3 125h70v70h-70v-70zM-3 509h70v70h-70v-70z" />
    <glyph glyph-name="semicolon" unicode=";" horiz-adv-x="149" 
d="M-15 497v94h94l21 -21v-94l-73 -21l-21 21zM-56 49l41 83v75h94l21 -21v-83l-38 -75l-76 -21l-21 21zM-37 61h71l33 66v68h-70v-66zM-3 509h70v70h-70v-70z" />
    <glyph glyph-name="less" unicode="&#x3c;" horiz-adv-x="341" 
d="M-21 256l292 292l21 -21v-106l-21 -351l21 -21v-106l-21 21zM-4 256l263 -263v72l-191 191l191 191v72z" />
    <glyph glyph-name="equal" unicode="=" horiz-adv-x="405" 
d="M-15 305v94h350l21 -21v-94l-329 -21l-21 21zM-15 113v94h350l21 -21v-94l-329 -21l-21 21zM-3 125h326v70h-326v-70zM-3 317h326v70h-326v-70z" />
    <glyph glyph-name="greater" unicode="&#x3e;" horiz-adv-x="341" 
d="M-15 70l186 186l-186 186v106l292 -292l21 -21l-292 -292l-21 21v106zM-3 65v-72l263 263l-263 263v-72l191 -191z" />
    <glyph glyph-name="question" unicode="?" horiz-adv-x="405" 
d="M113 177v222h128v205h-141v-128h-94l-21 21v222h350l21 -21v-414h-128v-128l-73 -21l-21 21zM113 -15v94h94l21 -21v-94l-73 -21l-21 21zM125 -3h70v70h-70v-70zM125 189h70v128h128v390h-326v-198h70v128h186v-250h-128v-198z" />
    <glyph glyph-name="at" unicode="@" horiz-adv-x="533" 
d="M-15 -15v606h478l21 -21v-478h-350l-21 21v222h128v13h-107l-21 21v94h222l21 -21v-235h13v269h-269v-397h363l21 -21v-94l-457 -21l-21 21zM228 207h13v13h-13v-13zM253 195h-58v58h58v-58zM-3 -3h454v70h-384v442h314v-314h-58v256h-198v-70h128v-58h-128v-198h326v454
h-454v-582z" />
    <glyph glyph-name="A" unicode="A" 
d="M115 -21h-94l-21 21v704h380l21 -21v-704h-94l-21 21v284h-171v-305zM286 619h-171l18 -220h153v220zM82 387v265h216v-265h-216zM82 12v305h216v-305h70v680h-356v-680h70z" />
    <glyph glyph-name="B" unicode="B" horiz-adv-x="435" 
d="M298 -21h-277l-21 21v704h277l73 -70l21 -21v-257l-25 -25l4 -4l21 -21v-257zM256 619h-141l18 -220h123v220zM256 284h-141l18 -220h123v220zM82 52v265h186v-265h-186zM82 387v265h186v-265h-186zM272 12l66 63v247l-31 30l31 30v247l-66 63h-260v-680h260z" />
    <glyph glyph-name="C" unicode="C" 
d="M401 -21h-380l-21 21v704h380l21 -21v-64h-286v-555h265l21 -21v-64zM368 12v40h-286v600h286v40h-356v-680h356z" />
    <glyph glyph-name="D" unicode="D" horiz-adv-x="435" 
d="M298 -21h-277l-21 21v704h277l73 -70l21 -21v-564zM256 619h-141l20 -555h121v555zM82 52v600h186v-600h-186zM272 12l66 63v554l-66 63h-260v-680h260z" />
    <glyph glyph-name="E" unicode="E" 
d="M401 -21h-380l-21 21v704h380l21 -21v-64h-286v-220h201l21 -21v-94h-222v-220h265l21 -21v-64zM368 12v40h-286v265h222v70h-222v265h286v40h-356v-680h356z" />
    <glyph glyph-name="F" unicode="F" 
d="M115 -21h-94l-21 21v704h380l21 -21v-64h-286v-220h201l21 -21v-94h-222v-305zM82 12v305h222v70h-222v265h286v40h-356v-680h70z" />
    <glyph glyph-name="G" unicode="G" 
d="M401 -21h-380l-21 21v704h380l21 -21v-64h-286v-555h171v320h94l21 -21v-384zM368 12v360h-70v-320h-216v600h286v40h-356v-680h356z" />
    <glyph glyph-name="H" unicode="H" 
d="M115 -21h-94l-21 21v704h94l21 -21v-284h171v305h94l21 -21v-704h-94l-21 21v284h-171v-305zM82 12v305h216v-305h70v680h-70v-305h-216v305h-70v-680h70z" />
    <glyph glyph-name="I" unicode="I" horiz-adv-x="307" 
d="M243 -21h-222l-21 21v64h64v555h-43l-21 21v64h222l21 -21v-64h-64v-555h43l21 -21v-64zM210 12v40h-64v600h64v40h-198v-40h64v-600h-64v-40h198z" />
    <glyph glyph-name="J" unicode="J" 
d="M401 -21h-380l-21 21v192h94l21 -21v-107h171v640h94l21 -21v-704zM368 12v680h-70v-640h-216v128h-70v-168h356z" />
    <glyph glyph-name="K" unicode="K" 
d="M115 -21h-94l-21 21v704h94l21 -21v-215l145 236h97l21 -21l-183 -321l215 -383h-97l-21 21l-177 299v-320zM82 12v367l217 -367h69l-208 371l176 309h-69l-185 -302v302h-70v-680h70z" />
    <glyph glyph-name="L" unicode="L" 
d="M401 -21h-380l-21 21v704h94l21 -21v-619h265l21 -21v-64zM368 12v40h-286v640h-70v-680h356z" />
    <glyph glyph-name="M" unicode="M" 
d="M115 -21h-94l-21 21v704h380l21 -21v-704h-94l-21 21v619h-19v-320h-112l-21 21v299h-19v-640zM82 12v640h64v-320h88v320h64v-640h70v680h-356v-680h70z" />
    <glyph glyph-name="N" unicode="N" 
d="M116 -21h-95l-21 21v704h88l21 -21l177 -299v320h94l21 -21v-704h-94l-21 21v203l-170 288v-512zM83 12v559l215 -365v-194h70v680h-70v-367l-217 367h-69v-680h71z" />
    <glyph glyph-name="O" unicode="O" 
d="M401 -21h-380l-21 21v704h380l21 -21v-704zM286 619h-171l20 -555h151v555zM82 52v600h216v-600h-216zM368 12v680h-356v-680h356z" />
    <glyph glyph-name="P" unicode="P" 
d="M115 -21h-94l-21 21v704h380l21 -21v-399h-286v-305zM286 619h-171l18 -220h153v220zM82 387v265h216v-265h-216zM82 12v305h286v375h-356v-680h70z" />
    <glyph glyph-name="Q" unicode="Q" 
d="M272 -213h-122l-21 21v171h-108l-21 21v704h380l21 -21v-704h-129v-192zM115 64h14v64h122l21 -21l11 -43h3v555h-171v-555zM239 52v64h-98v-64h-59v600h216v-600h-59zM239 -180v192h129v680h-356v-680h129v-192h98z" />
    <glyph glyph-name="R" unicode="R" 
d="M115 -21h-94l-21 21v704h380l21 -21v-399h-162l171 -305h-97l-21 21l-176 284h-1v-305zM285 619h-170l18 -220h152v220zM82 387v265h215v-265h-215zM82 12v305h28l189 -305h70l-171 305h170v375h-356v-680h70z" />
    <glyph glyph-name="S" unicode="S" 
d="M401 -21h-380l-21 21v64h286v220h-265l-21 21v399h380l21 -21v-64h-286v-220h265l21 -21v-399zM368 12v375h-286v265h286v40h-356v-375h286v-265h-286v-40h356z" />
    <glyph glyph-name="T" unicode="T" 
d="M273 -21h-94l-21 21l-28 619h-109l-21 21v64h380l21 -21v-64h-129zM240 12l-1 640h129v40h-356v-40h128l29 -640h71z" />
    <glyph glyph-name="U" unicode="U" 
d="M401 -21h-380l-21 21v704h94l21 -21v-619h171v640h94l21 -21v-704zM368 12v680h-70v-640h-216v640h-70v-680h356z" />
    <glyph glyph-name="V" unicode="V" 
d="M260 -21h-98l-21 21l-141 257v447h94l21 -21v-459l79 -134l92 155v459h94l21 -21v-447zM232 12l136 248v432h-70v-450l-108 -183l-108 183v450h-70v-432l136 -248h84z" />
    <glyph glyph-name="W" unicode="W" 
d="M401 -21h-380l-21 21v704h94l21 -21v-619h19v320h112l21 -21v-299h19v640h94l21 -21v-704zM368 12v680h-70v-640h-64v320h-88v-320h-64v640h-70v-680h356z" />
    <glyph glyph-name="X" unicode="X" horiz-adv-x="657" 
d="M151 -21h-98l-21 21l208 383l-176 321h98l21 -21l117 -208l129 229h98l21 -21l-177 -321l209 -383h-98l-21 21l-150 271zM123 12l172 314l173 -314h71l-203 371l171 309h-71l-141 -249l-140 249h-71l170 -309l-202 -371h71z" />
    <glyph glyph-name="Y" unicode="Y" horiz-adv-x="593" 
d="M337 -21h-106l-21 21v379l-178 325h98l21 -21l117 -208l129 229h98l21 -21l-179 -325v-379zM304 12v370l171 310h-71l-141 -249l-140 249h-71l170 -310v-370h82z" />
    <glyph glyph-name="Z" unicode="Z" 
d="M401 -21h-380l-21 21v147l265 472h-244l-21 21v64h380l21 -21v-83l-286 -512v-24h265l21 -21v-64zM368 12v40h-286v60l286 512v68h-356v-40h286l-286 -508v-132h356z" />
    <glyph glyph-name="bracketleft" unicode="[" horiz-adv-x="213" 
d="M-15 -79v862h158l21 -21v-94h-64v-653h43l21 -21v-94l-137 -21l-21 21zM-3 -67h134v70h-64v698h64v70h-134v-838z" />
    <glyph glyph-name="backslash" unicode="\" horiz-adv-x="533" 
d="M375 -15l-367 734h97l21 -21l367 -734l-76 -21l-21 21zM382 -3h71l-355 710h-71z" />
    <glyph glyph-name="bracketright" unicode="]" horiz-adv-x="213" 
d="M-15 -79v94h64v653h-43l-21 21v94h158l21 -21v-862l-137 -21l-21 21zM-3 -67h134v838h-134v-70h64v-698h-64v-70z" />
    <glyph glyph-name="asciicircum" unicode="^" horiz-adv-x="405" 
d="M40 497l152 305l21 -21l152 -305h-97l-21 21l-39 77l-50 -98l-76 -21l-21 21zM59 509h71l62 124l62 -124h71l-133 266z" />
    <glyph glyph-name="underscore" unicode="_" horiz-adv-x="405" 
d="M-15 -15v94h350l21 -21v-94l-329 -21l-21 21zM-3 -3h326v70h-326v-70z" />
    <glyph glyph-name="grave" unicode="`" horiz-adv-x="277" 
d="M122 625l-158 158h106l158 -158l21 -21l-85 -21l-21 21zM127 637h72l-134 134h-72z" />
    <glyph glyph-name="a" unicode="a" 
d="M401 -21h-380l-21 21v271h286v92h-265l-21 21v64h380l21 -21v-448zM286 156h-171l15 -92h156v92zM82 52v137h216v-137h-216zM368 12v424h-356v-40h286v-137h-286v-247h356z" />
    <glyph glyph-name="b" unicode="b" 
d="M401 -21h-380l-21 21v704h94l21 -21v-235h265l21 -21v-448zM286 363h-171l19 -299h152v299zM82 52v344h216v-344h-216zM368 12v424h-286v256h-70v-680h356z" />
    <glyph glyph-name="c" unicode="c" 
d="M401 -21h-380l-21 21v448h380l21 -21v-64h-286v-299h265l21 -21v-64zM368 12v40h-286v344h286v40h-356v-424h356z" />
    <glyph glyph-name="d" unicode="d" 
d="M401 -21h-380l-21 21v448h286v256h94l21 -21v-704zM286 363h-171l19 -299h152v299zM82 52v344h216v-344h-216zM368 12v680h-70v-256h-286v-424h356z" />
    <glyph glyph-name="e" unicode="e" 
d="M401 -21h-380l-21 21v448h380l21 -21v-271h-286v-92h265l21 -21v-64zM286 363h-171l15 -92h156v92zM82 259v137h216v-137h-216zM368 12v40h-286v137h286v247h-356v-424h356z" />
    <glyph glyph-name="f" unicode="f" horiz-adv-x="371" 
d="M179 -21h-94l-21 21v363h-43l-21 21v64h64v256h222l21 -21v-94h-128v-141h107l21 -21v-64h-128v-384zM146 12v384h128v40h-128v186h128v70h-198v-256h-64v-40h64v-384h70z" />
    <glyph glyph-name="g" unicode="g" 
d="M401 -213h-380l-21 21v94h286v77h-265l-21 21v448h380l21 -21v-640zM286 363h-171l19 -299h152v299zM82 52v344h216v-344h-216zM368 -180v616h-356v-424h286v-122h-286v-70h356z" />
    <glyph glyph-name="h" unicode="h" 
d="M115 -21h-94l-21 21v704h94l21 -21v-235h265l21 -21v-448h-94l-21 21v363h-171v-384zM82 12v384h216v-384h70v424h-286v256h-70v-680h70z" />
    <glyph glyph-name="i" unicode="i" horiz-adv-x="179" 
d="M115 589h-94l-21 21v94h94l21 -21v-94zM115 -21h-94l-21 21v448h94l21 -21v-448zM82 12v424h-70v-424h70zM82 622v70h-70v-70h70z" />
    <glyph glyph-name="j" unicode="j" horiz-adv-x="307" 
d="M243 589h-94l-21 21v94h94l21 -21v-94zM243 -213h-222l-21 21v94h128v546h94l21 -21v-640zM210 -180v616h-70v-546h-128v-70h198zM210 622v70h-70v-70h70z" />
    <glyph glyph-name="k" unicode="k" horiz-adv-x="401" 
d="M115 -21h-94l-21 21v704h94l21 -21v-345l71 110h107l21 -21l-114 -194l146 -254h-97l-21 21l-113 174v-195zM82 12v236l153 -236h69l-139 242l107 182h-79l-111 -172v428h-70v-680h70z" />
    <glyph glyph-name="l" unicode="l" horiz-adv-x="307" 
d="M243 -21h-158l-21 21v589h-43l-21 21v94h158l21 -21v-619h43l21 -21v-64zM210 12v40h-64v640h-134v-70h64v-610h134z" />
    <glyph glyph-name="m" unicode="m" 
d="M115 -21h-94l-21 21v448h380l21 -21v-448h-94l-21 21v363h-19v-192h-112l-21 21v171h-19v-384zM82 12v384h64v-192h88v192h64v-384h70v424h-356v-424h70z" />
    <glyph glyph-name="n" unicode="n" 
d="M115 -21h-94l-21 21v448h380l21 -21v-448h-94l-21 21v363h-171v-384zM82 12v384h216v-384h70v424h-356v-424h70z" />
    <glyph glyph-name="o" unicode="o" 
d="M401 -21h-380l-21 21v448h380l21 -21v-448zM286 363h-171l19 -299h152v299zM82 52v344h216v-344h-216zM368 12v424h-356v-424h356z" />
    <glyph glyph-name="p" unicode="p" 
d="M115 -213h-94l-21 21v640h380l21 -21v-448h-286v-192zM286 363h-171l19 -299h152v299zM82 52v344h216v-344h-216zM82 -180v192h286v424h-356v-616h70z" />
    <glyph glyph-name="q" unicode="q" 
d="M401 -213h-94l-21 21v171h-265l-21 21v448h380l21 -21v-640zM286 363h-171l19 -299h152v299zM82 52v344h216v-344h-216zM368 -180v616h-356v-424h286v-192h70z" />
    <glyph glyph-name="r" unicode="r" horiz-adv-x="307" 
d="M115 -21h-94l-21 21v448h222l21 -21v-64h-128v-384zM82 12v384h128v40h-198v-424h70z" />
    <glyph glyph-name="s" unicode="s" 
d="M401 -21h-380l-21 21v64h286v92h-265l-21 21v271h380l21 -21v-64h-286v-92h265l21 -21v-271zM368 12v247h-286v137h286v40h-356v-247h286v-137h-286v-40h356z" />
    <glyph glyph-name="t" unicode="t" 
d="M401 -21h-251l-21 21v363h-108l-21 21v64h129v256h122l21 -21v-235h108l21 -21v-64h-129v-299h108l21 -21v-64zM368 12v40h-129v344h129v40h-129v256h-98v-256h-129v-40h129v-384h227z" />
    <glyph glyph-name="u" unicode="u" 
d="M401 -21h-380l-21 21v448h94l21 -21v-363h171v384h94l21 -21v-448zM368 12v424h-70v-384h-216v384h-70v-424h356z" />
    <glyph glyph-name="v" unicode="v" 
d="M260 -21h-98l-21 21l-141 251v197h94l21 -21v-203l79 -134l92 155v203h94l21 -21v-197zM232 12l136 242v182h-70v-194l-108 -183l-108 183v194h-70v-182l136 -242h84z" />
    <glyph glyph-name="w" unicode="w" 
d="M401 -21h-380l-21 21v448h94l21 -21v-363h19v192h112l21 -21v-171h19v384h94l21 -21v-448zM368 12v424h-70v-384h-64v192h-88v-192h-64v384h-70v-424h356z" />
    <glyph glyph-name="x" unicode="x" horiz-adv-x="529" 
d="M151 -21h-98l-21 21l137 254l-105 194h98l21 -21l52 -82l66 103h98l21 -21l-106 -194l138 -254h-98l-21 21l-85 144zM123 12l108 185l109 -185h71l-132 242l100 182h-71l-77 -119l-76 119h-71l99 -182l-131 -242h71z" />
    <glyph glyph-name="y" unicode="y" 
d="M146 -213h-102l-21 21l109 207l-132 236v197h94l21 -21v-203l79 -134l92 155v203h94l21 -21v-201zM118 -180l250 430v186h-70v-194l-108 -183l-108 183v194h-70v-182l134 -239l-103 -195h75z" />
    <glyph glyph-name="z" unicode="z" 
d="M401 -21h-380l-21 21v149l241 214h-220l-21 21v64h380l21 -21v-85l-286 -256v-22h265l21 -21v-64zM368 12v40h-286v60l286 256v68h-356v-40h285l-285 -252v-132h356z" />
    <glyph glyph-name="braceleft" unicode="{" horiz-adv-x="341" 
d="M113 58v192l-102 102l102 102v192l158 158l21 -21v-106l-64 -64v-192l-21 -159l21 -21l43 -235l21 -21v-106l-21 21zM125 63l134 -134v72l-64 64v192l-95 95l95 95v192l64 64v72l-134 -134v-192l-97 -97l97 -97v-192z" />
    <glyph glyph-name="bar" unicode="|" horiz-adv-x="149" 
d="M-15 -79v926h94l21 -21v-926l-73 -21l-21 21zM-3 -67h70v902h-70v-902z" />
    <glyph glyph-name="braceright" unicode="}" horiz-adv-x="341" 
d="M-15 6l64 64v192l90 90l-90 90v192l-64 64v106l158 -158l21 -21l81 -273l21 -21l-102 -102v-192l-158 -158l-21 21v106zM-3 1v-72l134 134v192l97 97l-97 97v192l-134 134v-72l64 -64v-192l95 -95l-95 -95v-192z" />
    <glyph glyph-name="asciitilde" unicode="~" horiz-adv-x="469" 
d="M-15 361l143 72l128 -64l143 71l21 -21v-97l-143 -72l-128 64l-143 -71l-21 21v97zM-3 354v-71l131 65l128 -64l131 66v71l-131 -65l-128 64z" />
    <glyph glyph-name="exclamdown" unicode="&#xa1;" horiz-adv-x="149" 
d="M-15 625v94h94l21 -21v-94l-73 -21l-21 21zM-15 -15v542h94l21 -21v-542l-73 -21l-21 21zM-3 -3h70v518h-70v-518zM-3 637h70v70h-70v-70z" />
    <glyph glyph-name="cent" unicode="&#xa2;" horiz-adv-x="405" 
d="M228 143h107l21 -21v-94h-128v-128l-73 -21l-21 21l-21 21v107h-107l-21 21v350h128v128h94l21 -21v-107h107l21 -21v-94h-128v-141zM100 143h13v141h-13v-141zM125 131h-58v186h58v-186zM125 -67h70v128h128v70h-128v186h128v70h-128v128h-70v-128h-128v-326h128v-128z
" />
    <glyph glyph-name="sterling" unicode="&#xa3;" horiz-adv-x="405" 
d="M-15 -15v94h64v333h-43l-21 21v94h64v192h222l21 -21v-94h-128v-77h43l21 -21v-94h-64v-333h171l21 -21v-94l-329 -21l-21 21zM-3 -3h326v70h-192v378h64v70h-64v122h128v70h-198v-192h-64v-70h64v-378h-64v-70z" />
    <glyph glyph-name="currency" unicode="&#xa4;" horiz-adv-x="405" 
d="M-15 177v350h350l21 -21v-350l-329 -21l-21 21zM100 271h141v141h-141v-141zM253 259h-186v186h186v-186zM-3 189h326v326h-326v-326z" />
    <glyph glyph-name="yen" unicode="&#xa5;" horiz-adv-x="533" 
d="M292 207h43l21 -21v-94h-64v-128l-73 -21l-21 21l-21 21v107h-43l-21 21v94h64v13h-43l-21 21v94h64v45l-169 339h97l21 -21l103 -205l114 226h97l21 -21l-169 -339v-24h43l21 -21v-94h-64v-13zM189 -3h70v128h64v70h-64v58h64v70h-64v60l162 324h-71l-126 -252l-126 252
h-71l162 -324v-60h-64v-70h64v-58h-64v-70h64v-128z" />
    <glyph glyph-name="brokenbar" unicode="&#xa6;" horiz-adv-x="149" 
d="M-15 369v350h94l21 -21v-350l-44 -13h23l21 -21v-350l-73 -21l-21 21l-21 21v350h34l-13 13zM-3 -3h70v326h-70v-326zM-3 381h70v326h-70v-326z" />
    <glyph glyph-name="section" unicode="&#xa7;" horiz-adv-x="405" 
d="M-15 -15v94h256v163l-22 -22h-76l-21 21l-116 43l-21 21v414h350l21 -21v-94h-256v-163l22 22h76l64 -64h73l21 -21v-414l-329 -21l-21 21zM164 335h13v13h-13v-13zM189 323h-58v58h58v-58zM-3 -3h326v390h-66l-64 64h-66l-60 -60v246h256v70h-326v-390h66l64 -64h66
l60 60v-246h-256v-70z" />
    <glyph glyph-name="dieresis" unicode="&#xa8;" horiz-adv-x="277" 
d="M113 689v94h94l21 -21v-94l-73 -21l-21 21zM-15 689v94h94l21 -21v-94l-73 -21l-21 21zM-3 701h70v70h-70v-70zM125 701h70v70h-70v-70z" />
    <glyph glyph-name="copyright" unicode="&#xa9;" horiz-adv-x="533" 
d="M-15 177v542h478l21 -21v-542l-457 -21l-21 21zM113 305v286h222l21 -21v-158h-94l-21 21v43h-13v-77h107l21 -21v-94l-121 -13h134v333h-269v-333h47l-13 13zM125 317h198v70h-128v122h58v-64h70v134h-198v-262zM381 259h-314v378h314v-378zM-3 189h454v518h-454v-518z
" />
    <glyph glyph-name="ordfeminine" unicode="&#xaa;" horiz-adv-x="341" 
d="M-15 369v222h192v13h-171l-21 21v94h286l21 -21v-350l-265 -21l-21 21zM100 463h77v13h-77v-13zM189 451h-122v58h122v-58zM-3 381h262v326h-262v-70h192v-58h-192v-198z" />
    <glyph glyph-name="guillemotleft" unicode="&#xab;" horiz-adv-x="405" 
d="M-21 320l228 228l21 -21v-86l107 107l23 -99l-126 -126l103 -125l21 -21v-106l-21 21l-126 126l-2 -20l21 -21v-106l-21 21zM-4 320l199 -199v72l-127 127l127 127v72zM124 320l199 -199v72l-127 127l127 127v72z" />
    <glyph glyph-name="logicalnot" unicode="&#xac;" horiz-adv-x="533" 
d="M369 348h-363l-21 21v94h478l21 -21v-222l-73 -21l-21 21l-21 21v107zM381 253h70v198h-454v-70h384v-128z" />
    <glyph glyph-name="sfthyphen" unicode="&#xad;" horiz-adv-x="277" 
d="M-15 305v94h222l21 -21v-94l-201 -21l-21 21zM-3 317h198v70h-198v-70z" />
    <glyph glyph-name="registered" unicode="&#xae;" horiz-adv-x="533" 
d="M-15 177v542h478l21 -21v-542l-457 -21l-21 21zM113 305v286h222l21 -21v-149l-21 -31l21 -21v-85h-94l-21 21v43h-13v-64l-44 -13h185v333h-269v-333h47l-13 13zM228 463h13v13h-13v-13zM253 451h-58v58h58v-58zM125 317h70v64h58v-64h70v68l-31 31l31 31v132h-198v-262
zM381 259h-314v378h314v-378zM-3 189h454v518h-454v-518z" />
    <glyph glyph-name="macron" unicode="&#xaf;" horiz-adv-x="405" 
d="M-15 689v94h350l21 -21v-94l-329 -21l-21 21zM-3 701h326v70h-326v-70z" />
    <glyph glyph-name="degree" unicode="&#xb0;" horiz-adv-x="277" 
d="M-15 497v222h222l21 -21v-222l-201 -21l-21 21zM100 591h13v13h-13v-13zM125 579h-58v58h58v-58zM-3 509h198v198h-198v-198z" />
    <glyph glyph-name="plusminus" unicode="&#xb1;" horiz-adv-x="533" 
d="M-15 177v94h226l-13 13l-21 21v107h-107l-21 21v94h128v128h94l21 -21v-107h107l21 -21v-94h-128v-128l-44 -13h215l21 -21v-94l-457 -21l-21 21zM-3 189h454v70h-454v-70zM189 317h70v128h128v70h-128v128h-70v-128h-128v-70h128v-128z" />
    <glyph glyph-name="twosuperior" unicode="&#xb2;" horiz-adv-x="277" 
d="M-15 369v222h128v13h-107l-21 21v94h222l21 -21v-222h-128v-13h107l21 -21v-94l-201 -21l-21 21zM-3 381h198v70h-128v58h128v198h-198v-70h128v-58h-128v-198z" />
    <glyph glyph-name="threesuperior" unicode="&#xb3;" horiz-adv-x="277" 
d="M-15 369v94h128v13h-43l-21 21v94h64v13h-107l-21 21v94h222l21 -21v-350l-201 -21l-21 21zM-3 381h198v326h-198v-70h128v-58h-64v-70h64v-58h-128v-70z" />
    <glyph glyph-name="acute" unicode="&#xb4;" horiz-adv-x="277" 
d="M-36 561l158 158h106l21 -21l-158 -158l-85 -21l-21 21zM-7 573h72l134 134h-72z" />
    <glyph glyph-name="mu" unicode="&#xb5;" horiz-adv-x="405" 
d="M-15 -207v606h94l21 -21v-299h141v320h94l21 -21v-478h-94l-21 21v43h-141v-192l-73 -21l-21 21zM-3 -195h70v192h186v-64h70v454h-70v-320h-186v320h-70v-582z" />
    <glyph glyph-name="paragraph" unicode="&#xb6;" horiz-adv-x="405" 
d="M241 604h-13v-640l-73 -21l-21 21l-21 21v299h-107l-21 21v414h350l21 -21v-734h-94l-21 21v619zM125 -3h70v640h58v-640h70v710h-326v-390h128v-320z" />
    <glyph glyph-name="periodcentered" unicode="&#xb7;" horiz-adv-x="149" 
d="M-15 305v94h94l21 -21v-94l-73 -21l-21 21zM-3 317h70v70h-70v-70z" />
    <glyph glyph-name="cedilla" unicode="&#xb8;" horiz-adv-x="277" 
d="M-15 -15v94h128v64h94l21 -21v-158l-201 -21l-21 21zM-3 -3h198v134h-70v-64h-128v-70z" />
    <glyph glyph-name="onesuperior" unicode="&#xb9;" horiz-adv-x="213" 
d="M49 604h-43l-21 21v94h158l21 -21v-350l-73 -21l-21 21l-21 21v235zM61 381h70v326h-134v-70h64v-256z" />
    <glyph glyph-name="ordmasculine" unicode="&#xba;" horiz-adv-x="277" 
d="M-15 369v350h222l21 -21v-350l-201 -21l-21 21zM100 463h13v141h-13v-141zM125 451h-58v186h58v-186zM-3 381h198v326h-198v-326z" />
    <glyph glyph-name="guillemotright" unicode="&#xbb;" horiz-adv-x="405" 
d="M-15 198l122 122l-122 122v106l228 -228l11 -11l11 11l-122 122v106l228 -228l21 -21l-228 -228l-21 21v86l-107 -107l-21 21v106zM-3 193v-72l199 199l-199 199v-72l127 -127zM125 193v-72l199 199l-199 199v-72l127 -127z" />
    <glyph glyph-name="onequarter" unicode="&#xbc;" horiz-adv-x="277" 
d="M-15 305v94h98l-13 13l-21 21v235h-43l-21 21v94h158l21 -21v-350l-44 -13h87l21 -21v-94l-146 -16l18 -18v-107h13v64h94l21 -21v-286l-73 -21l-21 21l-21 21v107h-107l-21 21v222h34l-13 13zM125 -67h70v262h-70v-64h-58v128h-70v-198h128v-128zM-3 317h198v70h-198
v-70zM61 445h70v326h-134v-70h64v-256z" />
    <glyph glyph-name="onehalf" unicode="&#xbd;" horiz-adv-x="277" 
d="M-15 305v94h98l-13 13l-21 21v235h-43l-21 21v94h158l21 -21v-350l-44 -13h87l21 -21v-94l-121 -13h100l21 -21v-222h-128v-13h107l21 -21v-94l-201 -21l-21 21l-21 21v222h128v13h-107l-21 21v94h34l-13 13zM-3 -67h198v70h-128v58h128v198h-198v-70h128v-58h-128v-198z
M-3 317h198v70h-198v-70zM61 445h70v326h-134v-70h64v-256z" />
    <glyph glyph-name="threequarters" unicode="&#xbe;" horiz-adv-x="277" 
d="M-15 433v94h128v13h-43l-21 21v94h64v13h-107l-21 21v94h222l21 -21v-350l-121 -13h100l21 -21v-94l-146 -16l18 -18v-107h13v64h94l21 -21v-286l-73 -21l-21 21l-21 21v107h-107l-21 21v222h34l-13 13l-21 21v94h34l-13 13zM125 -67h70v262h-70v-64h-58v128h-70v-198
h128v-128zM-3 317h198v70h-198v-70zM-3 445h198v326h-198v-70h128v-58h-64v-70h64v-58h-128v-70z" />
    <glyph glyph-name="questiondown" unicode="&#xbf;" horiz-adv-x="405" 
d="M113 625v94h94l21 -21v-94l-73 -21l-21 21zM-15 -15v414h128v128h94l21 -21v-222h-128v-205h141v128h94l21 -21v-222l-329 -21l-21 21zM-3 -3h326v198h-70v-128h-186v250h128v198h-70v-128h-128v-390zM125 637h70v70h-70v-70z" />
    <glyph glyph-name="Agrave" unicode="&#xc0;" 
d="M292 738l21 -21h-126l-166 158l-21 21h106zM136 -21h-94l-21 21v704h380l21 -21v-704h-94l-21 21v284h-171v-305zM307 619h-171l18 -220h153v220zM103 387v265h216v-265h-216zM103 12v305h216v-305h70v680h-356v-680h70zM259 750l-157 134h-72l141 -134h88z" />
    <glyph glyph-name="Aacute" unicode="&#xc1;" 
d="M256 717h-126l-21 21l186 158h106l21 -21zM115 -21h-94l-21 21v704h380l21 -21v-704h-94l-21 21v284h-171v-305zM286 619h-171l18 -220h153v220zM82 387v265h216v-265h-216zM82 12v305h216v-305h70v680h-356v-680h70zM230 750l141 134h-72l-157 -134h88z" />
    <glyph glyph-name="Acircumflex" unicode="&#xc2;" 
d="M180 717h-116l-21 21l147 132l147 -132l21 -21h-116l-21 21l-31 26l21 -21zM115 -21h-94l-21 21v704h380l21 -21v-704h-94l-21 21v284h-171v-305zM286 619h-171l18 -220h153v220zM82 387v265h216v-265h-216zM82 12v305h216v-305h70v680h-356v-680h70zM155 750l35 30
l35 -30h81l-116 104l-116 -104h81z" />
    <glyph glyph-name="Atilde" unicode="&#xc3;" 
d="M173 747l-88 -39l-21 21v65l88 40l76 -32l88 39l21 -21v-65l-88 -40zM115 -21h-94l-21 21v704h380l21 -21v-704h-94l-21 21v284h-171v-305zM286 619h-171l18 -220h153v220zM82 387v265h216v-265h-216zM82 12v305h216v-305h70v680h-356v-680h70zM152 781l76 -32l76 35v39
l-76 -34l-76 32l-76 -35v-39z" />
    <glyph glyph-name="Adieresis" unicode="&#xc4;" 
d="M337 717h-106l-21 21v94h106l21 -21v-94zM191 717h-106l-21 21v94h106l21 -21v-94zM115 -21h-94l-21 21v704h380l21 -21v-704h-94l-21 21v284h-171v-305zM286 619h-171l18 -220h153v220zM82 387v265h216v-265h-216zM82 12v305h216v-305h70v680h-356v-680h70zM158 750v70
h-82v-70h82zM304 750v70h-82v-70h82z" />
    <glyph glyph-name="Aring" unicode="&#xc5;" 
d="M115 -21h-94l-21 21v704h109l-45 43v76l81 73h90l81 -73l21 -21v-76q-11 -11 -23 -22h66l21 -21v-704h-94l-21 21v284h-171v-305zM239 783l-28 24l-27 -60l6 -5zM286 619h-171l18 -220h153v220zM82 387v265h216v-265h-216zM120 785l70 59l70 -59l-70 -59zM82 12v305h216
v-305h70v680h-127l63 60v66l-74 66h-80l-74 -66v-66l63 -60h-127v-680h70z" />
    <glyph glyph-name="AE" unicode="&#xc6;" 
d="M115 -21h-94l-21 21v704h380l21 -21v-64h-128v-220h107l21 -21v-94h-128v-220h107l21 -21v-64h-222l-21 21v284h-43v-305zM158 619h-43l18 -220h25v220zM82 387v265h88v-265h-88zM82 12v305h88v-305h198v40h-128v265h128v70h-128v265h128v40h-356v-680h70z" />
    <glyph glyph-name="Ccedilla" unicode="&#xc7;" 
d="M272 -149h-251l-21 21v94h129v13h-108l-21 21v704h380l21 -21v-64h-286v-555h265l21 -21v-64h-129v-128zM239 -116v128h129v40h-286v600h286v40h-356v-680h129v-58h-129v-70h227z" />
    <glyph glyph-name="Egrave" unicode="&#xc8;" 
d="M294 738l21 -21h-128l-166 158l-21 21h106zM422 -21h-380l-21 21v704h380l21 -21v-64h-286v-220h201l21 -21v-94h-222v-220h265l21 -21v-64zM389 12v40h-286v265h222v70h-222v265h286v40h-356v-680h356zM261 750l-159 134h-72l141 -134h90z" />
    <glyph glyph-name="Eacute" unicode="&#xc9;" 
d="M256 717h-128l-21 21l188 158h106l21 -21zM401 -21h-380l-21 21v704h380l21 -21v-64h-286v-220h201l21 -21v-94h-222v-220h265l21 -21v-64zM368 12v40h-286v265h222v70h-222v265h286v40h-356v-680h356zM230 750l141 134h-72l-159 -134h90z" />
    <glyph glyph-name="Ecircumflex" unicode="&#xca;" 
d="M178 717h-114l-21 21l147 132l147 -132l21 -21h-114l-33 26zM401 -21h-380l-21 21v704h380l21 -21v-64h-286v-220h201l21 -21v-94h-222v-220h265l21 -21v-64zM368 12v40h-286v265h222v70h-222v265h286v40h-356v-680h356zM153 750l37 29l37 -29h79l-116 104l-116 -104h79z
" />
    <glyph glyph-name="Edieresis" unicode="&#xcb;" 
d="M337 717h-104l-21 21v94h104l21 -21v-94zM189 717h-104l-21 21v94h104l21 -21v-94zM401 -21h-380l-21 21v704h380l21 -21v-64h-286v-220h201l21 -21v-94h-222v-220h265l21 -21v-64zM368 12v40h-286v265h222v70h-222v265h286v40h-356v-680h356zM156 750v70h-80v-70h80z
M304 750v70h-80v-70h80z" />
    <glyph glyph-name="Igrave" unicode="&#xcc;" horiz-adv-x="307" 
d="M264 738l21 -21h-106l-21 21l-158 158h106zM264 -21h-222l-21 21v64h64v640h94l21 -21v-619h43l21 -21v-64zM231 12v40h-64v640h-70v-640h-64v-40h198zM235 750l-134 134h-72l134 -134h72z" />
    <glyph glyph-name="Iacute" unicode="&#xcd;" horiz-adv-x="307" 
d="M127 717h-106l-21 21l158 158h106l21 -21zM264 -21h-222l-21 21v64h64v640h94l21 -21v-619h43l21 -21v-64zM231 12v40h-64v640h-70v-640h-64v-40h198zM101 750l134 134h-72l-134 -134h72z" />
    <glyph glyph-name="Icircumflex" unicode="&#xce;" horiz-adv-x="307" 
d="M127 717h-106l-21 21l132 132l132 -132l21 -21h-106l-21 21zM264 -21h-222l-21 21v64h64v640h94l21 -21v-619h43l21 -21v-64zM231 12v40h-64v640h-70v-640h-64v-40h198zM101 750l31 31l31 -31h72l-103 103l-103 -103h72z" />
    <glyph glyph-name="Idieresis" unicode="&#xcf;" horiz-adv-x="307" 
d="M243 717h-94l-21 21v94h94l21 -21v-94zM115 717h-94l-21 21v94h94l21 -21v-94zM243 -21h-222l-21 21v64h64v640h94l21 -21v-619h43l21 -21v-64zM210 12v40h-64v640h-70v-640h-64v-40h198zM82 750v70h-70v-70h70zM210 750v70h-70v-70h70z" />
    <glyph glyph-name="Eth" unicode="&#xd0;" horiz-adv-x="593" 
d="M456 -21h-277l-21 21v284h-137l-21 21v94h158v305h277l73 -70l21 -21v-564zM273 399h43l21 -21v-94h-64l18 -220h123v555h-141v-220zM240 52v265h64v70h-64v265h186v-600h-186zM430 12l66 63v554l-66 63h-260v-305h-158v-70h158v-305h260z" />
    <glyph glyph-name="Ntilde" unicode="&#xd1;" 
d="M174 747l-89 -39l-21 21v65l89 40l75 -32l88 39l21 -21v-65l-88 -40zM116 -21h-95l-21 21v704h88l21 -21l177 -299v320h94l21 -21v-704h-94l-21 21v203l-170 288v-512zM83 12v559l215 -365v-194h70v680h-70v-367l-217 367h-69v-680h71zM153 781l75 -32l76 35v39l-76 -34
l-75 32l-77 -35v-39z" />
    <glyph glyph-name="Ograve" unicode="&#xd2;" 
d="M294 738l21 -21h-128l-166 158l-21 21h106zM422 -21h-380l-21 21v704h380l21 -21v-704zM307 619h-171l20 -555h151v555zM103 52v600h216v-600h-216zM389 12v680h-356v-680h356zM261 750l-159 134h-72l141 -134h90z" />
    <glyph glyph-name="Oacute" unicode="&#xd3;" 
d="M256 717h-128l-21 21l188 158h106l21 -21zM401 -21h-380l-21 21v704h380l21 -21v-704zM286 619h-171l20 -555h151v555zM82 52v600h216v-600h-216zM368 12v680h-356v-680h356zM230 750l141 134h-72l-159 -134h90z" />
    <glyph glyph-name="Ocircumflex" unicode="&#xd4;" 
d="M178 717h-114l-21 21l147 132l147 -132l21 -21h-114l-33 26zM401 -21h-380l-21 21v704h380l21 -21v-704zM286 619h-171l20 -555h151v555zM82 52v600h216v-600h-216zM368 12v680h-356v-680h356zM153 750l37 29l37 -29h79l-116 104l-116 -104h79z" />
    <glyph glyph-name="Otilde" unicode="&#xd5;" 
d="M170 747l-85 -39l-21 21v65l85 40l82 -32l85 39l21 -21v-65l-85 -40zM401 -21h-380l-21 21v704h380l21 -21v-704zM286 619h-171l20 -555h151v555zM82 52v600h216v-600h-216zM368 12v680h-356v-680h356zM149 781l82 -32l73 35v38l-73 -33l-82 32l-73 -35v-38z" />
    <glyph glyph-name="Odieresis" unicode="&#xd6;" 
d="M337 717h-104l-21 21v94h104l21 -21v-94zM189 717h-104l-21 21v94h104l21 -21v-94zM401 -21h-380l-21 21v704h380l21 -21v-704zM286 619h-171l20 -555h151v555zM82 52v600h216v-600h-216zM368 12v680h-356v-680h356zM156 750v70h-80v-70h80zM304 750v70h-80v-70h80z" />
    <glyph glyph-name="multiply" unicode="&#xd7;" horiz-adv-x="593" 
d="M357 300l193 -172l21 -21h-106l-169 139l-169 -139l-85 -21l-21 21l-21 21l215 191l-194 172l-21 21h106l169 -139l169 139h106l21 -21zM32 140h70l173 143l173 -143h70l-202 180l202 180h-70l-173 -143l-173 143h-70l202 -180z" />
    <glyph glyph-name="Oslash" unicode="&#xd8;" 
d="M401 -21h-380l-21 21v704h380l21 -21v-704zM286 619h-171v-230l171 144v86zM286 358l-171 -144l17 -150h154v294zM82 52v189l216 182v-371h-216zM82 652h216v-125l-216 -182v307zM368 12v680h-356v-680h356z" />
    <glyph glyph-name="Ugrave" unicode="&#xd9;" 
d="M292 738l21 -21h-126l-166 158l-21 21h106zM422 -21h-380l-21 21v704h94l21 -21v-619h171v640h94l21 -21v-704zM389 12v680h-70v-628v0v-1v-11h-216v640h-70v-680h356zM259 750l-157 134h-72l141 -134h88z" />
    <glyph glyph-name="Uacute" unicode="&#xda;" 
d="M256 717h-126l-21 21l186 158h106l21 -21zM401 -21h-380l-21 21v704h94l21 -21v-619h171v640h94l21 -21v-704zM368 12v680h-70v-640h-216v640h-70v-680h356zM230 750l141 134h-72l-157 -134h88z" />
    <glyph glyph-name="Ucircumflex" unicode="&#xdb;" 
d="M180 717h-116l-21 21l147 132l147 -132l21 -21h-116l-21 21l-31 26l21 -21zM401 -21h-380l-21 21v704h94l21 -21v-619h171v640h94l21 -21v-704zM368 12v680h-70v-640h-216v640h-70v-680h356zM155 750l35 30l35 -30h81l-116 104l-116 -104h81z" />
    <glyph glyph-name="Udieresis" unicode="&#xdc;" 
d="M337 717h-106l-21 21v94h106l21 -21v-94zM191 717h-106l-21 21v94h106l21 -21v-94zM401 -21h-380l-21 21v704h94l21 -21v-619h171v640h94l21 -21v-704zM368 12v680h-70v-640h-216v640h-70v-680h356zM158 750v70h-82v-70h82zM304 750v70h-82v-70h82z" />
    <glyph glyph-name="Yacute" unicode="&#xdd;" horiz-adv-x="593" 
d="M327 717h-120l-21 21l178 158h110l21 -21zM337 -21h-106l-21 21v379l-178 325h98l21 -21l117 -208l129 229h98l21 -21l-179 -325v-379zM304 12v370l171 310h-71l-141 -249l-140 249h-71l170 -310v-370h82zM301 750l143 134h-75l-151 -134h83z" />
    <glyph glyph-name="Thorn" unicode="&#xde;" 
d="M115 -21h-94l-21 21v704h94l21 -21v-156h265l21 -21v-350h-286v-177zM286 412h-171l17 -141h154v141zM82 259v186h216v-186h-216zM82 12v177h286v326h-286v177h-70v-680h70z" />
    <glyph glyph-name="germandbls" unicode="&#xdf;" 
d="M115 -21h-94l-21 21v704h380l21 -21v-222h-128v-71h107l21 -21v-390h-222l-21 21v64h128v205h-107l-21 21v286h128v13h-171v-610zM82 12v610h216v-58h-128v-262h128v-250h-128v-40h198v366h-128v116h128v198h-356v-680h70z" />
    <glyph glyph-name="agrave" unicode="&#xe0;" 
d="M294 482l21 -21h-128l-166 158l-21 21h106zM422 -21h-380l-21 21v271h286v92h-265l-21 21v64h380l21 -21v-448zM307 156h-171l15 -92h156v92zM103 52v137h216v-137h-216zM389 12v424h-356v-40h286v-137h-286v-247h356zM261 494l-159 134h-72l141 -134h90z" />
    <glyph glyph-name="aacute" unicode="&#xe1;" 
d="M256 461h-128l-21 21l188 158h106l21 -21zM401 -21h-380l-21 21v271h286v92h-265l-21 21v64h380l21 -21v-448zM286 156h-171l15 -92h156v92zM82 52v137h216v-137h-216zM368 12v424h-356v-40h286v-137h-286v-247h356zM230 494l141 134h-72l-159 -134h90z" />
    <glyph glyph-name="acircumflex" unicode="&#xe2;" 
d="M178 461h-114l-21 21l147 132l147 -132l21 -21h-114l-33 26zM401 -21h-380l-21 21v271h286v92h-265l-21 21v64h380l21 -21v-448zM286 156h-171l15 -92h156v92zM82 52v137h216v-137h-216zM368 12v424h-356v-40h286v-137h-286v-247h356zM153 494l37 29l37 -29h79l-116 104
l-116 -104h79z" />
    <glyph glyph-name="atilde" unicode="&#xe3;" 
d="M170 491l-85 -39l-21 21v65l85 40l82 -32l85 39l21 -21v-65l-85 -40zM401 -21h-380l-21 21v271h286v92h-265l-21 21v64h380l21 -21v-448zM286 156h-171l15 -92h156v92zM82 52v137h216v-137h-216zM368 12v424h-356v-40h286v-137h-286v-247h356zM149 525l82 -32l73 35v38
l-73 -33l-82 32l-73 -35v-38z" />
    <glyph glyph-name="adieresis" unicode="&#xe4;" 
d="M337 461h-104l-21 21v94h104l21 -21v-94zM189 461h-104l-21 21v94h104l21 -21v-94zM401 -21h-380l-21 21v271h286v92h-265l-21 21v64h380l21 -21v-448zM286 156h-171l15 -92h156v92zM82 52v137h216v-137h-216zM368 12v424h-356v-40h286v-137h-286v-247h356zM156 494v70
h-80v-70h80zM304 494v70h-80v-70h80z" />
    <glyph glyph-name="aring" unicode="&#xe5;" 
d="M260 461h-98l-21 21l-77 73v76l77 73h98l77 -73l21 -21v-76zM401 -21h-380l-21 21v271h286v92h-265l-21 21v64h380l21 -21v-448zM242 591q-15 12 -31 24l-30 -58l9 -7zM286 156h-171l15 -92h156v92zM82 52v137h216v-137h-216zM368 12v424h-356v-40h286v-137h-286v-247
h356zM116 593l74 58l74 -58l-74 -58zM234 494l70 66v66l-70 66h-88l-70 -66v-66l70 -66h88z" />
    <glyph glyph-name="ae" unicode="&#xe6;" 
d="M401 -21h-380l-21 21v271h129v92h-108l-21 21v64h380l21 -21v-271h-129v-92h108l21 -21v-64zM286 363h-14l14 -87v87zM129 156h-14l14 -87v87zM82 52v137h59v-137h-59zM239 259v137h59v-137h-59zM368 12v40h-129v137h129v247h-356v-40h129v-137h-129v-247h356z" />
    <glyph glyph-name="ccedilla" unicode="&#xe7;" 
d="M272 -149h-251l-21 21v94h129v13h-108l-21 21v448h380l21 -21v-64h-286v-299h265l21 -21v-64h-129v-128zM239 -116v128h129v40h-286v344h286v40h-356v-424h129v-58h-129v-70h227z" />
    <glyph glyph-name="egrave" unicode="&#xe8;" 
d="M294 482l21 -21h-128l-166 158l-21 21h106zM422 -21h-380l-21 21v448h380l21 -21v-271h-286v-92h265l21 -21v-64zM307 363h-171l15 -92h156v92zM103 259v137h216v-137h-216zM389 12v40h-286v137h286v247h-356v-424h356zM261 494l-159 134h-72l141 -134h90z" />
    <glyph glyph-name="eacute" unicode="&#xe9;" 
d="M256 461h-128l-21 21l188 158h106l21 -21zM401 -21h-380l-21 21v448h380l21 -21v-271h-286v-92h265l21 -21v-64zM286 363h-171l15 -92h156v92zM82 259v137h216v-137h-216zM368 12v40h-286v137h286v247h-356v-424h356zM230 494l141 134h-72l-159 -134h90z" />
    <glyph glyph-name="ecircumflex" unicode="&#xea;" 
d="M178 461h-114l-21 21l147 132l147 -132l21 -21h-114l-33 26zM401 -21h-380l-21 21v448h380l21 -21v-271h-286v-92h265l21 -21v-64zM286 363h-171l15 -92h156v92zM82 259v137h216v-137h-216zM368 12v40h-286v137h286v247h-356v-424h356zM153 494l37 29l37 -29h79l-116 104
l-116 -104h79z" />
    <glyph glyph-name="edieresis" unicode="&#xeb;" 
d="M337 461h-104l-21 21v94h104l21 -21v-94zM189 461h-104l-21 21v94h104l21 -21v-94zM401 -21h-380l-21 21v448h380l21 -21v-271h-286v-92h265l21 -21v-64zM286 363h-171l15 -92h156v92zM82 259v137h216v-137h-216zM368 12v40h-286v137h286v247h-356v-424h356zM156 494v70
h-80v-70h80zM304 494v70h-80v-70h80z" />
    <glyph glyph-name="igrave" unicode="&#xec;" horiz-adv-x="243" 
d="M200 482l21 -21h-106l-21 21l-158 158h106zM200 -21h-94l-21 21v448h94l21 -21v-448zM167 12v424h-70v-424h70zM171 494l-134 134h-72l134 -134h72z" />
    <glyph glyph-name="iacute" unicode="&#xed;" horiz-adv-x="307" 
d="M127 461h-106l-21 21l158 158h106l21 -21zM136 -21h-94l-21 21v448h94l21 -21v-448zM103 12v424h-70v-424h70zM101 494l134 134h-72l-134 -134h72z" />
    <glyph glyph-name="icircumflex" unicode="&#xee;" horiz-adv-x="307" 
d="M127 461h-106l-21 21l132 132l132 -132l21 -21h-106l-21 21zM200 -21h-94l-21 21v448h94l21 -21v-448zM167 12v424h-70v-424h70zM101 494l31 31l31 -31h72l-103 103l-103 -103h72z" />
    <glyph glyph-name="idieresis" unicode="&#xef;" horiz-adv-x="307" 
d="M243 461h-94l-21 21v94h94l21 -21v-94zM115 461h-94l-21 21v94h94l21 -21v-94zM179 -21h-94l-21 21v448h94l21 -21v-448zM146 12v424h-70v-424h70zM82 494v70h-70v-70h70zM210 494v70h-70v-70h70z" />
    <glyph glyph-name="eth" unicode="&#xf0;" 
d="M401 -21h-380l-21 21v448h286v77h-136l-21 21v94h157v64h94l21 -21v-704zM286 363h-171l19 -299h152v299zM82 52v344h216v-344h-216zM368 12v680h-70v-64h-157v-70h157v-122h-286v-424h356z" />
    <glyph glyph-name="ntilde" unicode="&#xf1;" 
d="M173 491l-88 -39l-21 21v65l88 40l76 -32l88 39l21 -21v-65l-88 -40zM115 -21h-94l-21 21v448h380l21 -21v-448h-94l-21 21v363h-171v-384zM82 12v384h216v-384h70v424h-356v-424h70zM152 525l76 -32l76 35v39l-76 -34l-76 32l-76 -35v-39z" />
    <glyph glyph-name="ograve" unicode="&#xf2;" 
d="M294 482l21 -21h-128l-166 158l-21 21h106zM422 -21h-380l-21 21v448h380l21 -21v-448zM307 363h-171l19 -299h152v299zM103 52v344h216v-344h-216zM389 12v424h-356v-424h356zM261 494l-159 134h-72l141 -134h90z" />
    <glyph glyph-name="oacute" unicode="&#xf3;" 
d="M256 461h-128l-21 21l188 158h106l21 -21zM401 -21h-380l-21 21v448h380l21 -21v-448zM286 363h-171l19 -299h152v299zM82 52v344h216v-344h-216zM368 12v424h-356v-424h356zM230 494l141 134h-72l-159 -134h90z" />
    <glyph glyph-name="ocircumflex" unicode="&#xf4;" 
d="M178 461h-114l-21 21l147 132l147 -132l21 -21h-114l-33 26zM401 -21h-380l-21 21v448h380l21 -21v-448zM286 363h-171l19 -299h152v299zM82 52v344h216v-344h-216zM368 12v424h-356v-424h356zM153 494l37 29l37 -29h79l-116 104l-116 -104h79z" />
    <glyph glyph-name="otilde" unicode="&#xf5;" 
d="M170 491l-85 -39l-21 21v65l85 40l82 -32l85 39l21 -21v-65l-85 -40zM401 -21h-380l-21 21v448h380l21 -21v-448zM286 363h-171l19 -299h152v299zM82 52v344h216v-344h-216zM368 12v424h-356v-424h356zM149 525l82 -32l73 35v38l-73 -33l-82 32l-73 -35v-38z" />
    <glyph glyph-name="odieresis" unicode="&#xf6;" 
d="M337 461h-104l-21 21v94h104l21 -21v-94zM189 461h-104l-21 21v94h104l21 -21v-94zM401 -21h-380l-21 21v448h380l21 -21v-448zM286 363h-171l19 -299h152v299zM82 52v344h216v-344h-216zM368 12v424h-356v-424h356zM156 494v70h-80v-70h80zM304 494v70h-80v-70h80z" />
    <glyph glyph-name="divide" unicode="&#xf7;" horiz-adv-x="593" 
d="M328 427h-106l-21 21v64h106l21 -21v-64zM529 284h-508l-21 21v94h508l21 -21v-94zM328 171h-106l-21 21v64h106l21 -21v-64zM295 204v40h-82v-40h82zM496 317v70h-484v-70h484zM295 460v40h-82v-40h82z" />
    <glyph glyph-name="oslash" unicode="&#xf8;" 
d="M401 -21h-380l-21 21v448h380l21 -21v-448zM239 363h-124v-103zM286 230l-171 -144l7 -22h164v166zM82 52v61l216 182v-243h-216zM82 396h216l-216 -178v178zM368 12v424h-356v-424h356z" />
    <glyph glyph-name="ugrave" unicode="&#xf9;" 
d="M292 482l21 -21h-126l-166 158l-21 21h106zM422 -21h-380l-21 21v448h94l21 -21v-363h171v384h94l21 -21v-448zM389 12v424h-70v-384h-216v384h-70v-424h356zM259 494l-157 134h-72l141 -134h88z" />
    <glyph glyph-name="uacute" unicode="&#xfa;" 
d="M256 461h-126l-21 21l186 158h106l21 -21zM401 -21h-380l-21 21v448h94l21 -21v-363h171v384h94l21 -21v-448zM368 12v424h-70v-384h-216v384h-70v-424h356zM230 494l141 134h-72l-157 -134h88z" />
    <glyph glyph-name="ucircumflex" unicode="&#xfb;" 
d="M180 461h-116l-21 21l147 132l147 -132l21 -21h-116l-21 21l-31 26l21 -21zM401 -21h-380l-21 21v448h94l21 -21v-363h171v384h94l21 -21v-448zM368 12v424h-70v-384h-216v384h-70v-424h356zM155 494l35 30l35 -30h81l-116 104l-116 -104h81z" />
    <glyph glyph-name="udieresis" unicode="&#xfc;" 
d="M337 461h-106l-21 21v94h106l21 -21v-94zM191 461h-106l-21 21v94h106l21 -21v-94zM401 -21h-380l-21 21v448h94l21 -21v-363h171v384h94l21 -21v-448zM368 12v424h-70v-384h-216v384h-70v-424h356zM158 494v70h-82v-70h82zM304 494v70h-82v-70h82z" />
    <glyph glyph-name="yacute" unicode="&#xfd;" 
d="M256 461h-126l-21 21l186 158h106l21 -21zM146 -213h-102l-21 21l109 207l-132 236v197h94l21 -21v-203l79 -134l92 155v203h94l21 -21v-201zM118 -180l250 430v186h-70v-194l-108 -183l-108 183v194h-70v-182l134 -239l-103 -195h75zM230 494l141 134h-72l-157 -134h88z
" />
    <glyph glyph-name="thorn" unicode="&#xfe;" 
d="M115 -85h-94l-21 21v576h94l21 -21v-101h265l21 -21v-332h-286v-122zM286 284h-171l17 -141h154v141zM82 131v186h216v-186h-216zM82 -52v122h286v308h-286v122h-70v-552h70z" />
    <glyph glyph-name="ydieresis" unicode="&#xff;" 
d="M337 461h-106l-21 21v94h106l21 -21v-94zM191 461h-106l-21 21v94h106l21 -21v-94zM146 -213h-102l-21 21l109 207l-132 236v197h94l21 -21v-203l79 -134l92 155v203h94l21 -21v-201zM118 -180l250 430v186h-70v-194l-108 -183l-108 183v194h-70v-182l134 -239l-103 -195
h75zM158 494v70h-82v-70h82zM304 494v70h-82v-70h82z" />
    <glyph glyph-name="Ydieresis" unicode="&#x178;" horiz-adv-x="593" 
d="M409 717h-106l-21 21v94h106l21 -21v-94zM265 717h-106l-21 21v94h106l21 -21v-94zM337 -21h-106l-21 21v379l-178 325h98l21 -21l117 -208l129 229h98l21 -21l-179 -325v-379zM304 12v370l171 310h-71l-141 -249l-140 249h-71l170 -310v-370h82zM232 750v70h-82v-70h82z
M376 750v70h-82v-70h82z" />
    <glyph glyph-name="numeralsigngreek" unicode="&#x374;" horiz-adv-x="179" 
d="M115 461h-94l-21 21v222h94l21 -21v-222zM82 494v198h-70v-198h70z" />
    <glyph glyph-name="numeralsignlowergreek" unicode="&#x375;" horiz-adv-x="179" 
d="M115 -115h-94l-21 21v222h94l21 -21v-222zM82 -82v198h-70v-198h70z" />
    <glyph glyph-name="ypogegrammeni" unicode="&#x37a;" horiz-adv-x="243" 
d="M179 -51h-158l-21 21v158h94l21 -21v-43h43l21 -21v-94zM146 -18v70h-64v64h-70v-134h134z" />
    <glyph glyph-name="questiongreek" unicode="&#x37e;" horiz-adv-x="179" 
d="M124 491h-94l-21 21v64h94l21 -21v-64zM87 43h-98l-21 21l41 83v75h94l21 -21v-83zM59 76l32 66v68h-70v-66l-34 -68h72zM91 524v40h-70v-40h70z" />
    <glyph glyph-name="tonos" unicode="&#x384;" horiz-adv-x="179" 
d="M115 525h-94l-21 21v158h94l21 -21v-158zM82 558v134h-70v-134h70z" />
    <glyph glyph-name="dialytikatonos" unicode="&#x385;" 
d="M272 525h-122l-21 21v158h122l21 -21v-158zM401 525h-94l-21 21v94h94l21 -21v-94zM115 525h-94l-21 21v94h94l21 -21v-94zM82 558v70h-70v-70h70zM368 558v70h-70v-70h70zM239 558v134h-98v-134h98z" />
    <glyph glyph-name="Alphatonos" unicode="&#x386;" horiz-adv-x="593" 
d="M243 -21h-94l-21 21v704h380l21 -21v-704h-94l-21 21v284h-171v-305zM115 525h-94l-21 21v158h94l21 -21v-158zM414 619h-171l18 -220h153v220zM210 387v265h216v-265h-216zM82 558v134h-70v-134h70zM210 12v305h216v-305h70v680h-356v-680h70z" />
    <glyph glyph-name="Epsilontonos" unicode="&#x388;" horiz-adv-x="593" 
d="M529 -21h-376l-21 21v704h376l21 -21v-64h-271v-220h186l21 -21v-94h-207v-220h250l21 -21v-64zM115 525h-94l-21 21v158h94l21 -21v-158zM82 558v134h-70v-134h70zM496 12v40h-271v265h207v70h-207v265h271v40h-352v-680h352z" />
    <glyph glyph-name="Etatonos" unicode="&#x389;" horiz-adv-x="623" 
d="M303 -21h-94l-21 21l-30 704h94l21 -21v-284h171v305h94l21 -21v-704h-94l-21 21v284h-141v-305zM115 525h-94l-21 21v158h94l21 -21v-158zM82 558v134h-70v-134h70zM270 12v305h186v-305h70v680h-70v-305h-216v305h-69l29 -680h70z" />
    <glyph glyph-name="Iotatonos" unicode="&#x38a;" horiz-adv-x="337" 
d="M273 -21h-94l-21 21v704h94l21 -21v-704zM115 525h-94l-21 21v158h94l21 -21v-158zM82 558v134h-70v-134h70zM240 12v680h-70v-680h70z" />
    <glyph glyph-name="Omicrontonos" unicode="&#x38c;" horiz-adv-x="593" 
d="M529 -21h-376l-21 21v704h376l21 -21v-704zM115 525h-94l-21 21v158h94l21 -21v-158zM414 619h-156l20 -555h136v555zM225 52v600h201v-600h-201zM82 558v134h-70v-134h70zM496 12v680h-352v-680h352z" />
    <glyph glyph-name="Upsilontonos" unicode="&#x38e;" horiz-adv-x="657" 
d="M401 -21h-94l-21 21l-17 379l-154 272v-126h-94l-21 21v158h87h7h96l21 -21l115 -207l126 228h97l21 -21l-176 -325zM92 717l-10 18v-18h10zM82 692h-70v-134h70v134zM106 692l175 -310l16 -370h71l-7 370l168 310h-70l-138 -250l-138 250h-77z" />
    <glyph glyph-name="Omegatonos" unicode="&#x38f;" horiz-adv-x="593" 
d="M307 -21h-158l-21 21v64h64v77h-43l-21 21v542h380l21 -21v-542h-64v-77h43l21 -21v-64h-158l-21 21v286h64v333h-171v-333h43l21 -21v-286zM115 525h-94l-21 21v158h94l21 -21v-158zM82 558v134h-70v-134h70zM274 12v262h-64v378h216v-378h-64v-262h134v40h-64v122h64
v518h-356v-518h64v-122h-64v-40h134z" />
    <glyph glyph-name="iotadieresistonos" unicode="&#x390;" horiz-adv-x="495" 
d="M273 461h-94l-21 21v158h94l21 -21v-158zM431 461h-94l-21 21v94h94l21 -21v-94zM115 461h-94l-21 21v94h94l21 -21v-94zM273 -21h-94l-21 21v448h94l21 -21v-448zM240 12v424h-70v-424h70zM82 494v70h-70v-70h70zM398 494v70h-70v-70h70zM240 494v134h-70v-134h70z" />
    <glyph glyph-name="Alpha" unicode="&#x391;" 
d="M115 -21h-94l-21 21v704h380l21 -21v-704h-94l-21 21v284h-171v-305zM286 619h-171l18 -220h153v220zM82 387v265h216v-265h-216zM82 12v305h216v-305h70v680h-356v-680h70z" />
    <glyph glyph-name="Beta" unicode="&#x392;" horiz-adv-x="435" 
d="M298 -21h-277l-21 21v704h277l73 -70l21 -21v-257l-25 -25l4 -4l21 -21v-257zM256 619h-141l18 -220h123v220zM256 284h-141l18 -220h123v220zM82 52v265h186v-265h-186zM82 387v265h186v-265h-186zM272 12l66 63v247l-31 30l31 30v247l-66 63h-260v-680h260z" />
    <glyph glyph-name="Gamma" unicode="&#x393;" 
d="M115 -21h-94l-21 21v704h380l21 -21v-64h-286v-640zM82 12v640h286v40h-356v-680h70z" />
    <glyph glyph-name="Deltagreek" unicode="&#x394;" horiz-adv-x="559" 
d="M495 -21h-474l-21 21v386l196 318h82l21 -21l196 -318v-386zM254 564l-139 -220l19 -280h246v301zM82 52v316l155 245l155 -245v-316h-310zM462 12v371l-191 309h-68l-191 -309v-371h450z" />
    <glyph glyph-name="Epsilon" unicode="&#x395;" 
d="M401 -21h-380l-21 21v704h380l21 -21v-64h-286v-220h201l21 -21v-94h-222v-220h265l21 -21v-64zM368 12v40h-286v265h222v70h-222v265h286v40h-356v-680h356z" />
    <glyph glyph-name="Zeta" unicode="&#x396;" 
d="M401 -21h-380l-21 21v147l265 472h-244l-21 21v64h380l21 -21v-83l-286 -512v-24h265l21 -21v-64zM368 12v40h-286v60l286 512v68h-356v-40h286l-286 -508v-132h356z" />
    <glyph glyph-name="Eta" unicode="&#x397;" 
d="M115 -21h-94l-21 21v704h94l21 -21v-284h171v305h94l21 -21v-704h-94l-21 21v284h-171v-305zM82 12v305h216v-305h70v680h-70v-305h-216v305h-70v-680h70z" />
    <glyph glyph-name="Theta" unicode="&#x398;" 
d="M401 -21h-380l-21 21v704h380l21 -21v-704zM272 284h-122l-21 21v94h122l21 -21v-94zM286 619h-171l20 -555h151v555zM239 317v70h-98v-70h98zM82 52v600h216v-600h-216zM368 12v680h-356v-680h356z" />
    <glyph glyph-name="Iota" unicode="&#x399;" horiz-adv-x="179" 
d="M115 -21h-94l-21 21v704h94l21 -21v-704zM82 12v680h-70v-680h70z" />
    <glyph glyph-name="Kappa" unicode="&#x39a;" 
d="M115 -21h-94l-21 21v704h94l21 -21v-215l145 236h97l21 -21l-183 -321l215 -383h-97l-21 21l-177 299v-320zM82 12v367l217 -367h69l-208 371l176 309h-69l-185 -302v302h-70v-680h70z" />
    <glyph glyph-name="Lambda" unicode="&#x39b;" horiz-adv-x="529" 
d="M115 -21h-94l-21 21v386l175 318h94l21 -21l175 -318v-386h-94l-21 21v395l-111 197l-124 -218v-395zM82 12v386l140 247l140 -247v-386h70v371l-170 309h-80l-170 -309v-371h70z" />
    <glyph glyph-name="Mu" unicode="&#x39c;" 
d="M115 -21h-94l-21 21v704h380l21 -21v-704h-94l-21 21v619h-19v-320h-112l-21 21v299h-19v-640zM82 12v640h64v-320h88v320h64v-640h70v680h-356v-680h70z" />
    <glyph glyph-name="Nu" unicode="&#x39d;" 
d="M116 -21h-95l-21 21v704h88l21 -21l177 -299v320h94l21 -21v-704h-94l-21 21v203l-170 288v-512zM83 12v559l215 -365v-194h70v680h-70v-367l-217 367h-69v-680h71z" />
    <glyph glyph-name="Xi" unicode="&#x39e;" 
d="M401 619h-380l-21 21v64h380l21 -21v-64zM401 284h-380l-21 21v94h380l21 -21v-94zM401 -21h-380l-21 21v64h380l21 -21v-64zM368 12v40h-356v-40h356zM368 317v70h-356v-70h356zM368 652v40h-356v-40h356z" />
    <glyph glyph-name="Omicron" unicode="&#x39f;" 
d="M401 -21h-380l-21 21v704h380l21 -21v-704zM286 619h-171l20 -555h151v555zM82 52v600h216v-600h-216zM368 12v680h-356v-680h356z" />
    <glyph glyph-name="Pi" unicode="&#x3a0;" 
d="M115 -21h-94l-21 21v704h380l21 -21v-704h-94l-21 21v619h-171v-640zM82 12v640h216v-640h70v680h-356v-680h70z" />
    <glyph glyph-name="Rho" unicode="&#x3a1;" 
d="M115 -21h-94l-21 21v704h380l21 -21v-399h-286v-305zM286 619h-171l18 -220h153v220zM82 387v265h216v-265h-216zM82 12v305h286v375h-356v-680h70z" />
    <glyph glyph-name="Sigma" unicode="&#x3a3;" 
d="M401 -21h-380l-21 21v143l243 207l-222 190l-21 21v143h380l21 -21v-64h-286v-44l239 -223l21 -21l-260 -243v-24h265l21 -21v-64zM368 12v40h-286v62l254 238l-254 238v62h286v40h-356v-125l251 -215l-251 -215v-125h356z" />
    <glyph glyph-name="Tau" unicode="&#x3a4;" 
d="M273 -21h-94l-21 21l-28 619h-109l-21 21v64h380l21 -21v-64h-129zM240 12l-1 640h129v40h-356v-40h128l29 -640h71z" />
    <glyph glyph-name="Upsilon" unicode="&#x3a5;" horiz-adv-x="593" 
d="M337 -21h-106l-21 21v379l-178 325h98l21 -21l117 -208l129 229h98l21 -21l-179 -325v-379zM304 12v370l171 310h-71l-141 -249l-140 249h-71l170 -310v-370h82z" />
    <glyph glyph-name="Phi" unicode="&#x3a6;" horiz-adv-x="495" 
d="M273 -21h-94l-21 21v102h-137l-21 21v458h158v123h94l21 -21v-102h137l21 -21v-458h-158v-123zM316 476h-43l19 -269h24v269zM158 476h-43l19 -269h24v269zM82 195v314h88v-314h-88zM240 195v314h88v-314h-88zM240 12v123h158v434h-158v123h-70v-123h-158v-434h158v-123
h70z" />
    <glyph glyph-name="Chi" unicode="&#x3a7;" horiz-adv-x="657" 
d="M151 -21h-98l-21 21l208 383l-176 321h98l21 -21l117 -208l129 229h98l21 -21l-177 -321l209 -383h-98l-21 21l-150 271zM123 12l172 314l173 -314h71l-203 371l171 309h-71l-141 -249l-140 249h-71l170 -309l-202 -371h71z" />
    <glyph glyph-name="Psi" unicode="&#x3a8;" horiz-adv-x="495" 
d="M273 -21h-94l-21 21v284h-137l-21 21v399h94l21 -21v-284h43v305h94l21 -21v-284h43v305h94l21 -21v-399h-158v-305zM240 12v305h158v375h-70v-305h-88v305h-70v-305h-88v305h-70v-375h158v-305h70z" />
    <glyph glyph-name="Omega" unicode="&#x3a9;" 
d="M179 -21h-158l-21 21v64h64v77h-43l-21 21v542h380l21 -21v-542h-64v-77h43l21 -21v-64h-158l-21 21v286h64v333h-171v-333h43l21 -21v-286zM146 12v262h-64v378h216v-378h-64v-262h134v40h-64v122h64v518h-356v-518h64v-122h-64v-40h134z" />
    <glyph glyph-name="Iotadieresis" unicode="&#x3aa;" 
d="M401 653h-94l-21 21v94h94l21 -21v-94zM115 653h-94l-21 21v94h94l21 -21v-94zM273 -21h-94l-21 21l-29 670h4l-4 4v158h122l21 -21v-158h-4l4 -4zM240 12l-1 646h-97l27 -646h71zM82 686v70h-70v-70h70zM368 686v70h-70v-70h70zM239 686v134h-98v-134h98z" />
    <glyph glyph-name="Upsilondieresis" unicode="&#x3ab;" horiz-adv-x="593" 
d="M268 475l100 178h-65l-21 21v94h106l21 -21v-43h86l21 -21l-179 -325v-379h-106l-21 21v379l-178 325h98l8 -8v72h106l21 -21v-94h-98zM150 643v-2v0l-14 27l-11 18l-2 6h-71l170 -310v-370h82v370l171 310h-71l-4 -6l-10 -18l-127 -225zM376 686v70h-82v-70h82zM150 686
h82v70h-82v-70z" />
    <glyph glyph-name="alphatonos" unicode="&#x3ac;" 
d="M272 461h-122l-21 21v158h122l21 -21v-158zM401 -21h-380l-21 21v271h286v92h-265l-21 21v64h380l21 -21v-448zM286 156h-171l15 -92h156v92zM82 52v137h216v-137h-216zM368 12v424h-356v-40h286v-137h-286v-247h356zM239 494v134h-98v-134h98z" />
    <glyph glyph-name="epsilontonos" unicode="&#x3ad;" 
d="M272 461h-122l-21 21v158h122l21 -21v-158zM401 -21h-380l-21 21v448h380l21 -21v-64h-286v-92h201l21 -21v-94h-222v-92h265l21 -21v-64zM368 12v40h-286v137h222v70h-222v137h286v40h-356v-424h356zM239 494v134h-98v-134h98z" />
    <glyph glyph-name="etatonos" unicode="&#x3ae;" 
d="M272 461h-122l-21 21v158h122l21 -21v-158zM401 -213h-94l-21 21v555h-171v-384h-94l-21 21v448h380l21 -21v-640zM368 -180v616h-356v-424h70v384h216v-576h70zM239 494v134h-98v-134h98z" />
    <glyph glyph-name="iotatonos" unicode="&#x3af;" horiz-adv-x="179" 
d="M115 461h-94l-21 21v158h94l21 -21v-158zM115 -21h-94l-21 21v448h94l21 -21v-448zM82 12v424h-70v-424h70zM82 494v134h-70v-134h70z" />
    <glyph glyph-name="upsilondieresistonos" unicode="&#x3b0;" 
d="M267 461h-112l-21 21v158h112l21 -21v-158zM401 461h-94l-21 21v94h94l21 -21v-94zM115 461h-94l-21 21v94h94l21 -21v-94zM401 -21h-380l-21 21v448h94l21 -21v-363h171v384h94l21 -21v-448zM368 12v424h-70v-384h-216v384h-70v-424h356zM82 494v70h-70v-70h70zM368 494
v70h-70v-70h70zM234 494v134h-88v-134h88z" />
    <glyph glyph-name="alpha" unicode="&#x3b1;" 
d="M401 -21h-380l-21 21v271h286v92h-265l-21 21v64h380l21 -21v-448zM286 156h-171l15 -92h156v92zM82 52v137h216v-137h-216zM368 12v424h-356v-40h286v-137h-286v-247h356z" />
    <glyph glyph-name="beta" unicode="&#x3b2;" 
d="M115 -213h-94l-21 21v704h380l21 -21v-263l-25 -25l4 -4l21 -21v-263h-286v-128zM286 397h-171l16 -126h155v126zM286 156h-171l16 -126h155v126zM82 18v171h216v-171h-216zM82 259v171h216v-171h-216zM82 -180v128h286v246l-31 30l31 30v246h-356v-680h70z" />
    <glyph glyph-name="gamma" unicode="&#x3b3;" 
d="M282 -21h-94l-21 21l-26 253l-141 259h98l21 -21l84 -144l98 165h98l21 -21l-141 -259zM249 12l-3 244l133 244h-71l-109 -185l-108 185h-71l133 -243l25 -245h71z" />
    <glyph glyph-name="delta" unicode="&#x3b4;" 
d="M401 -21h-380l-21 21v335h129v177h251l21 -21v-94h-129v-62h108l21 -21v-335zM286 220h-171l17 -156h154v156zM82 52v201h216v-201h-216zM368 12v311h-129v107h129v70h-227v-177h-129v-311h356z" />
    <glyph glyph-name="epsilon" unicode="&#x3b5;" 
d="M401 -21h-380l-21 21v448h380l21 -21v-64h-286v-92h201l21 -21v-94h-222v-92h265l21 -21v-64zM368 12v40h-286v137h222v70h-222v137h286v40h-356v-424h356z" />
    <glyph glyph-name="zeta" unicode="&#x3b6;" 
d="M401 -149h-316l-21 21v94h222v13h-265l-21 21v576h286v13h-201l-21 21v94h316l21 -21v-222h-286v-397h265l21 -21v-192zM368 -116v168h-286v442h286v198h-292v-70h222v-58h-286v-552h286v-58h-222v-70h292z" />
    <glyph glyph-name="eta" unicode="&#x3b7;" 
d="M401 -213h-94l-21 21v555h-171v-384h-94l-21 21v448h380l21 -21v-640zM368 -180v616h-356v-424h70v384h216v-576h70z" />
    <glyph glyph-name="theta" unicode="&#x3b8;" 
d="M401 -21h-380l-21 21v576h380l21 -21v-576zM286 461h-171l16 -126h155v126zM286 220h-171l17 -156h154v156zM82 52v201h216v-201h-216zM82 323v171h216v-171h-216zM368 12v552h-356v-552h356z" />
    <glyph glyph-name="iota" unicode="&#x3b9;" horiz-adv-x="179" 
d="M115 -21h-94l-21 21v448h94l21 -21v-448zM82 12v424h-70v-424h70z" />
    <glyph glyph-name="kappa" unicode="&#x3ba;" horiz-adv-x="401" 
d="M115 -21h-94l-21 21v448h94l21 -21v-92l81 113h97l21 -21l-106 -194l138 -254h-97l-21 21l-113 174v-195zM82 12v236l153 -236h70l-132 242l100 182h-71l-120 -168v168h-70v-424h70z" />
    <glyph glyph-name="lambda" unicode="&#x3bb;" horiz-adv-x="529" 
d="M151 -21h-98l-21 21l142 254l-110 194h103l21 -21l264 -448h-98l-21 21l-85 144zM123 12l108 185l109 -185h70l-250 424h-75l103 -182l-136 -242h71z" />
    <glyph glyph-name="mugreek" unicode="&#x3bc;" 
d="M115 -213h-94l-21 21v640h94l21 -21v-363h171v384h94l21 -21v-512h-94l-21 21v43h-171v-192zM82 -180v192h216v-64h70v488h-70v-384h-216v384h-70v-616h70z" />
    <glyph glyph-name="nu" unicode="&#x3bd;" 
d="M260 -21h-98l-21 21l-141 251v197h94l21 -21v-203l79 -134l92 155v203h94l21 -21v-197zM232 12l136 242v182h-70v-194l-108 -183l-108 183v194h-70v-182l136 -242h84z" />
    <glyph glyph-name="xi" unicode="&#x3be;" 
d="M401 -149h-316l-21 21v94h222v13h-265l-21 21v576h286v13h-201l-21 21v94h316l21 -21v-222h-286v-126h201l21 -21v-94h-222v-156h265l21 -21v-192zM368 -116v168h-286v201h222v70h-222v171h286v198h-292v-70h222v-58h-286v-552h286v-58h-222v-70h292z" />
    <glyph glyph-name="omicron" unicode="&#x3bf;" 
d="M401 -21h-380l-21 21v448h380l21 -21v-448zM286 363h-171l19 -299h152v299zM82 52v344h216v-344h-216zM368 12v424h-356v-424h356z" />
    <glyph glyph-name="pi" unicode="&#x3c0;" horiz-adv-x="593" 
d="M179 -21h-94l-21 21v363h-43l-21 21v64h508l21 -21v-64h-64v-384h-94l-21 21v363h-171v-384zM146 12v384h216v-384h70v384h64v40h-484v-40h64v-384h70z" />
    <glyph glyph-name="rho" unicode="&#x3c1;" 
d="M115 -213h-94l-21 21v640h380l21 -21v-448h-286v-192zM286 363h-171l19 -299h152v299zM82 52v344h216v-344h-216zM82 -180v192h286v424h-356v-616h70z" />
    <glyph glyph-name="sigma1" unicode="&#x3c2;" 
d="M401 -149h-316l-21 21v94h222v13h-265l-21 21v448h380l21 -21v-64h-286v-299h265l21 -21v-192zM368 -116v168h-286v344h286v40h-356v-424h286v-58h-222v-70h292z" />
    <glyph glyph-name="sigma" unicode="&#x3c3;" horiz-adv-x="593" 
d="M400 -21h-379l-21 21v448h508l21 -21v-64h-129v-384zM273 363h-158l19 -299h139v299zM82 52v344h203v-344h-203zM367 12v384h129v40h-484v-424h355z" />
    <glyph glyph-name="tau" unicode="&#x3c4;" 
d="M273 -21h-94l-21 21l-27 363h-110l-21 21v64h380l21 -21v-64h-129zM240 12l-1 384h129v40h-356v-40h128l29 -384h71z" />
    <glyph glyph-name="upsilon" unicode="&#x3c5;" 
d="M401 -21h-380l-21 21v448h94l21 -21v-363h171v384h94l21 -21v-448zM368 12v424h-70v-384h-216v384h-70v-424h356z" />
    <glyph glyph-name="phi" unicode="&#x3c6;" horiz-adv-x="495" 
d="M273 -21h-94l-21 21v92h-137l-21 21v335h129v128h122l21 -21v-107h108l21 -21l30 -335h-158v-113zM290 363h-18l18 -156h26zM132 363h-17l17 -156h26zM82 195v201h57l33 -201h-90zM240 195l-1 201h57l34 -201h-90zM240 12v113h157l-28 311h-130v128h-98v-128h-129v-311
h158v-113h70z" />
    <glyph glyph-name="chi" unicode="&#x3c7;" horiz-adv-x="529" 
d="M151 -21h-98l-21 21l137 254l-105 194h98l21 -21l52 -82l66 103h98l21 -21l-106 -194l138 -254h-98l-21 21l-85 144zM123 12l108 185l109 -185h71l-132 242l100 182h-71l-77 -119l-76 119h-71l99 -182l-131 -242h71z" />
    <glyph glyph-name="psi" unicode="&#x3c8;" horiz-adv-x="495" 
d="M273 -21h-94l-21 21v156h-137l-21 21v271h94l21 -21v-156h43v177h94l21 -21v-156h43v177h94l21 -21v-271h-158v-177zM240 12v177h158v247h-70v-177h-88v177h-70v-177h-88v177h-70v-247h158v-177h70z" />
    <glyph glyph-name="omega" unicode="&#x3c9;" 
d="M401 -21h-380l-21 21v448h94l21 -21v-363h19v256h112l21 -21v-235h19v384h94l21 -21v-448zM368 12v424h-70v-384h-64v256h-88v-256h-64v384h-70v-424h356z" />
    <glyph glyph-name="iotadieresis" unicode="&#x3ca;" horiz-adv-x="307" 
d="M243 461h-94l-21 21v94h94l21 -21v-94zM115 461h-94l-21 21v94h94l21 -21v-94zM179 -21h-94l-21 21v448h94l21 -21v-448zM146 12v424h-70v-424h70zM82 494v70h-70v-70h70zM210 494v70h-70v-70h70z" />
    <glyph glyph-name="upsilondieresis" unicode="&#x3cb;" 
d="M337 461h-106l-21 21v94h106l21 -21v-94zM191 461h-106l-21 21v94h106l21 -21v-94zM401 -21h-380l-21 21v448h94l21 -21v-363h171v384h94l21 -21v-448zM368 12v424h-70v-384h-216v384h-70v-424h356zM158 494v70h-82v-70h82zM304 494v70h-82v-70h82z" />
    <glyph glyph-name="omicrontonos" unicode="&#x3cc;" 
d="M272 461h-122l-21 21v158h122l21 -21v-158zM401 -21h-380l-21 21v448h380l21 -21v-448zM286 363h-171l19 -299h152v299zM82 52v344h216v-344h-216zM368 12v424h-356v-424h356zM239 494v134h-98v-134h98z" />
    <glyph glyph-name="upsilontonos" unicode="&#x3cd;" 
d="M267 461h-112l-21 21v158h112l21 -21v-158zM401 -21h-380l-21 21v448h94l21 -21v-363h171v384h94l21 -21v-448zM368 12v424h-70v-384h-216v384h-70v-424h356zM234 494v134h-88v-134h88z" />
    <glyph glyph-name="omegatonos" unicode="&#x3ce;" 
d="M267 461h-112l-21 21v158h112l21 -21v-158zM401 -21h-380l-21 21v448h94l21 -21v-363h19v256h112l21 -21v-235h19v384h94l21 -21v-448zM368 12v424h-70v-384h-64v256h-88v-256h-64v384h-70v-424h356zM234 494v134h-88v-134h88z" />
    <glyph glyph-name="betasymbolgreek" unicode="&#x3d0;" horiz-adv-x="371" 
d="M307 -21h-286l-21 21v704h286l21 -21v-286h-192v-126h171l21 -21v-271zM192 589h-77l14 -77h63v77zM192 156h-77l15 -92h62v92zM82 52v137h122v-137h-122zM82 500v122h122v-122h-122zM274 12v247h-192v171h192v262h-262v-680h262z" />
    <glyph glyph-name="theta1" unicode="&#x3d1;" horiz-adv-x="593" 
d="M400 -21h-379l-21 21v64h273v205h-252l-21 21v414h379l21 -21v-286h108l21 -21v-90h-129v-307zM273 589h-158l18 -205h140v205zM82 372v250h203v-250h-203zM367 12v307h129v66h-129v307h-355v-390h273v-250h-273v-40h355z" />
    <glyph glyph-name="Upsilon1" unicode="&#x3d2;" horiz-adv-x="657" 
d="M337 -21h-106l-21 21v379l-178 325h98l21 -21l117 -208l129 229h184l21 -21v-64h-133l-132 -245v-395zM304 12v386l137 254h128v40h-165l-141 -249l-140 249h-71l170 -310v-370h82z" />
    <glyph glyph-name="Upsilonacutehooksymbolgreek" unicode="&#x3d3;" horiz-adv-x="721" 
d="M401 -21h-94l-21 21l-17 379l-154 272v-126h-94l-21 21v158h87h7h96l21 -21l115 -207l126 228h184l21 -21v-64h-134l-129 -245zM92 717l-10 18v-18h10zM82 692h-70v-134h70v134zM106 692l175 -310l16 -370h71l-7 386l134 254h129v40h-165l-138 -250l-138 250h-77z" />
    <glyph glyph-name="Upsilondieresishooksymbolgreek" unicode="&#x3d4;" horiz-adv-x="657" 
d="M409 717h-106l-21 21v94h106l21 -21v-94zM265 717h-106l-21 21v94h106l21 -21v-94zM337 -21h-106l-21 21v379l-178 325h98l21 -21l117 -208l129 229h184l21 -21v-64h-133l-132 -245v-395zM304 12v386l137 254h128v40h-165l-141 -249l-140 249h-71l170 -310v-370h82z
M232 750v70h-82v-70h82zM376 750v70h-82v-70h82z" />
    <glyph glyph-name="phi1" unicode="&#x3d5;" horiz-adv-x="593" 
d="M328 -213h-106l-21 21v171h-180l-21 21v414h508l21 -21v-414h-201v-192zM414 269h-86l18 -205h68v205zM201 269h-86l18 -205h68v205zM82 52v250h131v-250h-131zM295 52v250h131v-250h-131zM295 -180v192h201v390h-484v-390h201v-192h82z" />
    <glyph glyph-name="omega1" unicode="&#x3d6;" 
d="M401 -21h-380l-21 21v414h380l21 -21v-414zM115 64h14v192h122l21 -21l14 -139v173h-171v-205zM239 52v192h-98v-192h-59v250h216v-250h-59zM368 12v390h-356v-390h356z" />
    <glyph glyph-name="Stigmagreek" unicode="&#x3da;" 
d="M401 -149h-316l-21 21v94h222v13h-265l-21 21v704h380l21 -21v-64h-286v-555h265l21 -21v-192zM368 -116v168h-286v600h286v40h-356v-680h286v-58h-222v-70h292z" />
    <glyph glyph-name="Digammagreek" unicode="&#x3dc;" 
d="M115 -21h-94l-21 21v704h380l21 -21v-64h-286v-220h265l21 -21v-94h-286v-305zM82 12v305h286v70h-286v265h286v40h-356v-680h70z" />
    <glyph glyph-name="Koppagreek" unicode="&#x3de;" 
d="M401 -21h-94l-21 21v284h-265l-21 21v399h94l21 -21v-284h265l21 -21v-399zM368 12v375h-286v305h-70v-375h286v-305h70z" />
    <glyph glyph-name="Sampigreek" unicode="&#x3e0;" 
d="M401 -21h-94l-21 21v156h-265l-21 21v94h286v141h-265l-21 21v94h286v177h94l21 -21v-704zM368 12v680h-70v-177h-286v-70h286v-186h-286v-70h286v-177h70z" />
    <glyph glyph-name="Sheicoptic" unicode="&#x3e2;" 
d="M401 -149h-316l-21 21v94h222v13h-265l-21 21v704h94l21 -21v-619h19v512h112l21 -21v-491h19v640h94l21 -21v-832zM368 -116v808h-70v-640h-64v512h-88v-512h-64v640h-70v-680h286v-58h-222v-70h292z" />
    <glyph glyph-name="sheicoptic" unicode="&#x3e3;" 
d="M401 -149h-316l-21 21v94h222v13h-265l-21 21v448h94l21 -21v-363h19v256h112l21 -21v-235h19v384h94l21 -21v-576zM368 -116v552h-70v-384h-64v256h-88v-256h-64v384h-70v-424h286v-58h-222v-70h292z" />
    <glyph glyph-name="Feicoptic" unicode="&#x3e4;" 
d="M401 -21h-94l-21 21v284h-265l-21 21v399h94l21 -21v-284h171v305h94l21 -21v-704zM368 12v680h-70v-305h-216v305h-70v-375h286v-305h70z" />
    <glyph glyph-name="feicoptic" unicode="&#x3e5;" 
d="M401 -21h-94l-21 21v156h-265l-21 21v271h94l21 -21v-156h171v177h94l21 -21v-448zM368 12v424h-70v-177h-216v177h-70v-247h286v-177h70z" />
    <glyph glyph-name="Kheicoptic" unicode="&#x3e6;" 
d="M401 -149h-244l-21 21v94h150v318h-171v-305h-94l-21 21v704h94l21 -21v-284h265l21 -21v-527zM368 -116v503h-286v305h-70v-680h70v305h216v-363h-150v-70h220z" />
    <glyph glyph-name="kheicoptic" unicode="&#x3e7;" 
d="M401 -21h-380l-21 21v64h286v205h-265l-21 21v222h380l21 -21v-94h-286v-11h265l21 -21v-386zM368 12v362h-286v56h286v70h-356v-198h286v-250h-286v-40h356z" />
    <glyph glyph-name="Horicoptic" unicode="&#x3e8;" 
d="M401 -21h-380l-21 21v704h380l21 -21v-399h-286v-220h171v128h94l21 -21v-192zM286 619h-171l18 -220h153v220zM82 387v265h216v-265h-216zM368 12v168h-70v-128h-216v265h286v375h-356v-680h356z" />
    <glyph glyph-name="horicoptic" unicode="&#x3e9;" 
d="M401 -21h-380l-21 21v448h380l21 -21v-271h-286v-92h265l21 -21v-64zM286 363h-171l15 -92h156v92zM82 259v137h216v-137h-216zM368 12v40h-286v137h286v247h-356v-424h356z" />
    <glyph glyph-name="Gangiacoptic" unicode="&#x3ea;" 
d="M410 -21h-380l-21 21v463h124l-133 241h98l21 -21l84 -144l98 165h98l21 -21l-122 -220h91l21 -21v-463zM294 348h-169l19 -284h150v284zM92 52v329h214v-329h-214zM377 12v439h-132l134 241h-71l-109 -185l-108 185h-71l133 -241h-132v-439h356z" />
    <glyph glyph-name="gangiacoptic" unicode="&#x3eb;" 
d="M410 -21h-380l-21 21v207h124l-133 241h98l21 -21l84 -144l98 165h98l21 -21l-122 -220h91l21 -21v-207zM294 92h-169l9 -28h160v28zM92 52v73h214v-73h-214zM377 12v183h-132l134 241h-71l-109 -185l-108 185h-71l133 -241h-132v-183h356z" />
    <glyph glyph-name="Shimacoptic" unicode="&#x3ec;" horiz-adv-x="529" 
d="M401 -21h-380l-21 21v704h444l21 -21v-64h-350v-220h265l21 -21v-399zM280 284h-165l18 -220h147v220zM82 52v265h210v-265h-210zM368 12v375h-286v265h350v40h-420v-680h356z" />
    <glyph glyph-name="shimacoptic" unicode="&#x3ed;" 
d="M401 -21h-380l-21 21v388h286v60h94l21 -21v-448zM286 269h-171l18 -205h153v205zM82 52v250h216v-250h-216zM368 12v424h-70v-60h-286v-364h356z" />
    <glyph glyph-name="Deicoptic" unicode="&#x3ee;" horiz-adv-x="495" 
d="M273 -21h-94l-21 21v470h-137l-21 21v90h158v123h94l21 -21v-102h137l21 -21v-90h-158v-491zM240 12v491h158v66h-158v123h-70v-123h-158v-66h158v-491h70z" />
    <glyph glyph-name="deicoptic" unicode="&#x3ef;" horiz-adv-x="307" 
d="M179 -21h-94l-21 21v363h-43l-21 21v64h64v256h94l21 -21v-235h43l21 -21v-64h-64v-384zM146 12v384h64v40h-64v256h-70v-256h-64v-40h64v-384h70z" />
    <glyph glyph-name="kappasymbolgreek" unicode="&#x3f0;" 
d="M115 -21h-94l-21 21v200l26 24l-26 24v200h94l21 -21v-156h171v177h94l21 -21v-200l-25 -23l4 -4l21 -21v-200h-94l-21 21v156h-171v-177zM82 12v177h216v-177h70v183l-32 29l32 29v183h-70v-177h-216v177h-70v-183l32 -29l-32 -29v-183h70z" />
    <glyph glyph-name="rhosymbolgreek" unicode="&#x3f1;" 
d="M401 -149h-380l-21 21v576h380l21 -21v-335h-286v-126h265l21 -21v-94zM286 363h-171l17 -156h154v156zM82 195v201h216v-201h-216zM368 -116v70h-286v171h286v311h-356v-552h356z" />
    <glyph glyph-name="sigmalunatesymbolgreek" unicode="&#x3f2;" 
d="M401 -21h-380l-21 21v448h380l21 -21v-64h-286v-299h265l21 -21v-64zM368 12v40h-286v344h286v40h-356v-424h356z" />
    <glyph glyph-name="yotgreek" unicode="&#x3f3;" horiz-adv-x="307" 
d="M243 589h-94l-21 21v94h94l21 -21v-94zM243 -213h-222l-21 21v94h128v546h94l21 -21v-640zM210 -180v616h-70v-546h-128v-70h198zM210 622v70h-70v-70h70z" />
    <glyph glyph-name="afii10023" unicode="&#x401;" 
d="M337 717h-104l-21 21v94h104l21 -21v-94zM189 717h-104l-21 21v94h104l21 -21v-94zM401 -21h-380l-21 21v704h380l21 -21v-64h-286v-220h201l21 -21v-94h-222v-220h265l21 -21v-64zM368 12v40h-286v265h222v70h-222v265h286v40h-356v-680h356zM156 750v70h-80v-70h80z
M304 750v70h-80v-70h80z" />
    <glyph glyph-name="afii10051" unicode="&#x402;" 
d="M179 -21h-94l-21 21v619h-43l-21 21v64h380l21 -21v-64h-222v-220h201l21 -21v-399h-158l-21 21v64h64v220h-107v-305zM146 12v305h152v-265h-64v-40h134v375h-222v265h222v40h-356v-40h64v-640h70z" />
    <glyph glyph-name="afii10052" unicode="&#x403;" 
d="M256 717h-128l-21 21l188 158h106l21 -21zM115 -21h-94l-21 21v704h380l21 -21v-64h-286v-640zM82 12v640h286v40h-356v-680h70zM230 750l141 134h-72l-159 -134h90z" />
    <glyph glyph-name="afii10053" unicode="&#x404;" horiz-adv-x="435" 
d="M298 -21h-204l-21 21l-73 70v564l73 70h204l73 -50l21 -21v-78h-94l-21 21v43h-141v-220h107l21 -21v-94h-128v-220h141v64h94l21 -21v-78zM273 12l65 44v60h-70v-64h-186v265h128v70h-128v265h186v-64h70v60l-65 44h-195l-66 -63v-554l66 -63h195z" />
    <glyph glyph-name="afii10054" unicode="&#x405;" 
d="M401 -21h-380l-21 21v64h286v220h-265l-21 21v399h380l21 -21v-64h-286v-220h265l21 -21v-399zM368 12v375h-286v265h286v40h-356v-375h286v-265h-286v-40h356z" />
    <glyph glyph-name="afii10055" unicode="&#x406;" horiz-adv-x="307" 
d="M243 -21h-222l-21 21v64h64v555h-43l-21 21v64h222l21 -21v-64h-64v-555h43l21 -21v-64zM210 12v40h-64v600h64v40h-198v-40h64v-600h-64v-40h198z" />
    <glyph glyph-name="afii10056" unicode="&#x407;" horiz-adv-x="307" 
d="M243 717h-94l-21 21v94h94l21 -21v-94zM115 717h-94l-21 21v94h94l21 -21v-94zM243 -21h-222l-21 21v64h64v640h94l21 -21v-619h43l21 -21v-64zM210 12v40h-64v640h-70v-640h-64v-40h198zM82 750v70h-70v-70h70zM210 750v70h-70v-70h70z" />
    <glyph glyph-name="afii10057" unicode="&#x408;" 
d="M401 -21h-380l-21 21v192h94l21 -21v-107h171v640h94l21 -21v-704zM368 12v680h-70v-640h-216v128h-70v-168h356z" />
    <glyph glyph-name="afii10058" unicode="&#x409;" horiz-adv-x="657" 
d="M179 -21h-158l-21 21v64h64v640h316l21 -21v-284h171l21 -21v-399h-286l-21 21v619h-107v-640zM478 284h-77l18 -220h59v220zM368 52v265h122v-265h-122zM146 12v640h152v-640h262v375h-192v305h-292v-640h-64v-40h134z" />
    <glyph glyph-name="afii10059" unicode="&#x40a;" horiz-adv-x="593" 
d="M115 -21h-94l-21 21v704h94l21 -21v-284h107v305h94l21 -21v-284h171l21 -21v-399h-286l-21 21v284h-107v-305zM414 284h-77l18 -220h59v220zM304 52v265h122v-265h-122zM82 12v305h152v-305h262v375h-192v305h-70v-305h-152v305h-70v-680h70z" />
    <glyph glyph-name="afii10060" unicode="&#x40b;" 
d="M179 -21h-94l-21 21v619h-43l-21 21v64h380l21 -21v-64h-222v-220h201l21 -21v-399h-94l-21 21v284h-107v-305zM146 12v305h152v-305h70v375h-222v265h222v40h-356v-40h64v-640h70z" />
    <glyph glyph-name="afii10061" unicode="&#x40c;" 
d="M115 -21h-94l-21 21v704h94l21 -21v-215l145 236h97l21 -21l-183 -321l215 -383h-97l-21 21l-177 299v-320zM261 717h-130l-21 21l185 158h106l21 -21zM235 750l137 134h-73l-156 -134h92zM82 12v367l217 -367h69l-208 371l176 309h-69l-185 -302v302h-70v-680h70z" />
    <glyph glyph-name="afii10062" unicode="&#x40e;" 
d="M278 717h-91l-166 158l-21 21h106l75 -64h61l74 64h106l21 -21zM130 -21h-97l-21 21l141 260l-132 242v202h94l21 -21v-203l79 -134l92 155v203h94l21 -21v-202zM102 12l287 493v187h-70v-194l-108 -183l-108 183v194h-70v-187l134 -245l-135 -248h70zM252 750l140 134
h-72l-74 -64h-69l-75 64h-72l141 -134h81z" />
    <glyph glyph-name="afii10145" unicode="&#x40f;" 
d="M267 -213h-112l-21 21v171h-113l-21 21v704h94l21 -21v-619h171v640h94l21 -21v-704h-134v-192zM234 -180v192h134v680h-70v-640h-216v640h-70v-680h134v-192h88z" />
    <glyph glyph-name="Acyrillic" unicode="&#x410;" 
d="M115 -21h-94l-21 21v704h380l21 -21v-704h-94l-21 21v284h-171v-305zM286 619h-171l18 -220h153v220zM82 387v265h216v-265h-216zM82 12v305h216v-305h70v680h-356v-680h70z" />
    <glyph glyph-name="afii10018" unicode="&#x411;" 
d="M401 -21h-380l-21 21v704h380l21 -21v-64h-286v-220h265l21 -21v-399zM286 284h-171l18 -220h153v220zM82 52v265h216v-265h-216zM368 12v375h-286v265h286v40h-356v-680h356z" />
    <glyph glyph-name="afii10019" unicode="&#x412;" 
d="M401 -21h-380l-21 21v704h380l21 -21v-327l-25 -25l4 -4l21 -21v-327zM286 619h-171l18 -220h153v220zM286 284h-171l18 -220h153v220zM82 52v265h216v-265h-216zM82 387v265h216v-265h-216zM368 12v310l-31 30l31 30v310h-356v-680h356z" />
    <glyph glyph-name="afii10020" unicode="&#x413;" 
d="M115 -21h-94l-21 21v704h380l21 -21v-64h-286v-640zM82 12v640h286v40h-356v-680h70z" />
    <glyph glyph-name="afii10021" unicode="&#x414;" horiz-adv-x="593" 
d="M115 -149h-94l-21 21v158h64v674h380l21 -21v-653h43l21 -21v-158h-94l-21 21v43h-299v-64zM345 619h-161l20 -589h141v589zM151 18v634h206v-634h-206zM82 -116v64h344v-64h70v134h-64v674h-356v-674h-64v-134h70z" />
    <glyph glyph-name="afii10022" unicode="&#x415;" 
d="M401 -21h-380l-21 21v704h380l21 -21v-64h-286v-220h201l21 -21v-94h-222v-220h265l21 -21v-64zM368 12v40h-286v265h222v70h-222v265h286v40h-356v-680h356z" />
    <glyph glyph-name="afii10024" unicode="&#x416;" horiz-adv-x="495" 
d="M115 -21h-94l-21 21v327l26 25l-26 25v327h94l21 -21v-284h43v305h94l21 -21v-284h43v305h94l21 -21v-327q-13 -12 -25 -25l4 -4l21 -21v-327h-94l-21 21v284h-43v-305h-94l-21 21v284h-43v-305zM82 12v305h88v-305h70v305h88v-305h70v310l-31 30l31 30v310h-70v-305h-88
v305h-70v-305h-88v305h-70v-310l31 -30l-31 -30v-310h70z" />
    <glyph glyph-name="afii10025" unicode="&#x417;" 
d="M401 -21h-380l-21 21v64h286v220h-201l-21 21v94h222v220h-265l-21 21v64h380l21 -21v-704zM368 12v680h-356v-40h286v-265h-222v-70h222v-265h-286v-40h356z" />
    <glyph glyph-name="afii10026" unicode="&#x418;" 
d="M115 -21h-94l-21 21v704h94l21 -21v-278l177 299h88l21 -21v-704h-95l-21 21v470l-170 -288v-203zM82 12v194l215 365v-559h71v680h-69l-217 -367v367h-70v-680h70z" />
    <glyph glyph-name="afii10027" unicode="&#x419;" 
d="M277 717h-90l-166 158l-21 21h106l74 -64h61l75 64h106l21 -21zM136 -21h-94l-21 21v704h94l21 -21v-278l177 299h88l21 -21v-704h-95l-21 21v470l-170 -288v-203zM103 12v194l215 365v-559h71v680h-69l-217 -367v367h-70v-680h70zM251 750l141 134h-72l-75 -64h-69
l-74 64h-72l141 -134h80z" />
    <glyph glyph-name="afii10028" unicode="&#x41a;" 
d="M115 -21h-94l-21 21v704h94l21 -21v-215l145 236h97l21 -21l-183 -321l215 -383h-97l-21 21l-177 299v-320zM82 12v367l217 -367h69l-208 371l176 309h-69l-185 -302v302h-70v-680h70z" />
    <glyph glyph-name="afii10029" unicode="&#x41b;" 
d="M179 -21h-158l-21 21v64h64v640h316l21 -21v-704h-94l-21 21v619h-107v-640zM146 12v640h152v-640h70v680h-292v-640h-64v-40h134z" />
    <glyph glyph-name="afii10030" unicode="&#x41c;" 
d="M115 -21h-94l-21 21v704h380l21 -21v-704h-94l-21 21v619h-19v-320h-112l-21 21v299h-19v-640zM82 12v640h64v-320h88v320h64v-640h70v680h-356v-680h70z" />
    <glyph glyph-name="afii10031" unicode="&#x41d;" 
d="M115 -21h-94l-21 21v704h94l21 -21v-284h171v305h94l21 -21v-704h-94l-21 21v284h-171v-305zM82 12v305h216v-305h70v680h-70v-305h-216v305h-70v-680h70z" />
    <glyph glyph-name="afii10032" unicode="&#x41e;" 
d="M401 -21h-380l-21 21v704h380l21 -21v-704zM286 619h-171l20 -555h151v555zM82 52v600h216v-600h-216zM368 12v680h-356v-680h356z" />
    <glyph glyph-name="afii10033" unicode="&#x41f;" 
d="M115 -21h-94l-21 21v704h380l21 -21v-704h-94l-21 21v619h-171v-640zM82 12v640h216v-640h70v680h-356v-680h70z" />
    <glyph glyph-name="afii10034" unicode="&#x420;" 
d="M115 -21h-94l-21 21v704h380l21 -21v-399h-286v-305zM286 619h-171l18 -220h153v220zM82 387v265h216v-265h-216zM82 12v305h286v375h-356v-680h70z" />
    <glyph glyph-name="afii10035" unicode="&#x421;" 
d="M401 -21h-380l-21 21v704h380l21 -21v-64h-286v-555h265l21 -21v-64zM368 12v40h-286v600h286v40h-356v-680h356z" />
    <glyph glyph-name="afii10036" unicode="&#x422;" 
d="M273 -21h-94l-21 21l-28 619h-109l-21 21v64h380l21 -21v-64h-129zM240 12l-1 640h129v40h-356v-40h128l29 -640h71z" />
    <glyph glyph-name="afii10037" unicode="&#x423;" 
d="M119 -21h-98l-21 21l141 260l-132 242v202h94l21 -21v-203l79 -134l92 155v203h94l21 -21v-202zM91 12l286 493v187h-70v-194l-108 -183l-108 183v194h-70v-187l134 -245l-135 -248h71z" />
    <glyph glyph-name="afii10038" unicode="&#x424;" horiz-adv-x="495" 
d="M273 -21h-94l-21 21v102h-137l-21 21v458h158v123h94l21 -21v-102h137l21 -21v-458h-158v-123zM316 476h-43l19 -269h24v269zM158 476h-43l19 -269h24v269zM82 195v314h88v-314h-88zM240 195v314h88v-314h-88zM240 12v123h158v434h-158v123h-70v-123h-158v-434h158v-123
h70z" />
    <glyph glyph-name="afii10039" unicode="&#x425;" horiz-adv-x="657" 
d="M151 -21h-98l-21 21l208 383l-176 321h98l21 -21l117 -208l129 229h98l21 -21l-177 -321l209 -383h-98l-21 21l-150 271zM123 12l172 314l173 -314h71l-203 371l171 309h-71l-141 -249l-140 249h-71l170 -309l-202 -371h71z" />
    <glyph glyph-name="afii10040" unicode="&#x426;" horiz-adv-x="529" 
d="M465 -213h-94l-21 21v171h-329l-21 21v704h94l21 -21v-619h171v640h94l21 -21v-619h43l21 -21v-256zM432 -180v232h-64v640h-70v-640h-216v640h-70v-680h350v-192h70z" />
    <glyph glyph-name="afii10041" unicode="&#x427;" 
d="M401 -21h-94l-21 21v284h-265l-21 21v399h94l21 -21v-284h171v305h94l21 -21v-704zM368 12v680h-70v-305h-216v305h-70v-375h286v-305h70z" />
    <glyph glyph-name="afii10042" unicode="&#x428;" 
d="M401 -21h-380l-21 21v704h94l21 -21v-619h19v399h112l21 -21v-378h19v640h94l21 -21v-704zM368 12v680h-70v-640h-64v399h-88v-399h-64v640h-70v-680h356z" />
    <glyph glyph-name="afii10043" unicode="&#x429;" horiz-adv-x="529" 
d="M465 -213h-94l-21 21v171h-329l-21 21v704h94l21 -21v-619h19v399h112l21 -21v-378h19v640h94l21 -21v-619h43l21 -21v-256zM432 -180v232h-64v640h-70v-640h-64v399h-88v-399h-64v640h-70v-680h350v-192h70z" />
    <glyph glyph-name="afii10044" unicode="&#x42a;" 
d="M401 -21h-316l-21 21v619h-43l-21 21v64h158l21 -21v-284h201l21 -21v-399zM286 284h-107l18 -220h89v220zM146 52v265h152v-265h-152zM368 12v375h-222v305h-134v-40h64v-640h292z" />
    <glyph glyph-name="afii10045" unicode="&#x42b;" horiz-adv-x="529" 
d="M465 -21h-94l-21 21v704h94l21 -21v-704zM332 -21h-311l-21 21v704h94l21 -21v-284h196l21 -21v-399zM205 284h-90l18 -220h72v220zM82 52v265h135v-265h-135zM299 12v375h-217v305h-70v-680h287zM432 12v680h-70v-680h70z" />
    <glyph glyph-name="afii10046" unicode="&#x42c;" horiz-adv-x="371" 
d="M307 -21h-286l-21 21v704h94l21 -21v-284h171l21 -21v-399zM192 284h-77l18 -220h59v220zM82 52v265h122v-265h-122zM274 12v375h-192v305h-70v-680h262z" />
    <glyph glyph-name="afii10047" unicode="&#x42d;" horiz-adv-x="435" 
d="M298 -21h-204l-73 50l-21 21v78h94l21 -21v-43h141v220h-171l-21 21v94h192v220h-141v-64h-94l-21 21v78l73 50h204l73 -70l21 -21v-257l-25 -25l4 -4l21 -21v-257zM272 12l66 63v247l-31 30l31 30v247l-66 63h-195l-65 -44v-60h70v64h186v-265h-192v-70h192v-265h-186
v64h-70v-60l65 -44h195z" />
    <glyph glyph-name="afii10048" unicode="&#x42e;" horiz-adv-x="529" 
d="M115 -21h-94l-21 21v704h94l21 -21v-284h43v305h286l21 -21v-704h-286l-21 21v284h-43v-305zM350 619h-77l20 -555h57v555zM240 52v600h122v-600h-122zM82 12v305h88v-305h262v680h-262v-305h-88v305h-70v-680h70z" />
    <glyph glyph-name="afii10049" unicode="&#x42f;" 
d="M119 -21h-98l-21 21l159 284h-129l-21 21v399h380l21 -21v-704h-94l-21 21v264zM295 619h-170l18 -220h152v220zM92 387v265h215v-265h-215zM91 12l188 305h28v-305h70v680h-356v-375h170l-171 -305h71z" />
    <glyph glyph-name="acyrillic" unicode="&#x430;" 
d="M401 -21h-380l-21 21v271h286v92h-265l-21 21v64h380l21 -21v-448zM286 156h-171l15 -92h156v92zM82 52v137h216v-137h-216zM368 12v424h-356v-40h286v-137h-286v-247h356z" />
    <glyph glyph-name="afii10066" unicode="&#x431;" 
d="M401 -21h-380l-21 21v704h251l21 -21v-94h-157v-194h265l21 -21v-395zM286 269h-171l18 -205h153v205zM82 52v250h216v-250h-216zM368 12v371h-286v239h157v70h-227v-680h356z" />
    <glyph glyph-name="afii10067" unicode="&#x432;" 
d="M401 -21h-380l-21 21v448h380l21 -21v-200l-25 -23l4 -4l21 -21v-200zM286 363h-171l15 -92h156v92zM286 156h-171l15 -92h156v92zM82 52v137h216v-137h-216zM82 259v137h216v-137h-216zM368 12v183l-32 29l32 29v183h-356v-424h356z" />
    <glyph glyph-name="afii10068" unicode="&#x433;" 
d="M115 -21h-94l-21 21v448h380l21 -21v-64h-286v-384zM82 12v384h286v40h-356v-424h70z" />
    <glyph glyph-name="afii10069" unicode="&#x434;" horiz-adv-x="593" 
d="M529 -85h-508l-21 21v94h64v418h380l21 -21v-397h43l21 -21v-94zM345 363h-161l19 -333h142v333zM151 18v378h206v-378h-206zM496 -52v70h-64v418h-356v-418h-64v-70h484z" />
    <glyph glyph-name="afii10070" unicode="&#x435;" 
d="M401 -21h-380l-21 21v448h380l21 -21v-271h-286v-92h265l21 -21v-64zM286 363h-171l15 -92h156v92zM82 259v137h216v-137h-216zM368 12v40h-286v137h286v247h-356v-424h356z" />
    <glyph glyph-name="afii10072" unicode="&#x436;" horiz-adv-x="495" 
d="M115 -21h-94l-21 21v200l26 24l-26 24v200h94l21 -21v-156h43v177h94l21 -21v-156h43v177h94l21 -21v-200q-12 -12 -25 -23l4 -4l21 -21v-200h-94l-21 21v156h-43v-177h-94l-21 21v156h-43v-177zM82 12v177h88v-177h70v177h88v-177h70v183l-32 29l32 29v183h-70v-177h-88
v177h-70v-177h-88v177h-70v-183l32 -29l-32 -29v-183h70z" />
    <glyph glyph-name="afii10073" unicode="&#x437;" 
d="M401 -21h-380l-21 21v64h286v92h-201l-21 21v94h222v92h-265l-21 21v64h380l21 -21v-200l-25 -23l4 -4l21 -21v-200zM368 12v183l-32 29l32 29v183h-356v-40h286v-137h-222v-70h222v-137h-286v-40h356z" />
    <glyph glyph-name="afii10074" unicode="&#x438;" 
d="M115 -21h-94l-21 21v448h94l21 -21v-196l171 144v73h94l21 -21v-448h-94l-21 21v260l-171 -144v-137zM82 12v131l216 182v-313h70v424h-70v-67l-216 -182v249h-70v-424h70z" />
    <glyph glyph-name="afii10075" unicode="&#x439;" 
d="M278 461h-91l-166 158l-21 21h106l75 -64h61l74 64h106l21 -21zM136 -21h-94l-21 21v448h94l21 -21v-196l171 144v73h94l21 -21v-448h-94l-21 21v260l-171 -144v-137zM103 12v131l216 182v-313h70v424h-70v-67l-216 -182v249h-70v-424h70zM252 494l140 134h-72l-74 -64
h-69l-75 64h-72l141 -134h81z" />
    <glyph glyph-name="afii10076" unicode="&#x43a;" horiz-adv-x="401" 
d="M115 -21h-94l-21 21v448h94l21 -21v-92l81 113h97l21 -21l-106 -194l138 -254h-97l-21 21l-113 174v-195zM82 12v236l153 -236h70l-132 242l100 182h-71l-120 -168v168h-70v-424h70z" />
    <glyph glyph-name="afii10077" unicode="&#x43b;" 
d="M179 -21h-158l-21 21v64h64v384h316l21 -21v-448h-94l-21 21v363h-107v-384zM146 12v384h152v-384h70v424h-292v-384h-64v-40h134z" />
    <glyph glyph-name="afii10078" unicode="&#x43c;" 
d="M115 -21h-94l-21 21v448h380l21 -21v-448h-94l-21 21v363h-19v-256h-112l-21 21v235h-19v-384zM82 12v384h64v-256h88v256h64v-384h70v424h-356v-424h70z" />
    <glyph glyph-name="afii10079" unicode="&#x43d;" 
d="M115 -21h-94l-21 21v448h94l21 -21v-156h171v177h94l21 -21v-448h-94l-21 21v156h-171v-177zM82 12v177h216v-177h70v424h-70v-177h-216v177h-70v-424h70z" />
    <glyph glyph-name="afii10080" unicode="&#x43e;" 
d="M401 -21h-380l-21 21v448h380l21 -21v-448zM286 363h-171l19 -299h152v299zM82 52v344h216v-344h-216zM368 12v424h-356v-424h356z" />
    <glyph glyph-name="afii10081" unicode="&#x43f;" 
d="M115 -21h-94l-21 21v448h380l21 -21v-448h-94l-21 21v363h-171v-384zM82 12v384h216v-384h70v424h-356v-424h70z" />
    <glyph glyph-name="afii10082" unicode="&#x440;" 
d="M115 -213h-94l-21 21v640h380l21 -21v-448h-286v-192zM286 363h-171l19 -299h152v299zM82 52v344h216v-344h-216zM82 -180v192h286v424h-356v-616h70z" />
    <glyph glyph-name="afii10083" unicode="&#x441;" 
d="M401 -21h-380l-21 21v448h380l21 -21v-64h-286v-299h265l21 -21v-64zM368 12v40h-286v344h286v40h-356v-424h356z" />
    <glyph glyph-name="afii10084" unicode="&#x442;" 
d="M273 -21h-94l-21 21l-27 363h-110l-21 21v64h380l21 -21v-64h-129zM240 12l-1 384h129v40h-356v-40h128l29 -384h71z" />
    <glyph glyph-name="afii10085" unicode="&#x443;" 
d="M146 -213h-102l-21 21l109 207l-132 236v197h94l21 -21v-203l79 -134l92 155v203h94l21 -21v-201zM118 -180l250 430v186h-70v-194l-108 -183l-108 183v194h-70v-182l134 -239l-103 -195h75z" />
    <glyph glyph-name="afii10086" unicode="&#x444;" horiz-adv-x="495" 
d="M273 -21h-94l-21 21v92h-137l-21 21v276h129v123h122l21 -21v-102h108l21 -21l30 -276h-158v-113zM292 284h-20l15 -77h29zM135 284h-20l14 -77h29zM82 195v122h56l36 -122h-92zM240 195l-1 122h56l37 -122h-92zM240 12v113h157l-28 252h-130v123h-98v-123h-129v-252h158
v-113h70z" />
    <glyph glyph-name="afii10087" unicode="&#x445;" horiz-adv-x="529" 
d="M151 -21h-98l-21 21l137 254l-105 194h98l21 -21l52 -82l66 103h98l21 -21l-106 -194l138 -254h-98l-21 21l-85 144zM123 12l108 185l109 -185h71l-132 242l100 182h-71l-77 -119l-76 119h-71l99 -182l-131 -242h71z" />
    <glyph glyph-name="afii10088" unicode="&#x446;" horiz-adv-x="529" 
d="M465 -213h-94l-21 21v171h-329l-21 21v448h94l21 -21v-363h171v384h94l21 -21v-363h43l21 -21v-256zM432 -180v232h-64v384h-70v-384h-216v384h-70v-424h350v-192h70z" />
    <glyph glyph-name="afii10089" unicode="&#x447;" 
d="M401 -21h-94l-21 21v156h-265l-21 21v271h94l21 -21v-156h171v177h94l21 -21v-448zM368 12v424h-70v-177h-216v177h-70v-247h286v-177h70z" />
    <glyph glyph-name="afii10090" unicode="&#x448;" horiz-adv-x="495" 
d="M431 -21h-410l-21 21v448h94l21 -21v-363h43v384h94l21 -21v-363h43v384h94l21 -21v-448zM398 12v424h-70v-384h-88v384h-70v-384h-88v384h-70v-424h386z" />
    <glyph glyph-name="afii10091" unicode="&#x449;" horiz-adv-x="559" 
d="M495 -213h-94l-21 21v171h-359l-21 21v448h94l21 -21v-363h43v384h94l21 -21v-363h43v384h94l21 -21v-363h43l21 -21v-256zM462 -180v232h-64v384h-70v-384h-88v384h-70v-384h-88v384h-70v-424h380v-192h70z" />
    <glyph glyph-name="afii10092" unicode="&#x44a;" horiz-adv-x="529" 
d="M465 -21h-316l-21 21v363h-107l-21 21v64h222l21 -21v-156h201l21 -21v-271zM350 156h-107l15 -92h92v92zM210 52v137h152v-137h-152zM432 12v247h-222v177h-198v-40h128v-384h292z" />
    <glyph glyph-name="afii10093" unicode="&#x44b;" horiz-adv-x="529" 
d="M465 -21h-94l-21 21v448h94l21 -21v-448zM332 -21h-311l-21 21v448h94l21 -21v-156h196l21 -21v-271zM205 156h-90l15 -92h75v92zM82 52v137h135v-137h-135zM299 12v247h-217v177h-70v-424h287zM432 12v424h-70v-424h70z" />
    <glyph glyph-name="afii10094" unicode="&#x44c;" horiz-adv-x="371" 
d="M307 -21h-286l-21 21v448h94l21 -21v-156h171l21 -21v-271zM192 156h-77l15 -92h62v92zM82 52v137h122v-137h-122zM274 12v247h-192v177h-70v-424h262z" />
    <glyph glyph-name="afii10095" unicode="&#x44d;" horiz-adv-x="435" 
d="M298 -21h-204l-73 50l-21 21v78h94l21 -21v-43h141v92h-107l-21 21v94h128v92h-141v-64h-94l-21 21v78l73 50h204l73 -68l21 -21v-312zM272 12l66 61v302l-66 61h-195l-65 -44v-60h70v64h186v-137h-128v-70h128v-137h-186v64h-70v-60l65 -44h195z" />
    <glyph glyph-name="afii10096" unicode="&#x44e;" horiz-adv-x="529" 
d="M115 -21h-94l-21 21v448h94l21 -21v-156h43v177h286l21 -21v-448h-286l-21 21v156h-43v-177zM350 363h-77l19 -299h58v299zM240 52v344h122v-344h-122zM82 12v177h88v-177h262v424h-262v-177h-88v177h-70v-424h70z" />
    <glyph glyph-name="afii10097" unicode="&#x44f;" 
d="M141 -21h-97l-21 21l122 220h-124l-21 21v207h380l21 -21v-448h-94l-21 21v201zM286 363h-171l9 -28h162v28zM82 323v73h216v-73h-216zM114 12l156 241h28v-241h70v424h-356v-183h165l-134 -241h71z" />
    <glyph glyph-name="afii10071" unicode="&#x451;" 
d="M337 461h-104l-21 21v94h104l21 -21v-94zM189 461h-104l-21 21v94h104l21 -21v-94zM401 -21h-380l-21 21v448h380l21 -21v-271h-286v-92h265l21 -21v-64zM286 363h-171l15 -92h156v92zM82 259v137h216v-137h-216zM368 12v40h-286v137h286v247h-356v-424h356zM156 494v70
h-80v-70h80zM304 494v70h-80v-70h80z" />
    <glyph glyph-name="afii10099" unicode="&#x452;" 
d="M401 -149h-173l-21 21v94h79v333h-97l-10 -320h-94l-21 21v461h-43l-21 21v94h64v128h104l21 -21v-107h127l21 -21v-94h-148v-72h191l21 -21v-517zM368 -116v493h-212v117h148v70h-148v128h-80v-128h-64v-70h64v-482h70l10 320h142v-378h-79v-70h149z" />
    <glyph glyph-name="afii10100" unicode="&#x453;" 
d="M115 -21h-94l-21 21v448h380l21 -21v-64h-286v-384zM82 12v384h286v40h-356v-424h70z" />
    <glyph glyph-name="afii10101" unicode="&#x454;" horiz-adv-x="435" 
d="M298 -21h-204l-21 21l-73 68v312l73 68h204l73 -50l21 -21v-78h-94l-21 21v43h-141v-92h107l21 -21v-94h-128v-92h141v64h94l21 -21v-78zM273 12l65 44v60h-70v-64h-186v137h128v70h-128v137h186v-64h70v60l-65 44h-195l-66 -61v-302l66 -61h195z" />
    <glyph glyph-name="afii10102" unicode="&#x455;" 
d="M401 -21h-380l-21 21v64h286v92h-265l-21 21v271h380l21 -21v-64h-286v-92h265l21 -21v-271zM368 12v247h-286v137h286v40h-356v-247h286v-137h-286v-40h356z" />
    <glyph glyph-name="afii10103" unicode="&#x456;" horiz-adv-x="179" 
d="M115 589h-94l-21 21v94h94l21 -21v-94zM115 -21h-94l-21 21v448h94l21 -21v-448zM82 12v424h-70v-424h70zM82 622v70h-70v-70h70z" />
    <glyph glyph-name="afii10104" unicode="&#x457;" horiz-adv-x="307" 
d="M243 461h-94l-21 21v94h94l21 -21v-94zM115 461h-94l-21 21v94h94l21 -21v-94zM179 -21h-94l-21 21v448h94l21 -21v-448zM146 12v424h-70v-424h70zM82 494v70h-70v-70h70zM210 494v70h-70v-70h70z" />
    <glyph glyph-name="afii10105" unicode="&#x458;" horiz-adv-x="307" 
d="M243 589h-94l-21 21v94h94l21 -21v-94zM243 -213h-222l-21 21v94h128v546h94l21 -21v-640zM210 -180v616h-70v-546h-128v-70h198zM210 622v70h-70v-70h70z" />
    <glyph glyph-name="afii10106" unicode="&#x459;" horiz-adv-x="657" 
d="M179 -21h-158l-21 21v64h64v384h316l21 -21v-156h171l21 -21v-271h-286l-21 21v363h-107v-384zM478 156h-77l15 -92h62v92zM368 52v137h122v-137h-122zM146 12v384h152v-384h262v247h-192v177h-292v-384h-64v-40h134z" />
    <glyph glyph-name="afii10107" unicode="&#x45a;" horiz-adv-x="593" 
d="M115 -21h-94l-21 21v448h94l21 -21v-156h107v177h94l21 -21v-156h171l21 -21v-271h-286l-21 21v156h-107v-177zM414 156h-77l15 -92h62v92zM304 52v137h122v-137h-122zM82 12v177h152v-177h262v247h-192v177h-70v-177h-152v177h-70v-424h70z" />
    <glyph glyph-name="afii10108" unicode="&#x45b;" 
d="M179 -21h-94l-21 21v461h-43l-21 21v94h64v128h94l21 -21v-107h137l21 -21v-94h-158v-71h201l21 -21v-390h-94l-21 21v299h-107v-320zM146 12v320h152v-320h70v366h-222v116h158v70h-158v128h-70v-128h-64v-70h64v-482h70z" />
    <glyph glyph-name="afii10109" unicode="&#x45c;" horiz-adv-x="401" 
d="M115 -21h-94l-21 21v448h94l21 -21v-92l81 113h97l21 -21l-106 -194l138 -254h-97l-21 21l-113 174v-195zM193 461h-129l-21 21l188 158h106l21 -21zM167 494l140 134h-72l-159 -134h91zM82 12v236l153 -236h70l-132 242l100 182h-71l-120 -168v168h-70v-424h70z" />
    <glyph glyph-name="afii10110" unicode="&#x45e;" 
d="M278 461h-91l-166 158l-21 21h106l75 -64h61l74 64h106l21 -21zM167 -213h-102l-21 21l109 207l-132 236v197h94l21 -21v-203l79 -134l92 155v203h94l21 -21v-201zM139 -180l250 430v186h-70v-194l-108 -183l-108 183v194h-70v-182l134 -239l-103 -195h75zM252 494
l140 134h-72l-74 -64h-69l-75 64h-72l141 -134h81z" />
    <glyph glyph-name="afii10193" unicode="&#x45f;" 
d="M267 -213h-112l-21 21v171h-113l-21 21v448h94l21 -21v-363h171v384h94l21 -21v-448h-134v-192zM234 -180v192h134v424h-70v-384h-216v384h-70v-424h134v-192h88z" />
    <glyph glyph-name="Omegacyrillic" unicode="&#x460;" horiz-adv-x="593" 
d="M529 -21h-508l-21 21v704h94l21 -21v-619h87v399h104l21 -21v-378h87v640h94l21 -21v-704zM496 12v680h-70v-640h-132v399h-80v-399h-132v640h-70v-680h484z" />
    <glyph glyph-name="omegacyrillic" unicode="&#x461;" horiz-adv-x="593" 
d="M529 -21h-508l-21 21v448h94l21 -21v-363h87v256h104l21 -21v-235h87v384h94l21 -21v-448zM496 12v424h-70v-384h-132v256h-80v-256h-132v384h-70v-424h484z" />
    <glyph glyph-name="afii10146" unicode="&#x462;" 
d="M401 -21h-316l-21 21v470h-43l-21 21v90h64v123h94l21 -21v-101h137l21 -21v-90h-158v-72h201l21 -21v-399zM286 284h-107l18 -220h89v220zM146 52v265h152v-265h-152zM368 12v375h-222v117h158v66h-158v122h-70v-123h-64v-66h64v-491h292z" />
    <glyph glyph-name="afii10194" unicode="&#x463;" 
d="M401 -21h-316l-21 21v397h-43l-21 21v94h64v192h104l21 -21v-171h127l21 -21v-94h-148v-62h191l21 -21v-335zM286 220h-97l17 -156h80v156zM156 52v201h142v-201h-142zM368 12v311h-212v107h148v70h-148v192h-80v-192h-64v-70h64v-418h292z" />
    <glyph glyph-name="Eiotifiedcyrillic" unicode="&#x464;" horiz-adv-x="529" 
d="M115 -21h-94l-21 21v704h94l21 -21v-284h43v305h286l21 -21v-158h-94l-21 21v73h-77v-220h107l21 -21v-94h-128v-220h77v94h94l21 -21v-158h-286l-21 21v284h-43v-305zM82 12v305h88v-305h262v134h-70v-94h-122v265h128v70h-128v265h122v-94h70v134h-262v-305h-88v305
h-70v-680h70z" />
    <glyph glyph-name="eiotifiedcyrillic" unicode="&#x465;" horiz-adv-x="529" 
d="M115 -21h-94l-21 21v448h94l21 -21v-156h43v177h286l21 -21v-158h-83l19 -19v-92h43l21 -21v-158h-286l-21 21v156h-43v-177zM273 64h77v92h-77v-92zM273 271h96l-19 19v73h-77v-92zM82 12v177h88v-177h262v134h-70v-94h-122v137h128v70h-128v137h122v-94h70v134h-262
v-177h-88v177h-70v-424h70z" />
    <glyph glyph-name="Yuslittlecyrillic" unicode="&#x466;" horiz-adv-x="495" 
d="M115 -21h-94l-21 21v704h410l21 -21v-704h-94l-21 21v284h-43v-305h-94l-21 21v284h-43v-305zM316 619h-201l18 -220h183v220zM82 387v265h246v-265h-246zM82 12v305h88v-305h70v305h88v-305h70v680h-386v-680h70z" />
    <glyph glyph-name="yuslittlecyrillic" unicode="&#x467;" horiz-adv-x="495" 
d="M115 -21h-94l-21 21v448h410l21 -21v-448h-94l-21 21v156h-43v-177h-94l-21 21v156h-43v-177zM316 363h-201l15 -92h186v92zM82 259v137h246v-137h-246zM82 12v177h88v-177h70v177h88v-177h70v424h-386v-424h70z" />
    <glyph glyph-name="Yuslittleiotifiedcyrillic" unicode="&#x468;" horiz-adv-x="653" 
d="M115 -21h-94l-21 21v704h94l21 -21v-284h43v305h410l21 -21v-704h-94l-21 21v284h-43v-305h-94l-21 21v284h-43v-305h-94l-21 21v284h-43v-305zM474 619h-201l18 -220h183v220zM240 387v265h246v-265h-246zM82 12v305h88v-305h70v305h88v-305h70v305h88v-305h70v680h-386
v-305h-88v305h-70v-680h70z" />
    <glyph glyph-name="yuslittleiotifiedcyrillic" unicode="&#x469;" horiz-adv-x="653" 
d="M115 -21h-94l-21 21v448h94l21 -21v-156h43v177h410l21 -21v-448h-94l-21 21v156h-43v-177h-94l-21 21v156h-43v-177h-94l-21 21v156h-43v-177zM474 363h-201l15 -92h186v92zM240 259v137h246v-137h-246zM82 12v177h88v-177h70v177h88v-177h70v177h88v-177h70v424h-386
v-177h-88v177h-70v-424h70z" />
    <glyph glyph-name="Yusbigcyrillic" unicode="&#x46a;" horiz-adv-x="495" 
d="M115 -21h-94l-21 21v399h158v13h-137l-21 21v271h410l21 -21v-271h-158v-13h137l21 -21v-399h-94l-21 21v284h-43v-305h-94l-21 21v284h-43v-305zM316 619h-201l15 -92h186v92zM82 515v137h246v-137h-246zM82 12v305h88v-305h70v305h88v-305h70v375h-158v58h158v247h-386
v-247h158v-58h-158v-375h70z" />
    <glyph glyph-name="yusbigcyrillic" unicode="&#x46b;" horiz-adv-x="495" 
d="M115 -21h-94l-21 21v222h19l-19 19v207h410l21 -21v-207h-19l19 -19v-222h-94l-21 21v92h-43v-113h-94l-21 21v92h-43v-113zM316 363h-201l9 -28h192v28zM82 323v73h246v-73h-246zM82 12v113h88v-113h70v113h88v-113h70v198h-158v43h158v183h-386v-183h158v-43h-158v-198
h70z" />
    <glyph glyph-name="Yusbigiotifiedcyrillic" unicode="&#x46c;" horiz-adv-x="653" 
d="M115 -21h-94l-21 21v704h94l21 -21v-284h201v13h-137l-21 21v271h410l21 -21v-271h-158v-13h137l21 -21v-399h-94l-21 21v284h-43v-305h-94l-21 21v284h-43v-305h-94l-21 21v284h-43v-305zM474 619h-201l15 -92h186v92zM240 515v137h246v-137h-246zM82 12v305h88v-305h70
v305h88v-305h70v305h88v-305h70v375h-158v58h158v247h-386v-247h158v-58h-246v305h-70v-680h70z" />
    <glyph glyph-name="yusbigiotifiedcyrillic" unicode="&#x46d;" horiz-adv-x="653" 
d="M115 -21h-94l-21 21v448h94l21 -21v-205h62l-19 19v207h410l21 -21v-207h-19l19 -19v-222h-94l-21 21v92h-43v-113h-94l-21 21v92h-43v-113h-94l-21 21v92h-43v-113zM474 363h-201l9 -28h192v28zM240 323v73h246v-73h-246zM82 12v113h88v-113h70v113h88v-113h70v113h88
v-113h70v198h-158v43h158v183h-386v-183h158v-43h-246v226h-70v-424h70z" />
    <glyph glyph-name="Ksicyrillic" unicode="&#x46e;" 
d="M278 717h-92l-165 158l-21 21h106l74 -64h62l74 64h106l21 -21zM358 -149h-316l-21 21v192h286v220h-201l-21 21v94h222v220h-265l-21 21v64h380l21 -21v-704h-286v-13h201l21 -21v-94zM325 -116v70h-222v58h286v680h-356v-40h286v-265h-222v-70h222v-265h-286v-168h292z
M252 750l140 134h-72l-74 -64h-70l-74 64h-72l140 -134h82z" />
    <glyph glyph-name="ksicyrillic" unicode="&#x46f;" 
d="M278 461h-92l-165 158l-21 21h106l74 -64h62l74 64h106l21 -21zM358 -149h-316l-21 21v192h286v92h-201l-21 21v94h222v92h-265l-21 21v64h380l21 -21v-448h-286v-13h201l21 -21v-94zM325 -116v70h-222v58h286v424h-356v-40h286v-137h-222v-70h222v-137h-286v-168h292z
M252 494l140 134h-72l-74 -64h-70l-74 64h-72l140 -134h82z" />
    <glyph glyph-name="Psicyrillic" unicode="&#x470;" horiz-adv-x="495" 
d="M273 -21h-94l-21 21v284h-137l-21 21v399h94l21 -21v-284h43v305h94l21 -21v-284h43v305h94l21 -21v-399h-158v-305zM240 12v305h158v375h-70v-305h-88v305h-70v-305h-88v305h-70v-375h158v-305h70z" />
    <glyph glyph-name="psicyrillic" unicode="&#x471;" horiz-adv-x="495" 
d="M273 -21h-94l-21 21v156h-137l-21 21v271h94l21 -21v-156h43v177h94l21 -21v-156h43v177h94l21 -21v-271h-158v-177zM240 12v177h158v247h-70v-177h-88v177h-70v-177h-88v177h-70v-247h158v-177h70z" />
    <glyph glyph-name="afii10147" unicode="&#x472;" 
d="M401 -21h-380l-21 21v704h380l21 -21v-704zM286 619h-171l18 -220h153v220zM286 284h-171l18 -220h153v220zM82 52v265h216v-265h-216zM82 387v265h216v-265h-216zM368 12v680h-356v-680h356z" />
    <glyph glyph-name="afii10195" unicode="&#x473;" 
d="M401 -21h-380l-21 21v448h380l21 -21v-448zM286 363h-171l15 -92h156v92zM286 156h-171l15 -92h156v92zM82 52v137h216v-137h-216zM82 259v137h216v-137h-216zM368 12v424h-356v-424h356z" />
    <glyph glyph-name="afii10148" unicode="&#x474;" horiz-adv-x="593" 
d="M260 -21h-98l-21 21l-141 257v447h94l21 -21v-459l79 -134l92 155v459h222l21 -21v-64h-128v-373zM232 12l136 258v382h128v40h-198v-450l-108 -183l-108 183v450h-70v-432l136 -248h84z" />
    <glyph glyph-name="afii10196" unicode="&#x475;" horiz-adv-x="593" 
d="M267 -21h-82l-21 21l-164 267v147h94l21 -21v-139l93 -135l65 156v139h235l21 -21v-94h-129v-53zM239 12l128 258v62h129v70h-211v-129l-77 -185l-126 183v131h-70v-132l159 -258h68z" />
    <glyph glyph-name="Izhitsadblgravecyrillic" unicode="&#x476;" horiz-adv-x="593" 
d="M358 738l21 -21h-116l-178 158l-21 21h117zM216 738l21 -21h-122l-21 21l-158 158h106zM281 -21h-98l-21 21l-141 257v447h94l21 -21v-459l79 -134l92 155v459h222l21 -21v-64h-128v-373zM253 12l136 258v382h128v40h-198v-450l-108 -183l-108 183v450h-70v-432l136 -248
h84zM185 750l-148 134h-72l134 -134h86zM327 750l-151 134h-80l151 -134h80z" />
    <glyph glyph-name="izhitsadblgravecyrillic" unicode="&#x477;" horiz-adv-x="593" 
d="M214 418l21 -21h-97l4 -4v-139l87 -134l69 155v122h-40l-173 158l-21 21h117l173 -158l4 -4h171l21 -21v-94h-128v-53l-134 -267h-82l-21 21l-164 267v147h80l-4 4l-161 158h106zM260 12l129 258v62h128v70h-207v-130l-82 -184l-119 183v131h-76v-132l159 -258h68z
M183 430l-146 134h-72l137 -134h81zM323 430l-147 134h-81l147 -134h81z" />
    <glyph glyph-name="Ukcyrillic" unicode="&#x478;" horiz-adv-x="849" 
d="M385 -21h-364l-21 21v704h364l21 -21v-704zM549 -213h-104l-21 21l110 207l-134 244v204h100l21 -21v-203l70 -132l79 153v203h94l21 -21v-206zM264 619h-149l20 -555h129v555zM521 -180l231 440v191h-70v-194l-96 -185l-98 185v194h-76v-189l136 -247l-104 -195h77z
M82 52v600h194v-600h-194zM352 12v680h-340v-680h340z" />
    <glyph glyph-name="ukcyrillic" unicode="&#x479;" horiz-adv-x="849" 
d="M530 -213h-102l-21 21l109 207l-132 236v197h94l21 -21v-203l79 -134l92 155v203h94l21 -21v-201zM371 -21h-350l-21 21v448h350l21 -21v-448zM256 363h-141l19 -299h122v299zM82 52v344h186v-344h-186zM338 12v424h-326v-424h326zM502 -180l250 430v186h-70v-194
l-108 -183l-108 183v194h-70v-182l134 -239l-103 -195h75z" />
    <glyph glyph-name="Omegaroundcyrillic" unicode="&#x47a;" horiz-adv-x="495" 
d="M273 -21h-94l-21 21v40h-137l-21 21v582h158v61h94l21 -21v-40h137l21 -21v-582h-158v-61zM115 143h43v64h94l21 -21l11 -43h32v397h-43v-64h-94l-21 21v43h-43v-397zM240 131v64h-70v-64h-88v442h88v-64h70v64h88v-442h-88zM240 12v61h158v558h-158v61h-70v-61h-158
v-558h158v-61h70z" />
    <glyph glyph-name="omegaroundcyrillic" unicode="&#x47b;" horiz-adv-x="495" 
d="M273 -21h-94l-21 21v39h-137l-21 21v388h129v64h122l21 -21v-43h108l21 -21l30 -388h-158v-60zM115 158h43v64h94l21 -21l11 -43h32l-27 205h-17v-64h-122l-21 21v43h-14v-205zM240 146v64h-70v-64h-88v250h59v-64h98v64h58l33 -250h-90zM240 12v60h157l-28 364h-130v64
h-98v-64h-129v-364h158v-60h70z" />
    <glyph glyph-name="Omegatitlocyrillic" unicode="&#x47c;" horiz-adv-x="593" 
d="M529 -21h-508l-21 21v704h64v128h279v64h101l21 -21v-158h-282v-64h-68v-589h85v399h105l21 -21v-378h88v640h94l21 -21v-704zM496 12v680h-70v-640h-133v399h-81v-399h-130v634h68v64h282v134h-77v-64h-279v-128h-64v-680h484z" />
    <glyph glyph-name="omegatitlocyrillic" unicode="&#x47d;" horiz-adv-x="593" 
d="M186 461h-101l-21 21v158h279v64h101l21 -21v-158h-279v-64zM529 -21h-508l-21 21v448h94l21 -21v-363h87v256h104l21 -21v-235h87v384h94l21 -21v-448zM496 12v424h-70v-384h-132v256h-80v-256h-132v384h-70v-424h484zM153 494v64h279v134h-77v-64h-279v-134h77z" />
    <glyph glyph-name="Otcyrillic" unicode="&#x47e;" horiz-adv-x="593" 
d="M186 717h-101l-21 21v158h380l21 -21v-158h-101l-21 21v43h-16v-64h-104l-21 21v43h-16v-64zM529 -21h-508l-21 21v704h94l21 -21v-619h87v399h104l21 -21v-378h87v640h94l21 -21v-704zM496 12v680h-70v-640h-132v399h-80v-399h-132v640h-70v-680h484zM153 750v64h61v-64
h80v64h61v-64h77v134h-356v-134h77z" />
    <glyph glyph-name="otcyrillic" unicode="&#x47f;" horiz-adv-x="593" 
d="M529 -21h-508l-21 21v448h94l21 -21v-363h87v256h104l21 -21v-235h87v384h94l21 -21v-448zM496 12v424h-70v-384h-132v256h-80v-256h-132v384h-70v-424h484z" />
    <glyph glyph-name="Koppacyrillic" unicode="&#x480;" 
d="M401 -213h-94l-21 21v171h-265l-21 21v704h380l21 -21v-64h-286v-555h265l21 -21v-256zM368 -180v232h-286v600h286v40h-356v-680h286v-192h70z" />
    <glyph glyph-name="koppacyrillic" unicode="&#x481;" 
d="M401 -213h-94l-21 21v171h-265l-21 21v448h380l21 -21v-64h-286v-299h265l21 -21v-256zM368 -180v232h-286v344h286v40h-356v-424h286v-192h70z" />
    <glyph glyph-name="thousandcyrillic" unicode="&#x482;" horiz-adv-x="495" 
d="M273 -21h-94l-21 21v156h-137l-21 21v94h129v141h-108l-21 21v94h129v177h122l21 -21v-156h108l21 -21v-94h-129v-141h108l21 -21l30 -94h-158v-177zM240 12v177h154l-23 70h-132v186h129v70h-129v177h-98v-177h-129v-70h129v-186h-129v-70h158v-177h70z" />
    <glyph glyph-name="afii10050" unicode="&#x490;" 
d="M115 -21h-94l-21 21v704h286v128h94l21 -21v-192h-286v-640zM82 12v640h286v168h-70v-128h-286v-680h70z" />
    <glyph glyph-name="afii10098" unicode="&#x491;" 
d="M115 -21h-94l-21 21v448h286v128h94l21 -21v-192h-286v-384zM82 12v384h286v168h-70v-128h-286v-424h70z" />
    <glyph glyph-name="Ghestrokecyrillic" unicode="&#x492;" horiz-adv-x="529" 
d="M179 -21h-94l-21 21v284h-43l-21 21v94h64v305h380l21 -21v-64h-280v-220h130l21 -21v-94h-157v-305zM146 12v305h157v70h-151v265h280v40h-356v-305h-64v-70h64v-305h70z" />
    <glyph glyph-name="ghestrokecyrillic" unicode="&#x493;" horiz-adv-x="529" 
d="M179 -21h-94l-21 21v156h-43l-21 21v94h64v177h380l21 -21v-64h-280v-92h130l21 -21v-94h-157v-177zM146 12v177h157v70h-151v137h280v40h-356v-177h-64v-70h64v-177h70z" />
    <glyph glyph-name="Ghemiddlehookcyrillic" unicode="&#x494;" 
d="M401 -149h-251l-21 21v94h157v318h-171v-305h-94l-21 21v704h380l21 -21v-64h-286v-220h265l21 -21v-527zM368 -116v503h-286v265h286v40h-356v-680h70v305h216v-363h-157v-70h227z" />
    <glyph glyph-name="ghemiddlehookcyrillic" unicode="&#x495;" 
d="M401 -149h-251l-21 21v94h157v190h-171v-177h-94l-21 21v448h380l21 -21v-64h-286v-92h265l21 -21v-399zM368 -116v375h-286v137h286v40h-356v-424h70v177h216v-235h-157v-70h227z" />
    <glyph glyph-name="Zhedescendercyrillic" unicode="&#x496;" horiz-adv-x="529" 
d="M465 -213h-94l-21 21v171h-43l-21 21v284h-13v-305h-94l-21 21v284h-43v-305h-94l-21 21v327l26 25l-26 25v327h94l21 -21v-284h43v305h94l21 -21v-284h43v305h94l21 -21v-341l-51 -31l21 -21v-226h43l21 -21v-256zM432 -180v232h-64v254l-35 35l65 30v321h-70v-305h-88
v305h-70v-305h-88v305h-70v-310l31 -30l-31 -30v-310h70v305h88v-305h70v305h58v-305h64v-192h70z" />
    <glyph glyph-name="zhedescendercyrillic" unicode="&#x497;" horiz-adv-x="529" 
d="M465 -213h-94l-21 21v171h-43l-21 21v156h-13v-177h-94l-21 21v156h-43v-177h-94l-21 21v200l26 24l-26 24v200h94l21 -21v-156h43v177h94l21 -21v-156h43v177h94l21 -21v-213l-51 -31l21 -21v-98h43l21 -21v-256zM432 -180v232h-64v126l-35 35l65 30v193h-70v-177h-88
v177h-70v-177h-88v177h-70v-183l32 -29l-32 -29v-183h70v177h88v-177h70v177h58v-177h64v-192h70z" />
    <glyph glyph-name="Zedescendercyrillic" unicode="&#x498;" 
d="M272 -149h-251l-21 21v94h129v13h-108l-21 21v64h286v220h-201l-21 21v94h222v220h-265l-21 21v64h380l21 -21v-704h-129v-128zM239 -116v128h129v680h-356v-40h286v-265h-222v-70h222v-265h-286v-40h129v-58h-129v-70h227z" />
    <glyph glyph-name="zedescendercyrillic" unicode="&#x499;" 
d="M272 -149h-251l-21 21v94h129v13h-108l-21 21v64h286v92h-201l-21 21v94h222v92h-265l-21 21v64h380l21 -21v-448h-129v-128zM239 -116v128h129v424h-356v-40h286v-137h-222v-70h222v-137h-286v-40h129v-58h-129v-70h227z" />
    <glyph glyph-name="Kadescendercyrillic" unicode="&#x49a;" 
d="M401 -213h-94l-21 21v203l-171 288v-320h-94l-21 21v704h94l21 -21v-215l145 236h97l21 -21l-183 -324l206 -368v-204zM368 -180v189l-208 371l176 312h-69l-185 -302v302h-70v-680h70v367l216 -365v-194h70z" />
    <glyph glyph-name="kadescendercyrillic" unicode="&#x49b;" horiz-adv-x="401" 
d="M115 -21h-94l-21 21v448h94l21 -21v-92l81 113h97l21 -21l-106 -194l138 -254h-97l-21 21l-113 174v-195zM82 12v236l153 -236h70l-132 242l100 182h-71l-120 -168v168h-70v-424h70z" />
    <glyph glyph-name="Kaverticalstrokecyrillic" unicode="&#x49c;" horiz-adv-x="593" 
d="M115 -21h-94l-21 21v704h94l21 -21v-252h17v152h105l21 -21v-79l130 221h97l21 -21l-175 -321l207 -383h-97l-21 21l-164 284v-121h-104l-21 21v132h-16v-337zM82 12v337h61v-153h80v170l204 -354h70l-201 371l169 309h-70l-170 -289v168h-81v-152h-62v273h-70v-680h70z
" />
    <glyph glyph-name="kaverticalstrokecyrillic" unicode="&#x49d;" horiz-adv-x="529" 
d="M115 -21h-94l-21 21v448h94l21 -21v-124h18v87h108l21 -21v-18l62 97h97l21 -21l-104 -194l136 -254h-97l-21 21l-96 159v-61h-107l-21 21v69h-17v-209zM82 12v209h62v-90h83v106l136 -225h70l-130 242l98 182h-70l-102 -159v101h-84v-87h-63v145h-70v-424h70z" />
    <glyph glyph-name="Kastrokecyrillic" unicode="&#x49e;" horiz-adv-x="529" 
d="M179 -21h-94l-21 21v531h-43l-21 21v91h64v61h94l21 -21v-43h57l21 -21v-24l67 109h97l21 -21l-183 -321l215 -383h-97l-21 21l-177 299v-320zM214 540h-35v-57zM146 12v367l217 -367h69l-208 371l176 309h-69l-107 -173v109h-78v64h-70v-61h-64v-67h64v-552h70zM146 573
h102l-102 -168v168z" />
    <glyph glyph-name="kastrokecyrillic" unicode="&#x49f;" horiz-adv-x="401" 
d="M115 -21h-94l-21 21v461h-43l-21 21v94h64v128h94l21 -21v-107h62l21 -21v-94h-83v-123l71 110h107l21 -21l-114 -194l146 -254h-97l-21 21l-113 174v-195zM82 12v236l153 -236h69l-139 242l107 182h-79l-111 -172v230h83v70h-83v128h-70v-128h-64v-70h64v-482h70z" />
    <glyph glyph-name="Kabashkircyrillic" unicode="&#x4a0;" horiz-adv-x="529" 
d="M179 -21h-94l-21 21v619h-107l-21 21v64h222l21 -21v-215l145 236h97l21 -21l-183 -321l215 -383h-97l-21 21l-177 299v-320zM146 12v367l217 -367h69l-208 371l176 309h-69l-185 -302v302h-198v-40h128v-640h70z" />
    <glyph glyph-name="kabashkircyrillic" unicode="&#x4a1;" 
d="M179 -21h-94l-21 21v363h-107l-21 21v64h222l21 -21v-92l81 113h97l21 -21l-106 -194l138 -254h-97l-21 21l-113 174v-195zM146 12v236l153 -236h70l-132 242l100 182h-71l-120 -168v168h-198v-40h128v-384h70z" />
    <glyph glyph-name="Endescendercyrillic" unicode="&#x4a2;" horiz-adv-x="529" 
d="M465 -213h-94l-21 21v171h-43l-21 21v284h-171v-305h-94l-21 21v704h94l21 -21v-284h171v305h94l21 -21v-619h43l21 -21v-256zM432 -180v232h-64v640h-70v-305h-216v305h-70v-680h70v305h216v-305h64v-192h70z" />
    <glyph glyph-name="endescendercyrillic" unicode="&#x4a3;" horiz-adv-x="529" 
d="M465 -213h-94l-21 21v171h-43l-21 21v156h-171v-177h-94l-21 21v448h94l21 -21v-156h171v177h94l21 -21v-363h43l21 -21v-256zM432 -180v232h-64v384h-70v-177h-216v177h-70v-424h70v177h216v-177h64v-192h70z" />
    <glyph glyph-name="Enghecyrillic" unicode="&#x4a4;" horiz-adv-x="593" 
d="M115 -21h-94l-21 21v704h94l21 -21v-284h171v305h222l21 -21v-64h-128v-640h-94l-21 21v284h-171v-305zM82 12v305h216v-305h70v640h128v40h-198v-305h-216v305h-70v-680h70z" />
    <glyph glyph-name="enghecyrillic" unicode="&#x4a5;" horiz-adv-x="593" 
d="M115 -21h-94l-21 21v448h94l21 -21v-156h171v177h222l21 -21v-64h-128v-384h-94l-21 21v156h-171v-177zM82 12v177h216v-177h70v384h128v40h-198v-177h-216v177h-70v-424h70z" />
    <glyph glyph-name="Pemiddlehookcyrillic" unicode="&#x4a6;" horiz-adv-x="657" 
d="M593 -149h-222l-21 21v94h128v318h-77v-305h-94l-21 21v619h-171v-640h-94l-21 21v704h380l21 -21v-284h171l21 -21v-527zM560 -116v503h-192v305h-356v-680h70v640h216v-640h70v305h122v-363h-128v-70h198z" />
    <glyph glyph-name="pemiddlehookcyrillic" unicode="&#x4a7;" horiz-adv-x="657" 
d="M593 -149h-222l-21 21v94h128v190h-77v-177h-94l-21 21v363h-171v-384h-94l-21 21v448h380l21 -21v-156h171l21 -21v-399zM560 -116v375h-192v177h-356v-424h70v384h216v-384h70v177h122v-235h-128v-70h198z" />
    <glyph glyph-name="Haabkhasiancyrillic" unicode="&#x4a8;" 
d="M272 -213h-122l-21 21v171h-108l-21 21v704h380l21 -21v-704h-129v-192zM286 619h-171l14 -388v232h157v156zM286 348h-14l14 -212v212zM239 52v329h59v-329h-59zM82 52v600h216v-201h-157v-399h-59zM239 -180v192h129v680h-356v-680h129v-192h98z" />
    <glyph glyph-name="haabkhasiancyrillic" unicode="&#x4a9;" 
d="M272 -213h-122l-21 21v171h-108l-21 21v448h380l21 -21v-448h-129v-192zM286 363h-171l14 -222v130h157v92zM286 156h-14l14 -87v87zM239 52v137h59v-137h-59zM82 52v344h216v-137h-157v-207h-59zM239 -180v192h129v424h-356v-424h129v-192h98z" />
    <glyph glyph-name="Esdescendercyrillic" unicode="&#x4aa;" 
d="M272 -149h-251l-21 21v94h129v13h-108l-21 21v704h380l21 -21v-64h-286v-555h265l21 -21v-64h-129v-128zM239 -116v128h129v40h-286v600h286v40h-356v-680h129v-58h-129v-70h227z" />
    <glyph glyph-name="esdescendercyrillic" unicode="&#x4ab;" 
d="M272 -149h-251l-21 21v94h129v13h-108l-21 21v448h380l21 -21v-64h-286v-299h265l21 -21v-64h-129v-128zM239 -116v128h129v40h-286v344h286v40h-356v-424h129v-58h-129v-70h227z" />
    <glyph glyph-name="Tedescendercyrillic" unicode="&#x4ac;" 
d="M337 -213h-104l-21 21v171h-62l-21 21v619h-108l-21 21v64h380l21 -21v-64h-129v-555h44l21 -21v-256zM304 -180v232h-65v600h129v40h-356v-40h129v-640h83v-192h80z" />
    <glyph glyph-name="tedescendercyrillic" unicode="&#x4ad;" 
d="M337 -213h-104l-21 21v171h-62l-21 21v363h-108l-21 21v64h380l21 -21v-64h-129v-299h44l21 -21v-256zM304 -180v232h-65v344h129v40h-356v-40h129v-384h83v-192h80z" />
    <glyph glyph-name="Ustraightcyrillic" unicode="&#x4ae;" horiz-adv-x="593" 
d="M337 -21h-106l-21 21v379l-178 325h98l21 -21l117 -208l129 229h98l21 -21l-179 -325v-379zM304 12v370l171 310h-71l-141 -249l-140 249h-71l170 -310v-370h82z" />
    <glyph glyph-name="ustraightcyrillic" unicode="&#x4af;" 
d="M275 -21h-110l-21 21v191l-144 257h98l21 -21l84 -144l98 165h98l21 -21l-145 -257v-191zM242 12v182l136 242h-70l-109 -185l-108 185h-71l136 -242v-182h86z" />
    <glyph glyph-name="Ustraightstrokecyrillic" unicode="&#x4b0;" horiz-adv-x="593" 
d="M337 -21h-106l-21 21v156h-116l-21 21v94h137v106l-178 327h98l21 -21l117 -208l129 229h98l21 -21l-179 -327v-85h116l21 -21v-94h-137v-177zM304 12v177h137v70h-137v121l171 312h-71l-141 -249l-140 249h-71l170 -312v-121h-137v-70h137v-177h82z" />
    <glyph glyph-name="ustraightstrokecyrillic" unicode="&#x4b1;" 
d="M275 -21h-110l-21 21v39h-114l-21 21v88h135v43l-144 257h98l21 -21l84 -144l98 165h98l21 -21l-145 -257v-22h114l21 -21v-88h-135v-60zM242 12v60h135v64h-135v58l136 242h-70l-109 -185l-108 185h-71l136 -242v-58h-135v-64h135v-60h86z" />
    <glyph glyph-name="Hadescendercyrillic" unicode="&#x4b2;" horiz-adv-x="657" 
d="M602 -213h-94l-21 21v139l-176 324l-160 -292h-98l-21 21l208 383l-176 321h98l21 -21l117 -208l129 229h98l21 -21l-177 -322l231 -427v-147zM569 -180v132l-233 430l171 310h-71l-141 -249l-140 249h-71l170 -309l-202 -371h71l172 314l204 -376v-130h70z" />
    <glyph glyph-name="hadescendercyrillic" unicode="&#x4b3;" horiz-adv-x="593" 
d="M538 -213h-94l-21 21v139l-111 197l-97 -165h-98l-21 21l137 254l-105 194h98l21 -21l52 -82l66 103h98l21 -21l-106 -195l160 -298v-147zM505 -180v132l-162 301l100 183h-71l-77 -119l-76 119h-71l99 -182l-131 -242h71l108 185l140 -247v-130h70z" />
    <glyph glyph-name="Tetsecyrillic" unicode="&#x4b4;" horiz-adv-x="593" 
d="M529 -213h-94l-21 21v171h-329l-21 21v619h-43l-21 21v64h222l21 -21v-64h-64v-555h171v640h94l21 -21v-619h43l21 -21v-256zM496 -180v232h-64v640h-70v-640h-216v600h64v40h-198v-40h64v-640h350v-192h70z" />
    <glyph glyph-name="tetsecyrillic" unicode="&#x4b5;" horiz-adv-x="593" 
d="M529 -213h-94l-21 21v171h-329l-21 21v363h-43l-21 21v64h222l21 -21v-64h-64v-299h171v384h94l21 -21v-363h43l21 -21v-256zM496 -180v232h-64v384h-70v-384h-216v344h64v40h-198v-40h64v-384h350v-192h70z" />
    <glyph glyph-name="Chedescendercyrillic" unicode="&#x4b6;" horiz-adv-x="529" 
d="M465 -213h-94l-21 21v171h-43l-21 21v284h-265l-21 21v399h94l21 -21v-284h171v305h94l21 -21v-619h43l21 -21v-256zM432 -180v232h-64v640h-70v-305h-216v305h-70v-375h286v-305h64v-192h70z" />
    <glyph glyph-name="chedescendercyrillic" unicode="&#x4b7;" horiz-adv-x="529" 
d="M465 -213h-94l-21 21v171h-43l-21 21v156h-265l-21 21v271h94l21 -21v-156h171v177h94l21 -21v-363h43l21 -21v-256zM432 -180v232h-64v384h-70v-177h-216v177h-70v-247h286v-177h64v-192h70z" />
    <glyph glyph-name="Cheverticalstrokecyrillic" unicode="&#x4b8;" 
d="M401 -21h-94l-21 21v284h-19v-128h-112l-21 21v107h-113l-21 21v399h94l21 -21v-284h19v128h112l21 -21v-107h19v305h94l21 -21v-704zM368 12v680h-70v-305h-64v128h-88v-128h-64v305h-70v-375h134v-128h88v128h64v-305h70z" />
    <glyph glyph-name="cheverticalstrokecyrillic" unicode="&#x4b9;" 
d="M401 -21h-94l-21 21v156h-19v-128h-112l-21 21v107h-113l-21 21v271h94l21 -21v-156h19v128h112l21 -21v-107h19v177h94l21 -21v-448zM368 12v424h-70v-177h-64v128h-88v-128h-64v177h-70v-247h134v-128h88v128h64v-177h70z" />
    <glyph glyph-name="Shhacyrillic" unicode="&#x4ba;" 
d="M115 -21h-94l-21 21v704h94l21 -21v-284h265l21 -21v-399h-94l-21 21v284h-171v-305zM82 12v305h216v-305h70v375h-286v305h-70v-680h70z" />
    <glyph glyph-name="shhacyrillic" unicode="&#x4bb;" 
d="M115 -21h-94l-21 21v448h94l21 -21v-156h265l21 -21v-271h-94l-21 21v156h-171v-177zM82 12v177h216v-177h70v247h-286v177h-70v-424h70z" />
    <glyph glyph-name="Cheabkhasiancyrillic" unicode="&#x4bc;" horiz-adv-x="529" 
d="M465 -21h-379l-21 21v284h-108l-21 21v222h94l21 -21v-107h14v305h379l21 -21v-399h-273v-220h252l21 -21v-64zM350 619h-158l18 -220h140v220zM159 387v265h203v-265h-203zM432 12v40h-273v265h273v375h-355v-305h-59v128h-70v-198h129v-305h355z" />
    <glyph glyph-name="cheabkhasiancyrillic" unicode="&#x4bd;" horiz-adv-x="529" 
d="M465 -21h-379l-21 21v156h-108l-21 21v207h94l21 -21v-92h14v177h379l21 -21v-271h-273v-92h252l21 -21v-64zM350 363h-158l15 -92h143v92zM159 259v137h203v-137h-203zM432 12v40h-273v137h273v247h-355v-177h-59v113h-70v-183h129v-177h355z" />
    <glyph glyph-name="Chedescenderabkhasiancyrillic" unicode="&#x4be;" horiz-adv-x="529" 
d="M336 -213h-106l-21 21v171h-123l-21 21v284h-108l-21 21v222h94l21 -21v-107h14v305h379l21 -21v-399h-273v-220h252l21 -21v-64h-129v-192zM350 619h-158l18 -220h140v220zM159 387v265h203v-265h-203zM303 -180v192h129v40h-273v265h273v375h-355v-305h-59v128h-70
v-198h129v-305h144v-192h82z" />
    <glyph glyph-name="chedescenderabkhasiancyrillic" unicode="&#x4bf;" horiz-adv-x="529" 
d="M336 -213h-106l-21 21v171h-123l-21 21v156h-108l-21 21v207h94l21 -21v-92h14v177h379l21 -21v-271h-273v-92h252l21 -21v-64h-129v-192zM350 363h-158l15 -92h143v92zM159 259v137h203v-137h-203zM303 -180v192h129v40h-273v137h273v247h-355v-177h-59v113h-70v-183
h129v-177h144v-192h82z" />
    <glyph glyph-name="palochkacyrillic" unicode="&#x4c0;" horiz-adv-x="179" 
d="M115 -21h-94l-21 21v704h94l21 -21v-704zM82 12v680h-70v-680h70z" />
    <glyph glyph-name="Zhebrevecyrillic" unicode="&#x4c1;" horiz-adv-x="495" 
d="M264 717h-76l-103 73l-21 21v106l115 -85h52l115 85l21 -21v-106zM115 -21h-94l-21 21v327l26 25l-26 25v327h94l21 -21v-284h43v305h94l21 -21v-284h43v305h94l21 -21v-327q-13 -12 -25 -25l4 -4l21 -21v-327h-94l-21 21v284h-43v-305h-94l-21 21v284h-43v-305zM82 12
v305h88v-305h70v305h88v-305h70v310l-31 30l31 30v310h-70v-305h-88v305h-70v-305h-88v305h-70v-310l31 -30l-31 -30v-310h70zM239 750l95 67v76l-99 -73h-60l-99 73v-76l95 -67h68z" />
    <glyph glyph-name="zhebrevecyrillic" unicode="&#x4c2;" horiz-adv-x="495" 
d="M264 461h-76l-103 73l-21 21v106l115 -85h52l115 85l21 -21v-106zM115 -21h-94l-21 21v200l26 24l-26 24v200h94l21 -21v-156h43v177h94l21 -21v-156h43v177h94l21 -21v-200q-12 -12 -25 -23l4 -4l21 -21v-200h-94l-21 21v156h-43v-177h-94l-21 21v156h-43v-177zM82 12
v177h88v-177h70v177h88v-177h70v183l-32 29l32 29v183h-70v-177h-88v177h-70v-177h-88v177h-70v-183l32 -29l-32 -29v-183h70zM239 494l95 67v76l-99 -73h-60l-99 73v-76l95 -67h68z" />
    <glyph glyph-name="Kahookcyrillic" unicode="&#x4c3;" 
d="M401 -149h-244l-21 21v94h150v45l-171 288v-320h-94l-21 21v704h94l21 -21v-215l145 236h97l21 -21l-183 -323l206 -368v-141zM368 -116v126l-208 371l176 311h-69l-185 -302v302h-70v-680h70v367l216 -365v-60h-150v-70h220z" />
    <glyph glyph-name="kahookcyrillic" unicode="&#x4c4;" horiz-adv-x="401" 
d="M337 -149h-252l-21 21v94h158v45l-107 164v-196h-94l-21 21v448h94l21 -21v-92l81 113h97l21 -21l-106 -197l129 -240v-139zM304 -116v124l-131 243l100 185h-71l-120 -168v168h-70v-424h70v235l152 -232v-61h-158v-70h228z" />
    <glyph glyph-name="Enhookcyrillic" unicode="&#x4c7;" 
d="M401 -149h-246l-21 21v94h152v318h-171v-305h-94l-21 21v704h94l21 -21v-284h171v305h94l21 -21v-832zM368 -116v808h-70v-305h-216v305h-70v-680h70v305h216v-363h-152v-70h222z" />
    <glyph glyph-name="enhookcyrillic" unicode="&#x4c8;" 
d="M401 -149h-246l-21 21v94h152v190h-171v-177h-94l-21 21v448h94l21 -21v-156h171v177h94l21 -21v-576zM368 -116v552h-70v-177h-216v177h-70v-424h70v177h216v-235h-152v-70h222z" />
    <glyph glyph-name="Chekhakassiancyrillic" unicode="&#x4cb;" 
d="M337 -213h-106l-21 21v256h76v220h-265l-21 21v399h94l21 -21v-284h171v305h94l21 -21v-704h-64v-192zM304 -180v192h64v680h-70v-305h-216v305h-70v-375h286v-265h-76v-232h82z" />
    <glyph glyph-name="chekhakassiancyrillic" unicode="&#x4cc;" 
d="M337 -213h-106l-21 21v256h76v92h-265l-21 21v271h94l21 -21v-156h171v177h94l21 -21v-448h-64v-192zM304 -180v192h64v424h-70v-177h-216v177h-70v-247h286v-137h-76v-232h82z" />
    <glyph glyph-name="Abrevecyrillic" unicode="&#x4d0;" 
d="M256 717h-90l-81 73l-21 21v106l95 -85h62l95 85l21 -21v-106zM115 -21h-94l-21 21v704h380l21 -21v-704h-94l-21 21v284h-171v-305zM286 619h-171l18 -220h153v220zM82 387v265h216v-265h-216zM82 12v305h216v-305h70v680h-356v-680h70zM230 750l74 66v74l-78 -70h-72
l-78 70v-74l74 -66h80z" />
    <glyph glyph-name="abrevecyrillic" unicode="&#x4d1;" 
d="M260 461h-98l-21 21l-77 73v106l93 -85h66l93 85l21 -21v-106zM401 -21h-380l-21 21v271h286v92h-265l-21 21v64h380l21 -21v-448zM286 156h-171l15 -92h156v92zM82 52v137h216v-137h-216zM368 12v424h-356v-40h286v-137h-286v-247h356zM234 494l70 66v74l-76 -70h-76
l-76 70v-74l70 -66h88z" />
    <glyph glyph-name="Adieresiscyrillic" unicode="&#x4d2;" 
d="M115 -21h-94l-21 21v704h380l21 -21v-704h-94l-21 21v284h-171v-305zM286 619h-171l18 -220h153v220zM82 387v265h216v-265h-216zM82 12v305h216v-305h70v680h-356v-680h70z" />
    <glyph glyph-name="adieresiscyrillic" unicode="&#x4d3;" 
d="M337 461h-104l-21 21v94h104l21 -21v-94zM189 461h-104l-21 21v94h104l21 -21v-94zM401 -21h-380l-21 21v271h286v92h-265l-21 21v64h380l21 -21v-448zM286 156h-171l15 -92h156v92zM82 52v137h216v-137h-216zM368 12v424h-356v-40h286v-137h-286v-247h356zM156 494v70
h-80v-70h80zM304 494v70h-80v-70h80z" />
    <glyph glyph-name="Aiecyrillic" unicode="&#x4d4;" 
d="M115 -21h-94l-21 21v704h380l21 -21v-704h-94l-21 21v284h-171v-305zM286 619h-171l18 -220h153v220zM82 387v265h216v-265h-216zM82 12v305h216v-305h70v680h-356v-680h70z" />
    <glyph glyph-name="aiecyrillic" unicode="&#x4d5;" 
d="M401 -21h-380l-21 21v271h129v92h-108l-21 21v64h380l21 -21v-271h-129v-92h108l21 -21v-64zM286 363h-14l14 -87v87zM129 156h-14l14 -87v87zM82 52v137h59v-137h-59zM239 259v137h59v-137h-59zM368 12v40h-129v137h129v247h-356v-40h129v-137h-129v-247h356z" />
    <glyph glyph-name="Iebrevecyrillic" unicode="&#x4d6;" 
d="M260 717h-98l-21 21l-77 73v106l93 -85h66l93 85l21 -21v-106zM401 -21h-380l-21 21v704h380l21 -21v-64h-286v-220h201l21 -21v-94h-222v-220h265l21 -21v-64zM368 12v40h-286v265h222v70h-222v265h286v40h-356v-680h356zM234 750l70 66v74l-76 -70h-76l-76 70v-74
l70 -66h88z" />
    <glyph glyph-name="iebrevecyrillic" unicode="&#x4d7;" 
d="M260 461h-98l-21 21l-77 73v106l93 -85h66l93 85l21 -21v-106zM401 -21h-380l-21 21v448h380l21 -21v-271h-286v-92h265l21 -21v-64zM286 363h-171l15 -92h156v92zM82 259v137h216v-137h-216zM368 12v40h-286v137h286v247h-356v-424h356zM234 494l70 66v74l-76 -70h-76
l-76 70v-74l70 -66h88z" />
    <glyph glyph-name="Schwacyrillic" unicode="&#x4d8;" 
d="M401 -21h-380l-21 21v399h286v220h-265l-21 21v64h380l21 -21v-704zM286 284h-171l18 -220h153v220zM82 52v265h216v-265h-216zM368 12v680h-356v-40h286v-265h-286v-375h356z" />
    <glyph glyph-name="afii10846" unicode="&#x4d9;" 
d="M401 -21h-380l-21 21v271h286v92h-265l-21 21v64h380l21 -21v-448zM286 156h-171l15 -92h156v92zM82 52v137h216v-137h-216zM368 12v424h-356v-40h286v-137h-286v-247h356z" />
    <glyph glyph-name="Schwadieresiscyrillic" unicode="&#x4da;" 
d="M337 717h-104l-21 21v94h104l21 -21v-94zM189 717h-104l-21 21v94h104l21 -21v-94zM401 -21h-380l-21 21v399h286v220h-265l-21 21v64h380l21 -21v-704zM286 284h-171l18 -220h153v220zM82 52v265h216v-265h-216zM368 12v680h-356v-40h286v-265h-286v-375h356zM156 750
v70h-80v-70h80zM304 750v70h-80v-70h80z" />
    <glyph glyph-name="schwadieresiscyrillic" unicode="&#x4db;" 
d="M337 461h-104l-21 21v94h104l21 -21v-94zM189 461h-104l-21 21v94h104l21 -21v-94zM401 -21h-380l-21 21v271h286v92h-265l-21 21v64h380l21 -21v-448zM286 156h-171l15 -92h156v92zM82 52v137h216v-137h-216zM368 12v424h-356v-40h286v-137h-286v-247h356zM156 494v70
h-80v-70h80zM304 494v70h-80v-70h80z" />
    <glyph glyph-name="Zhedieresiscyrillic" unicode="&#x4dc;" horiz-adv-x="495" 
d="M367 717h-124l-21 21v94h124l21 -21v-94zM209 717h-124l-21 21v94h124l21 -21v-94zM115 -21h-94l-21 21v327l26 25l-26 25v327h94l21 -21v-284h43v305h94l21 -21v-284h43v305h94l21 -21v-327q-13 -12 -25 -25l4 -4l21 -21v-327h-94l-21 21v284h-43v-305h-94l-21 21v284
h-43v-305zM82 12v305h88v-305h70v305h88v-305h70v310l-31 30l31 30v310h-70v-305h-88v305h-70v-305h-88v305h-70v-310l31 -30l-31 -30v-310h70zM176 750v70h-100v-70h100zM334 750v70h-100v-70h100z" />
    <glyph glyph-name="zhedieresiscyrillic" unicode="&#x4dd;" horiz-adv-x="495" 
d="M367 461h-124l-21 21v94h124l21 -21v-94zM209 461h-124l-21 21v94h124l21 -21v-94zM115 -21h-94l-21 21v200l26 24l-26 24v200h94l21 -21v-156h43v177h94l21 -21v-156h43v177h94l21 -21v-200q-12 -12 -25 -23l4 -4l21 -21v-200h-94l-21 21v156h-43v-177h-94l-21 21v156
h-43v-177zM82 12v177h88v-177h70v177h88v-177h70v183l-32 29l32 29v183h-70v-177h-88v177h-70v-177h-88v177h-70v-183l32 -29l-32 -29v-183h70zM176 494v70h-100v-70h100zM334 494v70h-100v-70h100z" />
    <glyph glyph-name="Zedieresiscyrillic" unicode="&#x4de;" 
d="M337 717h-104l-21 21v94h104l21 -21v-94zM189 717h-104l-21 21v94h104l21 -21v-94zM401 -21h-380l-21 21v64h286v220h-201l-21 21v94h222v220h-265l-21 21v64h380l21 -21v-704zM368 12v680h-356v-40h286v-265h-222v-70h222v-265h-286v-40h356zM156 750v70h-80v-70h80z
M304 750v70h-80v-70h80z" />
    <glyph glyph-name="zedieresiscyrillic" unicode="&#x4df;" 
d="M337 461h-104l-21 21v94h104l21 -21v-94zM189 461h-104l-21 21v94h104l21 -21v-94zM401 -21h-380l-21 21v64h286v92h-201l-21 21v94h222v92h-265l-21 21v64h380l21 -21v-448zM368 12v424h-356v-40h286v-137h-222v-70h222v-137h-286v-40h356zM156 494v70h-80v-70h80z
M304 494v70h-80v-70h80z" />
    <glyph glyph-name="Dzeabkhasiancyrillic" unicode="&#x4e0;" 
d="M401 -21h-380l-21 21v64h286v220h-265l-21 21v89l242 225h-221l-21 21v64h380l21 -21v-81l-240 -203h219l21 -21v-399zM368 12v375h-286l286 242v63h-356v-40h284l-284 -263v-72h286v-265h-286v-40h356z" />
    <glyph glyph-name="dzeabkhasiancyrillic" unicode="&#x4e1;" 
d="M401 -149h-380l-21 21v94h286v190h-265l-21 21v81l240 203h-219l-21 21v94h380l21 -21v-85l-239 -199h218l21 -21v-399zM368 -116v375h-286l286 238v67h-356v-70h286l-286 -242v-63h286v-235h-286v-70h356z" />
    <glyph glyph-name="Imacroncyrillic" unicode="&#x4e2;" 
d="M401 717h-380l-21 21v94h380l21 -21v-94zM115 -21h-94l-21 21v704h94l21 -21v-278l177 299h88l21 -21v-704h-95l-21 21v470l-170 -288v-203zM82 12v194l215 365v-559h71v680h-69l-217 -367v367h-70v-680h70zM368 750v70h-356v-70h356z" />
    <glyph glyph-name="imacroncyrillic" unicode="&#x4e3;" 
d="M401 461h-380l-21 21v94h380l21 -21v-94zM115 -21h-94l-21 21v448h94l21 -21v-196l171 144v73h94l21 -21v-448h-94l-21 21v260l-171 -144v-137zM82 12v131l216 182v-313h70v424h-70v-67l-216 -182v249h-70v-424h70zM368 494v70h-356v-70h356z" />
    <glyph glyph-name="Idieresiscyrillic" unicode="&#x4e4;" 
d="M337 717h-106l-21 21v94h106l21 -21v-94zM190 717h-105l-21 21v94h105l21 -21v-94zM115 -21h-94l-21 21v704h94l21 -21v-278l177 299h88l21 -21v-704h-95l-21 21v470l-170 -288v-203zM82 12v194l215 365v-559h71v680h-69l-217 -367v367h-70v-680h70zM157 750v70h-81v-70
h81zM304 750v70h-82v-70h82z" />
    <glyph glyph-name="idieresiscyrillic" unicode="&#x4e5;" 
d="M337 461h-106l-21 21v94h106l21 -21v-94zM191 461h-106l-21 21v94h106l21 -21v-94zM115 -21h-94l-21 21v448h94l21 -21v-196l171 144v73h94l21 -21v-448h-94l-21 21v260l-171 -144v-137zM82 12v131l216 182v-313h70v424h-70v-67l-216 -182v249h-70v-424h70zM158 494v70
h-82v-70h82zM304 494v70h-82v-70h82z" />
    <glyph glyph-name="Odieresiscyrillic" unicode="&#x4e6;" 
d="M337 717h-104l-21 21v94h104l21 -21v-94zM189 717h-104l-21 21v94h104l21 -21v-94zM401 -21h-380l-21 21v704h380l21 -21v-704zM286 619h-171l20 -555h151v555zM82 52v600h216v-600h-216zM368 12v680h-356v-680h356zM156 750v70h-80v-70h80zM304 750v70h-80v-70h80z" />
    <glyph glyph-name="odieresiscyrillic" unicode="&#x4e7;" 
d="M337 461h-104l-21 21v94h104l21 -21v-94zM189 461h-104l-21 21v94h104l21 -21v-94zM401 -21h-380l-21 21v448h380l21 -21v-448zM286 363h-171l19 -299h152v299zM82 52v344h216v-344h-216zM368 12v424h-356v-424h356zM156 494v70h-80v-70h80zM304 494v70h-80v-70h80z" />
    <glyph glyph-name="Obarredcyrillic" unicode="&#x4e8;" 
d="M401 -21h-380l-21 21v704h380l21 -21v-704zM286 619h-171l18 -220h153v220zM286 284h-171l18 -220h153v220zM82 52v265h216v-265h-216zM82 387v265h216v-265h-216zM368 12v680h-356v-680h356z" />
    <glyph glyph-name="obarredcyrillic" unicode="&#x4e9;" 
d="M401 -21h-380l-21 21v448h380l21 -21v-448zM286 363h-171l15 -92h156v92zM286 156h-171l15 -92h156v92zM82 52v137h216v-137h-216zM82 259v137h216v-137h-216zM368 12v424h-356v-424h356z" />
    <glyph glyph-name="Obarreddieresiscyrillic" unicode="&#x4ea;" 
d="M337 717h-104l-21 21v94h104l21 -21v-94zM189 717h-104l-21 21v94h104l21 -21v-94zM401 -21h-380l-21 21v704h380l21 -21v-704zM286 619h-171l18 -220h153v220zM286 284h-171l18 -220h153v220zM82 52v265h216v-265h-216zM82 387v265h216v-265h-216zM368 12v680h-356v-680
h356zM156 750v70h-80v-70h80zM304 750v70h-80v-70h80z" />
    <glyph glyph-name="obarreddieresiscyrillic" unicode="&#x4eb;" 
d="M337 461h-104l-21 21v94h104l21 -21v-94zM189 461h-104l-21 21v94h104l21 -21v-94zM401 -21h-380l-21 21v448h380l21 -21v-448zM286 363h-171l15 -92h156v92zM286 156h-171l15 -92h156v92zM82 52v137h216v-137h-216zM82 259v137h216v-137h-216zM368 12v424h-356v-424h356
zM156 494v70h-80v-70h80zM304 494v70h-80v-70h80z" />
    <glyph glyph-name="Umacroncyrillic" unicode="&#x4ee;" 
d="M410 717h-380l-21 21v94h380l21 -21v-94zM119 -21h-98l-21 21l141 260l-132 242v202h94l21 -21v-203l79 -134l92 155v203h94l21 -21v-202zM91 12l286 493v187h-70v-194l-108 -183l-108 183v194h-70v-187l134 -245l-135 -248h71zM377 750v70h-356v-70h356z" />
    <glyph glyph-name="umacroncyrillic" unicode="&#x4ef;" 
d="M401 461h-380l-21 21v94h380l21 -21v-94zM146 -213h-102l-21 21l109 207l-132 236v197h94l21 -21v-203l79 -134l92 155v203h94l21 -21v-201zM118 -180l250 430v186h-70v-194l-108 -183l-108 183v194h-70v-182l134 -239l-103 -195h75zM368 494v70h-356v-70h356z" />
    <glyph glyph-name="Udieresiscyrillic" unicode="&#x4f0;" 
d="M346 717h-106l-21 21v94h106l21 -21v-94zM200 717h-106l-21 21v94h106l21 -21v-94zM119 -21h-98l-21 21l141 260l-132 242v202h94l21 -21v-203l79 -134l92 155v203h94l21 -21v-202zM91 12l286 493v187h-70v-194l-108 -183l-108 183v194h-70v-187l134 -245l-135 -248h71z
M167 750v70h-82v-70h82zM313 750v70h-82v-70h82z" />
    <glyph glyph-name="udieresiscyrillic" unicode="&#x4f1;" 
d="M337 461h-106l-21 21v94h106l21 -21v-94zM191 461h-106l-21 21v94h106l21 -21v-94zM146 -213h-102l-21 21l109 207l-132 236v197h94l21 -21v-203l79 -134l92 155v203h94l21 -21v-201zM118 -180l250 430v186h-70v-194l-108 -183l-108 183v194h-70v-182l134 -239l-103 -195
h75zM158 494v70h-82v-70h82zM304 494v70h-82v-70h82z" />
    <glyph glyph-name="Uhungarumlautcyrillic" unicode="&#x4f2;" horiz-adv-x="529" 
d="M337 717h-122l-12 12q-6 -6 -13 -12h-117l-21 21l178 158h116l10 -10l12 10h106l21 -21zM119 -21h-98l-21 21l141 260l-132 242v202h94l21 -21v-203l79 -134l92 155v203h94l21 -21v-202zM91 12l286 493v187h-70v-194l-108 -183l-108 183v194h-70v-187l134 -245l-135 -248
h71zM164 750l151 134h-80l-151 -134h80zM311 750l134 134h-72l-148 -134h86z" />
    <glyph glyph-name="uhungarumlautcyrillic" unicode="&#x4f3;" horiz-adv-x="529" 
d="M328 461h-122l-12 12l-14 -12h-116l-21 21l178 158h116l10 -10l12 10h106l21 -21zM146 -213h-102l-21 21l109 207l-132 236v197h94l21 -21v-203l79 -134l92 155v203h94l21 -21v-201zM118 -180l250 430v186h-70v-194l-108 -183l-108 183v194h-70v-182l134 -239l-103 -195
h75zM154 494l151 134h-79l-151 -134h79zM302 494l134 134h-72l-148 -134h86z" />
    <glyph glyph-name="Chedieresiscyrillic" unicode="&#x4f4;" 
d="M337 717h-106l-21 21v94h106l21 -21v-94zM191 717h-106l-21 21v94h106l21 -21v-94zM401 -21h-94l-21 21v284h-265l-21 21v399h94l21 -21v-284h171v305h94l21 -21v-704zM368 12v680h-70v-305h-216v305h-70v-375h286v-305h70zM158 750v70h-82v-70h82zM304 750v70h-82v-70
h82z" />
    <glyph glyph-name="chedieresiscyrillic" unicode="&#x4f5;" 
d="M337 461h-106l-21 21v94h106l21 -21v-94zM191 461h-106l-21 21v94h106l21 -21v-94zM401 -21h-94l-21 21v156h-265l-21 21v271h94l21 -21v-156h171v177h94l21 -21v-448zM368 12v424h-70v-177h-216v177h-70v-247h286v-177h70zM158 494v70h-82v-70h82zM304 494v70h-82v-70
h82z" />
    <glyph glyph-name="Yerudieresiscyrillic" unicode="&#x4f8;" horiz-adv-x="529" 
d="M332 717h-106l-21 21v94h106l21 -21v-94zM187 717h-102l-21 21v94h102l21 -21v-94zM465 -21h-94l-21 21v704h94l21 -21v-704zM332 -21h-311l-21 21v704h94l21 -21v-284h196l21 -21v-399zM205 284h-90l18 -220h72v220zM82 52v265h135v-265h-135zM299 12v375h-217v305h-70
v-680h287zM432 12v680h-70v-680h70zM154 750v70h-78v-70h78zM299 750v70h-82v-70h82z" />
    <glyph glyph-name="yerudieresiscyrillic" unicode="&#x4f9;" horiz-adv-x="529" 
d="M332 461h-106l-21 21v94h106l21 -21v-94zM187 461h-102l-21 21v94h102l21 -21v-94zM465 -21h-94l-21 21v448h94l21 -21v-448zM332 -21h-311l-21 21v448h94l21 -21v-156h196l21 -21v-271zM205 156h-90l15 -92h75v92zM82 52v137h135v-137h-135zM299 12v247h-217v177h-70
v-424h287zM432 12v424h-70v-424h70zM154 494v70h-78v-70h78zM299 494v70h-82v-70h82z" />
    <glyph glyph-name="emdash" unicode="&#x2014;" horiz-adv-x="405" 
d="M-15 305v94h350l21 -21v-94l-329 -21l-21 21zM-3 317h326v70h-326v-70z" />
    <glyph glyph-name="quoteleft" unicode="&#x2018;" horiz-adv-x="213" 
d="M23 561l-38 75v83h94l21 -21v-75l41 -83l-76 -21l-21 21zM30 573h71l-34 68v66h-70v-68z" />
    <glyph glyph-name="quoteright" unicode="&#x2019;" horiz-adv-x="213" 
d="M8 561l41 83v75h94l21 -21v-83l-38 -75l-76 -21l-21 21zM27 573h71l33 66v68h-70v-66z" />
    <glyph glyph-name="quotesinglbase" unicode="&#x201a;" horiz-adv-x="149" 
d="M-15 -79v158h94l21 -21v-158l-73 -21l-21 21zM-3 -67h70v134h-70v-134z" />
    <glyph glyph-name="quoteleftreversed" unicode="&#x201b;" horiz-adv-x="149" 
d="M-15 561v158h94l21 -21v-158l-73 -21l-21 21zM-3 573h70v134h-70v-134z" />
    <glyph glyph-name="quotedblleft" unicode="&#x201c;" horiz-adv-x="341" 
d="M151 561l-38 75v83h94l21 -21v-75l41 -83l-76 -21l-21 21zM23 561l-38 75v83h94l21 -21v-75l41 -83l-76 -21l-21 21zM30 573h71l-34 68v66h-70v-68zM158 573h71l-34 68v66h-70v-68z" />
    <glyph glyph-name="quotedblright" unicode="&#x201d;" horiz-adv-x="341" 
d="M8 561l41 83v75h94l21 -21v-80l13 26v75h94l21 -21v-83l-38 -75l-76 -21l-21 21l-20 20l-11 -20l-76 -21l-21 21zM27 573h71l33 66v68h-70v-66zM155 573h71l33 66v68h-70v-66z" />
    <glyph glyph-name="quotedblbase" unicode="&#x201e;" horiz-adv-x="277" 
d="M113 -79v158h94l21 -21v-158l-73 -21l-21 21zM-15 -79v158h94l21 -21v-158l-73 -21l-21 21zM-3 -67h70v134h-70v-134zM125 -67h70v134h-70v-134z" />
    <glyph glyph-name="dagger" unicode="&#x2020;" horiz-adv-x="277" 
d="M-15 497v94h64v128h94l21 -21v-107h43l21 -21v-94h-64v-512h-94l-21 21v480l-22 -10l-21 21zM100 527h13v13h-13v-13zM-3 509h64v-512h70v512h64v70h-64v128h-70v-128h-64v-70zM125 573v-58h-58v58h58z" />
    <glyph glyph-name="bullet" unicode="&#x2022;" horiz-adv-x="277" 
d="M85 220q-33 0 -56 22l-21 21h-1v1q-22 23 -22 56v64q0 32 22 55q24 24 57 24h64q32 0 56 -23l21 -22q23 -23 23 -55v-64q0 -33 -24 -57q-23 -22 -55 -22h-64zM64 253h64q27 0 47 19q20 20 20 48v64q0 27 -20 47t-47 20h-64q-28 0 -48 -20q-19 -20 -19 -47v-64
q0 -28 19 -48q20 -19 48 -19z" />
    <glyph glyph-name="ellipsis" unicode="&#x2026;" horiz-adv-x="405" 
d="M241 -15v94h94l21 -21v-94l-73 -21l-21 21zM113 -15v94h94l21 -21v-94l-73 -21l-21 21zM-15 -15v94h94l21 -21v-94l-73 -21l-21 21zM-3 -3h70v70h-70v-70zM125 -3h70v70h-70v-70zM253 -3h70v70h-70v-70z" />
    <glyph glyph-name="guilsinglleft" unicode="&#x2039;" horiz-adv-x="277" 
d="M-21 320l228 228l1 -111l-108 -112l107 -127l21 -21v-106l-21 21zM-4 320l199 -199v72l-127 127l127 127v72z" />
    <glyph glyph-name="guilsinglright" unicode="&#x203a;" horiz-adv-x="277" 
d="M-15 198l122 122l-122 122v106l228 -228l21 -21l-228 -228l-21 21v106zM-3 193v-72l199 199l-199 199v-72l127 -127z" />
    <glyph glyph-name="Euro" unicode="&#x20ac;" horiz-adv-x="405" 
d="M164 79h171l21 -21v-94l-265 -21l-21 21l-21 21v171h-43l-21 21v94h64v141h-43l-21 21v94h64v192h286l21 -21v-94h-192v-77h107l21 -21v-94h-128v-141h107l21 -21v-94h-128v-77zM61 -3h262v70h-192v122h128v70h-128v186h128v70h-128v122h192v70h-262v-192h-64v-70h64
v-186h-64v-70h64v-192z" />
    <glyph glyph-name="trademark" unicode="&#x2122;" horiz-adv-x="533" 
d="M177 604h-13v-256l-73 -21l-21 21l-21 21v235h-43l-21 21v94h280l21 -21l39 -78l50 99h88l21 -21v-350h-94l-21 21v79l-28 -55l-21 21l-28 56v-122h-94l-21 21v235zM61 381h70v256h58v-256h70v182l61 -122l61 122v-182h70v326h-69l-62 -124l-62 124h-261v-70h64v-256z
" />
    <glyph glyph-name="ff" unicode="&#xfb00;" horiz-adv-x="580" 
d="M179 -21h-94l-21 21v363h-43l-21 21v64h64v256h211v1h222l21 -21v-94h-128v-141h107l21 -21v-94h-128v-354h-94l-21 21v362h-96v-384zM179 448h10v1h86v140h-96v-141zM146 12v384h141v-383h70v354h128v70h-128v186h128v70h-198v-1h-211v-256h-64v-40h64v-384h70zM287 437
h-86v-1h-55v186h141v-185z" />
    <glyph glyph-name="fi" unicode="&#xfb01;" 
d="M179 -21h-94l-21 21v363h-43l-21 21v64h64v256h252l21 -21v-94h-158v-141h201l21 -21v-448h-94l-21 21v363h-107v-384zM146 12v384h152v-384h70v424h-222v186h158v70h-228v-256h-64v-40h64v-384h70z" />
    <glyph glyph-name="fl" unicode="&#xfb02;" 
d="M179 -21h-94l-21 21v363h-43l-21 21v64h64v256h316l21 -21v-704h-94l-21 21v363h-107v-384zM286 589h-107l17 -141h90v141zM146 436v186h152v-186h-152zM146 12v384h152v-384h70v680h-292v-256h-64v-40h64v-384h70z" />
    <glyph glyph-name="ffi" unicode="&#xfb03;" horiz-adv-x="691" 
d="M179 -21h-94l-21 21v363h-43l-21 21v64h64v256h224h28h224l21 -21v-94h-158v-141h201l21 -21v-448h-94l-21 21v363h-107v-384h-94l-21 21v363h-62h-47v-384zM179 448h26h83v141h-109v-141zM146 12v384h154v-384h70v384h152v-384h70v424h-222v186h158v70h-452v-256h-64
v-40h64v-384h70zM300 436h-154v186h154v-186z" />
    <glyph glyph-name="ffl" unicode="&#xfb04;" horiz-adv-x="686" 
d="M179 -21h-94l-21 21v363h-43l-21 21v64h64v256h222h30h286l21 -21v-704h-94l-21 21v363h-107v-384h-94l-21 21v363h-63h-44v-384zM179 448h23h84v141h-107v-141zM508 589h-107l17 -141h90v141zM146 12v384h152v-384h70v384h152v-384h70v680h-514v-256h-64v-40h64v-384h70
zM368 436v186h152v-186h-152zM298 436h-152v186h152v-186z" />
    <glyph glyph-name="uniFB06" unicode="&#xfb06;" horiz-adv-x="741" 
d="M396 -21h-375l-21 21v64h270v92h-249l-21 21v271h368v-2h56v256h102l21 -21v-235h107l21 -21v-94h-128v-239h108l21 -21l-5 -92h-219l-21 21l-7 331h-115l-21 21v11h-173v-92h253l21 -21zM363 12l-7 247h-274v137h218v-32h136l7 -352h196l3 68h-128v284h128v70h-128v256
h-78v-256h-80v2h-344v-247h270v-137h-270v-40h351z" />
  </font>
</defs>
</svg>
